<?xml version="1.0" encoding="utf-8"?>
<!-- Generator: Adobe Illustrator 23.0.2, SVG Export Plug-In . SVG Version: 6.00 Build 0)  -->
<svg version="1.1" id="Layer_1" xmlns="http://www.w3.org/2000/svg" xmlns:xlink="http://www.w3.org/1999/xlink" x="0px" y="0px"
	 viewBox="0 0 168.6 178.4" style="enable-background:new 0 0 168.6 178.4;" xml:space="preserve">
<style type="text/css">
	.st0{clip-path:url(#SVGID_2_);}
	.st1{clip-path:url(#SVGID_4_);}
</style>
<g>
	<g>
		<defs>
			<rect id="SVGID_1_" x="-23.7" y="-18.9" width="216" height="216"/>
		</defs>
		<clipPath id="SVGID_2_">
			<use xlink:href="#SVGID_1_"  style="overflow:visible;"/>
		</clipPath>
		<path class="st0" d="M29.4,83.2C18.8,75.1,12,63.1,12,48.8C12,21.4,31.8,2,68.2,2h53.8v174.3H64c-37.1,0-61.9-17.9-61.9-50.3
			C2.1,106.8,13.9,92.1,29.4,83.2 M91.7,30.4H68.2c-16.2,0-26,6.9-26,20.1c0,14,9.8,20.1,26,20.1h23.6
			C91.7,70.7,91.7,30.4,91.7,30.4z M64,147.8h27.7V99.2H63.3c-19.9,0-30.9,10.3-30.9,25C32.3,138.9,43.4,147.8,64,147.8"/>
	</g>
	<g>
		<defs>
			<rect id="SVGID_3_" x="-23.7" y="-18.9" width="216" height="216"/>
		</defs>
		<clipPath id="SVGID_4_">
			<use xlink:href="#SVGID_3_"  style="overflow:visible;"/>
		</clipPath>
		<path class="st1" d="M151.1,176.3c-8.6,0-15.5-6.9-15.5-15.5s6.9-15.5,15.5-15.5s15.5,6.9,15.5,15.5
			C166.5,169.4,159.7,176.3,151.1,176.3"/>
	</g>
</g>
</svg>
