<?xml version="1.0" encoding="utf-8"?>
<!-- Generator: Adobe Illustrator 23.0.2, SVG Export Plug-In . SVG Version: 6.00 Build 0)  -->
<svg version="1.1" xmlns="http://www.w3.org/2000/svg" xmlns:xlink="http://www.w3.org/1999/xlink" x="0px" y="0px"
	 viewBox="0 0 168.9 177.8" style="enable-background:new 0 0 168.9 177.8;" xml:space="preserve">
<style type="text/css">
	.st0{display:none;}
	.st1{display:inline;}
	.st2{clip-path:url(#SVGID_2_);fill:#FFFFFF;}
	.st3{clip-path:url(#SVGID_4_);fill:#FFFFFF;}
</style>
<g id="Layer_2" class="st0">
	<rect x="-21.8" y="-18.3" class="st1" width="213" height="214"/>
</g>
<g id="Layer_1">
	<g>
		<g>
			<defs>
				<rect id="SVGID_1_" x="-23.1" y="-19.2" width="216" height="216"/>
			</defs>
			<clipPath id="SVGID_2_">
				<use xlink:href="#SVGID_1_"  style="overflow:visible;"/>
			</clipPath>
			<path class="st2" d="M30,82.9c-10.6-8.1-17.4-20.1-17.4-34.4c0-27.5,19.9-46.9,56.2-46.9h53.8V176H64.6
				C27.5,176,2.7,158,2.7,125.6C2.7,106.5,14.5,91.8,30,82.9 M92.3,30.1H68.8c-16.2,0-26,6.9-26,20.1c0,14,9.8,20.1,26,20.1h23.6
				C92.3,70.4,92.3,30.1,92.3,30.1z M64.6,147.5h27.7V98.9H63.8c-19.9,0-30.9,10.3-30.9,25C32.9,138.7,44,147.5,64.6,147.5"/>
		</g>
		<g>
			<defs>
				<rect id="SVGID_3_" x="-23.1" y="-19.2" width="216" height="216"/>
			</defs>
			<clipPath id="SVGID_4_">
				<use xlink:href="#SVGID_3_"  style="overflow:visible;"/>
			</clipPath>
			<path class="st3" d="M151.7,176c-8.6,0-15.5-6.9-15.5-15.5s6.9-15.5,15.5-15.5s15.5,6.9,15.5,15.5
				C167.1,169.1,160.2,176,151.7,176"/>
		</g>
	</g>
</g>
</svg>
