<svg width="19" height="18" viewBox="0 0 19 18" fill="none" xmlns="http://www.w3.org/2000/svg">
<path d="M18.4074 4.21888H10.6354V0.351562C10.6354 0.157429 10.4522 0 10.2263 0H0.409052C0.183133 0 0 0.157429 0 0.351562V17.6484C0 17.8425 0.183133 17.9999 0.409052 17.9999H10.2263H18.4074C18.6333 17.9999 18.8164 17.8425 18.8164 17.6484V4.57044C18.8164 4.37627 18.6332 4.21888 18.4074 4.21888ZM10.6354 4.922H17.9983V13.7812H10.6354V4.922ZM4.09052 17.2968V14.4843H6.54484V17.2968H4.09052ZM6.95389 13.7812H3.68147C3.45555 13.7812 3.27242 13.9386 3.27242 14.1327V17.2968H0.818105V0.703123H9.81726V17.2968H7.36294V14.1327C7.36294 13.9386 7.17977 13.7812 6.95389 13.7812ZM10.6353 17.2968V14.4843H17.9983V17.2968H10.6353Z" fill="#828282"/>
<path d="M4.90856 2.8125H5.72655C5.95247 2.8125 6.1356 2.6551 6.1356 2.46093V1.75781C6.1356 1.56364 5.95247 1.40625 5.72655 1.40625H4.90856C4.68264 1.40625 4.49951 1.56364 4.49951 1.75781V2.46093C4.49951 2.6551 4.68264 2.8125 4.90856 2.8125Z" fill="#828282"/>
<path d="M4.90856 5.27343H5.72655C5.95247 5.27343 6.1356 5.11604 6.1356 4.92187V4.21875C6.1356 4.02458 5.95247 3.86719 5.72655 3.86719H4.90856C4.68264 3.86719 4.49951 4.02458 4.49951 4.21875V4.92187C4.49951 5.11604 4.68264 5.27343 4.90856 5.27343Z" fill="#828282"/>
<path d="M4.90856 7.73437H5.72655C5.95247 7.73437 6.1356 7.57698 6.1356 7.38281V6.67969C6.1356 6.48552 5.95247 6.32812 5.72655 6.32812H4.90856C4.68264 6.32812 4.49951 6.48552 4.49951 6.67969V7.38281C4.49951 7.57698 4.68264 7.73437 4.90856 7.73437Z" fill="#828282"/>
<path d="M4.90856 10.1953H5.72655C5.95247 10.1953 6.1356 10.0379 6.1356 9.84375V9.14062C6.1356 8.94646 5.95247 8.78906 5.72655 8.78906H4.90856C4.68264 8.78906 4.49951 8.94646 4.49951 9.14062V9.84375C4.49951 10.0379 4.68264 10.1953 4.90856 10.1953Z" fill="#828282"/>
<path d="M4.90856 12.6562H5.72655C5.95247 12.6562 6.1356 12.4989 6.1356 12.3047V11.6016C6.1356 11.4074 5.95247 11.25 5.72655 11.25H4.90856C4.68264 11.25 4.49951 11.4074 4.49951 11.6016V12.3047C4.49951 12.4989 4.68264 12.6562 4.90856 12.6562Z" fill="#828282"/>
<path d="M2.04534 2.8125H2.86333C3.08925 2.8125 3.27238 2.6551 3.27238 2.46093V1.75781C3.27238 1.56364 3.08925 1.40625 2.86333 1.40625H2.04534C1.81942 1.40625 1.63629 1.56364 1.63629 1.75781V2.46093C1.63629 2.6551 1.81942 2.8125 2.04534 2.8125Z" fill="#828282"/>
<path d="M2.04534 5.27343H2.86333C3.08925 5.27343 3.27238 5.11604 3.27238 4.92187V4.21875C3.27238 4.02458 3.08925 3.86719 2.86333 3.86719H2.04534C1.81942 3.86719 1.63629 4.02458 1.63629 4.21875V4.92187C1.63629 5.11604 1.81942 5.27343 2.04534 5.27343Z" fill="#828282"/>
<path d="M2.04534 7.73437H2.86333C3.08925 7.73437 3.27238 7.57698 3.27238 7.38281V6.67969C3.27238 6.48552 3.08925 6.32812 2.86333 6.32812H2.04534C1.81942 6.32812 1.63629 6.48552 1.63629 6.67969V7.38281C1.63629 7.57698 1.81942 7.73437 2.04534 7.73437Z" fill="#828282"/>
<path d="M2.04534 10.1953H2.86333C3.08925 10.1953 3.27238 10.0379 3.27238 9.84375V9.14062C3.27238 8.94646 3.08925 8.78906 2.86333 8.78906H2.04534C1.81942 8.78906 1.63629 8.94646 1.63629 9.14062V9.84375C1.63629 10.0379 1.81942 10.1953 2.04534 10.1953Z" fill="#828282"/>
<path d="M2.04534 12.6562H2.86333C3.08925 12.6562 3.27238 12.4989 3.27238 12.3047V11.6016C3.27238 11.4074 3.08925 11.25 2.86333 11.25H2.04534C1.81942 11.25 1.63629 11.4074 1.63629 11.6016V12.3047C1.63629 12.4989 1.81942 12.6562 2.04534 12.6562Z" fill="#828282"/>
<path d="M8.59001 1.40625H7.77203C7.54611 1.40625 7.36298 1.56364 7.36298 1.75781V2.46093C7.36298 2.6551 7.54611 2.8125 7.77203 2.8125H8.59001C8.81593 2.8125 8.99906 2.6551 8.99906 2.46093V1.75781C8.99906 1.56364 8.81593 1.40625 8.59001 1.40625Z" fill="#828282"/>
<path d="M8.59001 3.86719H7.77203C7.54611 3.86719 7.36298 4.02458 7.36298 4.21875V4.92187C7.36298 5.11604 7.54611 5.27343 7.77203 5.27343H8.59001C8.81593 5.27343 8.99906 5.11604 8.99906 4.92187V4.21875C8.99906 4.02462 8.81593 3.86719 8.59001 3.86719Z" fill="#828282"/>
<path d="M8.59001 6.32812H7.77203C7.54611 6.32812 7.36298 6.48552 7.36298 6.67969V7.38281C7.36298 7.57698 7.54611 7.73437 7.77203 7.73437H8.59001C8.81593 7.73437 8.99906 7.57698 8.99906 7.38281V6.67969C8.99906 6.48555 8.81593 6.32812 8.59001 6.32812Z" fill="#828282"/>
<path d="M8.59001 8.78906H7.77203C7.54611 8.78906 7.36298 8.94646 7.36298 9.14062V9.84375C7.36298 10.0379 7.54611 10.1953 7.77203 10.1953H8.59001C8.81593 10.1953 8.99906 10.0379 8.99906 9.84375V9.14062C8.99906 8.94649 8.81593 8.78906 8.59001 8.78906Z" fill="#828282"/>
<path d="M8.59001 11.25H7.77203C7.54611 11.25 7.36298 11.4074 7.36298 11.6016V12.3047C7.36298 12.4989 7.54611 12.6562 7.77203 12.6562H8.59001C8.81593 12.6562 8.99906 12.4989 8.99906 12.3047V11.6016C8.99906 11.4074 8.81593 11.25 8.59001 11.25Z" fill="#828282"/>
<path d="M16.1575 6.32812H15.3395C15.1136 6.32812 14.9304 6.48552 14.9304 6.67969V7.38281C14.9304 7.57698 15.1136 7.73437 15.3395 7.73437H16.1575C16.3834 7.73437 16.5665 7.57698 16.5665 7.38281V6.67969C16.5665 6.48555 16.3833 6.32812 16.1575 6.32812Z" fill="#828282"/>
<path d="M16.1575 8.78906H15.3395C15.1136 8.78906 14.9304 8.94646 14.9304 9.14062V9.84375C14.9304 10.0379 15.1136 10.1953 15.3395 10.1953H16.1575C16.3834 10.1953 16.5665 10.0379 16.5665 9.84375V9.14062C16.5665 8.94649 16.3833 8.78906 16.1575 8.78906Z" fill="#828282"/>
<path d="M16.1575 11.25H15.3395C15.1136 11.25 14.9304 11.4074 14.9304 11.6016V12.3047C14.9304 12.4989 15.1136 12.6562 15.3395 12.6562H16.1575C16.3834 12.6562 16.5665 12.4989 16.5665 12.3047V11.6016C16.5665 11.4074 16.3833 11.25 16.1575 11.25Z" fill="#828282"/>
<path d="M13.2941 6.32812H12.4761C12.2502 6.32812 12.0671 6.48552 12.0671 6.67969V7.38281C12.0671 7.57698 12.2502 7.73437 12.4761 7.73437H13.2941C13.52 7.73437 13.7032 7.57698 13.7032 7.38281V6.67969C13.7032 6.48555 13.52 6.32812 13.2941 6.32812Z" fill="#828282"/>
<path d="M13.2941 8.78906H12.4761C12.2502 8.78906 12.0671 8.94646 12.0671 9.14062V9.84375C12.0671 10.0379 12.2502 10.1953 12.4761 10.1953H13.2941C13.52 10.1953 13.7032 10.0379 13.7032 9.84375V9.14062C13.7032 8.94649 13.52 8.78906 13.2941 8.78906Z" fill="#828282"/>
<path d="M13.2941 11.25H12.4761C12.2502 11.25 12.0671 11.4074 12.0671 11.6016V12.3047C12.0671 12.4989 12.2502 12.6562 12.4761 12.6562H13.2941C13.52 12.6562 13.7032 12.4989 13.7032 12.3047V11.6016C13.7032 11.4074 13.52 11.25 13.2941 11.25Z" fill="#828282"/>
</svg>
