<svg xmlns="http://www.w3.org/2000/svg" xmlns:xlink="http://www.w3.org/1999/xlink" viewBox="0 0 1920 540">
  <style>
    .st0 {
      clip-path: url(#clip_mask);
    }

    .st1 {
      fill: none;
    }

    .st2 {
      fill:none;
      stroke: #232323;
      stroke-width: 1;
      stroke-linecap: round;
      stroke-linejoin: round;
    }
  </style>
  <g class="st0" transform="scale(1.3)">
    <path class="st1" d="M.5 540.1V-.2h1919v540.3"/>
    <path class="st2" d="M170.1 554.6c-6.4-14.5-13.2-28.8-19.3-43.5-1.5-4.1-2.7-8.3-3.5-12.5-1.4-6.3 0-11.4 1.2-17.9 1.8-10.2 7-21.8 12.4-30.5 3.7-5.9 8.9-11.3 13.2-16.8 3.2-4 7.1-7.8 8-12.9 1.9-11.4-9.4-23.9-15.1-32.6-6.1-9.3-13.6-19-15.6-30.1-1-5.6-1.5-11-.2-16.5 1.4-5.9 4-12.5 4-18.5 0-13-10-22.6-19.2-30.7-8.5-7.5-20.3-13.4-27.3-1.2-12.1 21.1.6 46.7 1.7 68.8.6 11.9.8 23.4-3.4 34.8-4.3 11.9-11.9 22.4-15.6 34.5-3.8 12.5-1 26.2-.4 39.2.5 9.8.5 19.6.1 29.4-.7 14.2-1.7 28.5-2 42.7M-7-22.8C-11-16.2-17-9-15.4-1.1c3.7 18.3 32.5 12.8 45.8 12m0 0c6.8-3.6 10.2-6.7 10.9-14.6.8-9.4-.3-19 .6-28.4m526.6 493.4c14.4-2.8 25.9-12.6 37.9-20.6 8.4-5.6 31.2-16.1 20.4-29.7-7.9-9.9-26.1-11.1-37.3-8.8-14.9 3-28.4 8.9-35.3 23.5-3 6.9-3.7 14.6-1.8 21.9 2.5 8.4 7.9 11.9 16.1 13.7"/>
    <path class="st2" d="M564.7 557.2c1.4-12.2 4.3-20.5 9.8-31.3 10-19.9 21-43.6 42-53.8 10.3-5 23.1-4.7 34.1-7.8 11.4-3.3 18.8-13.6 27-21.6 7.9-7.9 17.1-14.4 27.2-19.1 5.3-2.6 8.9-5.4 6-11.9-1.8-3.9-7.3-9.3-10.9-11.8-8.4-5.8-19.6-7.4-28.3-12.8-11.5-7-21.8-16.5-33.7-22.8-10.2-5.4-22.7-7.5-33.5-11.7-7.3-2.9-16.3-13-22.9-6.3-9.1 9.3-14.6 22.3-24 31.4-8 7.8-19.9 11.5-27.8 19.4s-7.1 20.2-7.8 30.2c-.8 10.9-3 23.3.2 34.1 3.6 11.9 14.4 18.5 22 27.6 2.5 2.9 6.8 8.5 7.2 12.2.6 5.4-4 9.4-7.1 12.8-8.7 9.3-16.6 16.7-18.3 29.9m273.8-89c13.9-3.5-1.6-18.9-7-22.5-7.8-5.2-19.5-13-29.1-14.4-6.9-1-25.7 4.9-25 13.8.7 9.1 15.8 13.6 23 15.6 13.1 3.6 24.5 6.6 38.1 7.5M1144.5-57c-8.3 7.8-16.1 16.6-20.5 27.1s-6 23-12.6 32.7c-6.8 10-21.2 19.2-22.9 32-.8 5.7 5.6 10 10.3 11.7 6.4 2.3 12.3.6 18.7-.5m0 0c10.4-6 20.4-11.8 31.4-16.4 9.3-3.8 18.4-7.4 23-17 6.7-13.8 12.7-28 19-41.9m405.6-2.6c-1.2 13 7.1 18.1 16.2 25.6 7.9 6.4 14.6 13 19 22.5 4.1 8.9 4.4 20.3 9.3 28.6 2.6 4.5 6.2 4.5 10.9 5.1m.1 0c19.3-5.9 38.5-11.3 58.2-16.1 10.4-2.6 21.9-4.2 32-8 9-3.3 15.5-8.9 8.1-17.4s-16.7-14.8-21.1-25.5m-1591.8 572c-4.6-8.8-15.4-24.2-21.4-7.7-1.3 3.5-1.1 7.9-1.5 11.7"/>
    <path class="st2" d="M156.1 545.3c-5.6-12.1-13.1-24.6-17.2-37.4-7.9-24.8 7-52.8 20.9-72.8 4.3-6.2 7-9.8 8.6-17 1.2-5.7-1.5-11.5-4.4-16.6-6.7-11.7-17.8-20.8-23.3-33.3-2.6-6-4.3-12.4-5-19-.6-6.8 1.4-14 1.3-20.9-.1-5.6-1.1-11.2-6-14.7-7.1-5.1-11.1 1.2-12.1 7.7-1.8 11.3 4.3 23.7 4.7 35.2.6 14.9.3 28.1-5.2 42.2-4.5 11.5-11.8 22-15.9 33.6-4.5 12.7-2.7 26.9-2.7 40.1 0 25.2-2.9 50.1-3.1 75.2"/>
    <path class="st2" d="M223.6 566.9c-4.5-9.5-13.7-10.2-21.4-16.4-5.3-4.2-9-11-11.7-17.2-7.2-16.7-18.6-34.8-14-53.7 4.4-18.5 19.9-29.1 32.5-41.7 5.3-5.3 9.8-11.5 10.2-19.2.5-8.4-4.4-13.5-9.6-19.5-10.1-11.8-29.6-28.8-26.5-46.6 1.7-9.8 11.6-15.3 17.1-22.8 4.8-6.5 2.8-11.8-2-17.9-12.1-15.2-26.1-28.7-37.7-44.4-4.9-6.6-8.6-13-10.6-20.9-2.2-8.6-.3-18.3-2.7-26.8-2.2-7.9-8.9-14.6-12-22.2s-3.4-15-1.9-22.9c1.9-9.9 6.5-18.7 4.8-29-1.3-8-7.1-16.1-13.6-21.1-6.7-5.2-15.6-9.3-23.8-5.4-7.3 3.5-12.5 12-17.7 17.9-10.6 12.3-25.9 28-24 45.6.9 8.5 6.3 16.1 10.2 23.5 4.4 8.5 8.5 16.2 10.3 25.8 2.9 16.3-6.3 33.7-8.9 49.5-3.1 19.7 4.4 37 8 56.1 3.2 16.6 1.2 29.6-4.6 45.2C68 399 57.1 418 59.9 436c2.6 16.5 9.4 31.1 9.1 48-.3 21.2-3.2 42.7-4.7 63.9M.3 30.6c12.5-.2 22.3-.8 33.8 4.2L52 42.4m0 0c19.5-2.1 6.6-56.5 6.6-67.4m1470.6 399.6c11.8-2.1 22.4-3.9 34.3-4 10.5-.1 27.6 3.3 36.2-5 9-8.7 4.2-27.6 4-38.3-.1-11.3 3.9-22.2 2.9-33.5-1.9-21.9-21.1-41.1-19.5-63.3.9-12.6 2-25.4 5.6-37.5 3.4-11.7 7.4-22.6 6.2-34.8-1-10.2.2-30.4-15.5-26.6-10.2 2.5-19.8 8.8-29.8 12.3-13.7 4.8-28.5 7.5-41.8 13.2-3.9 1.7-8.2 3.7-4.3 8.2 4.5 5.1 11.9 8.2 17.1 12.7 9.5 8.2 14.2 16.9 12.6 29.3-1.4 11-8.9 19.7-15.2 28.5-6.9 9.6-12.9 19.5-21.8 27.3-9.8 8.5-21.4 16.7-28.8 27.6-6.5 9.6-11.3 22.3-15.9 33-3.8 8.9-10.8 23-6.5 32.5s19 16 28.6 18.7c10.8 3 23.3 3.6 34.5 3 6-.4 11.3-1.8 17.1-3.3m55.3-390.8c2.7 5.8 11.5 9.9 16.4 13.2 6.6 4.5 12.7 8.1 17.5 14.6 9.4 12.8 8.1 29.9 11.5 44.7 1.6 7 4.7 8.8 11.3 11.3m0 .1c14.4-3.6 26.2-11.9 40.1-16.7 13.1-4.6 26.9-8.9 40.7-10.6 16.8-2.1 30.5-3.8 45.5-11.9 5.7-3 13.3-6.6 16.3-12.7 3.8-7.7-6.1-10.3-11.7-12.5-14.8-5.8-29.2-12.2-34.2-28.7"/>
    <path class="st2" d="M0 45.3c27-.3 44.8 28.5 53.4 39.6 8.9 11.5 13.4 26.1 8.2 40.3s-16.4 26-21.8 40.2c-3.2 8.2-4.4 14.4-1.7 22.9 2.3 7.3 7.8 14 11.8 20.6 7.5 12.2 12.3 24.4 5.5 38.3-3.7 7.5-9 14.7-12 22.5-3.1 8.3-2 15.7.4 24 4.2 15 13.9 27.4 15 43.4.5 7-1.4 12.9-6.5 17.6-5.9 5.4-13.9 10.4-15.2 19-1 7.1 3.5 15 3.7 22.2.1 6.7-2.6 13.6-2.9 20.3-.5 15.8 9 29.9 12.6 45 3.8 15.6 1.5 30-2.2 45.4-1.4 6-2.3 15.9-7.7 20.1-5.7 4.4-34 12.6-40.6 13.3m248.4 1.7c-.2-5.7.9-15.1-5-18.5s-15.6.3-22.1 0c-9.2-.4-13.7-5.3-18.6-12.5-9-13.6-10.3-28.5-1.5-42.2 8.2-12.7 21.3-21.1 30.6-32.9 9-11.3 9.2-28-.4-38.9-6.5-7.4-13.7-14.5-19.7-22.3-3.7-4.9-6.6-10.4-4.7-16.4 4.7-14.9 25.7-18.9 30.3-34 5-16.2-18.8-23.8-28.6-30.8-12.4-8.9-22.8-22-31.2-34.6-4.1-6.2-7.5-12.4-7.3-20.1.2-7.5 3-15.6.9-23.1-2.3-8-9.3-14.5-13.9-21.1-4.3-6.3-5.2-12.1-4.2-19.6 1.1-8.1 4.4-16 6.6-24 2-7.1-.1-13.1-3.2-19.8-6.2-13.1-17.5-24.8-29-33.3-7.4-5.5-15.6-10.3-23.3-15.5-5.4-3.6-10.6-7.4-12.7-13.9-2.5-8-2.6-17.1-4-25.4-1-5.9-8.4-37-9.7-42.8M510-21c-9 5.6-18.8 9.5-27.7 15.4-8.5 5.6-21.8 11.5-26 21.5-3.9 9.3 7 19.1 12.1 25.7 6.9 8.8 13.8 17.3 19.1 27.3 4.7 8.8 6.2 20.2-5.4 23.4-9.6 2.6-20.3-.8-30.1 0-12 .9-20.4 6.8-24.1 18.6-2.6 9.2-3.8 18.6-3.5 28.2.4 11.8 1.5 22.3 6.1 33.3 4.1 9.8 11.1 18.8 14.5 28.9 4.3 12.5-1.9 17.7-7.3 28.2-4.3 8.2-6.1 18.4-7 27.5-.5 5.4.3 11.4-.9 16.6-1.3 5.7-5 11.2-7.1 16.8-3.2 8.8-2.5 18.6-5.2 27.7-2.9 9.6-5.4 18.2-4.4 28.4 1.1 11.7 3.2 23.6 3.5 35.4.2 8.9 1.9 21.5-8.7 23.3-6.6 1.1-13.4 1.7-20.1 2.6-5.2.7-12.3 3-17.5 2.3-11.3-1.5-8.7-17.1-18.6-20.4-8.3-2.8-23.9 8-27.3-4.1-2.9-10.4-.6-21.5 2.1-31.6 1.4-5.2 3.4-10.5 3.5-16 0-5.8-2.5-9.4-5.6-14.1-6.3-9.7-4.1-21.4-3.9-32.5.2-10.4-1.4-19.7-6-29.1-4.4-8.5-10.8-15.9-18.6-21.4-7.3-5.3-21.8-10.3-15.3-21.6 5.5-9.5 16.3-15.9 22.1-25.3 6-9.6 1.2-19.1-8.3-23.7-9.2-4.5-22.2-7.4-20.9-19.9 1-9.3 10.1-21.1 3.8-30.2-6.2-8.8-19.6-12.2-28.3-17.7-8.2-5.3-15.2-11.8-20.1-20.3s-6.6-18.5-14.1-25.3c-8.3-7.4-17.5-14.5-24.9-22.7-4.7-5.2-19.5-19.5-9.2-24.6 9.5-4.8 24.1-3.5 34.3-4.5 14-1.7 52-2.2 46.7-24.3-2.5-10.5-10.1-18.6-16.8-26.5m771.4 629.3c8.6-6.5 16.8-14.3 24.8-21.6 6.1-5.5 11.7-12 12.6-20.5 1-9.2-2.4-19.4-5.6-28-3.4-9.2-8.4-15-16.1-21-14-11-37.3-10.1-34.6-33.5.6-4.9 2.2-9.4 3.8-13.9 1.3-3.5 4.6-9.2 3.8-13.1-1.7-7.9-18-8.2-24-7.3-10.2 1.5-18.9 7.1-28.8 9.5-8.1 2-15.1-.8-21.9-5-8.4-5.2-16.6-10.3-25.4-14.8-3.7-1.9-8.5-3.5-11.7-6.1-4-3.2-7.3-8.7-10.7-12.7-8.9-10.6-34.5-25.3-21.2-40.2 12-13.5 33.7-15.4 48.7-24.6 18-11 32.7-25 48.3-39.1 5.1-4.6 14.7-10.6 16-18.2 1.6-9.8-9.8-16.8-17-20.6-16.9-9.1-37-6.1-54.9-1.9s-34.8 13.7-52.3 19.5c-6.2 2.1-17.5 6.4-23.4 2-7.1-5.3-2.6-19.4-7.5-26.9s-16.7-7.1-24.7-5.8c-9.6 1.5-18.2 5.6-26.8 10s-16.6 10.1-24.8 15.3c-6.7 4.3-15.2 10.5-20.3 1-4.4-8.2-1.2-19 1.8-27.1 3.4-9.2 8-16.5 13.2-24.8 4-6.4 12.3-15.6 8.6-23.9-4-9-14.7-12.1-23.4-14-8.3-1.8-17.9 1-24.8-3.7-.2-1.9 9.3-7.4 11.6-8.6 4.5-2.4 9-4.5 13.7-6.4 10.3-4 20.7-6.5 31.5-8.6 5-1 10.3-1.5 15.1-3 6.5-2 9.6-4.8 6-11.1-3.7-6.6-10.5-11.3-16.3-16.1-17.9-14.7-37.3-28.5-54.1-44.5-4.8-4.5-9.1-9.6-13.6-14.3-2.4-2.5-7.9-6.6-8.5-10.5-1.4-9.5 19.7-11.3 25.9-12.1 22.3-3 44.7 8.6 66.1 13.6 8.8 2 19 2.6 28 2.8 5 .1 11.8.3 16.6-1 5.6-1.5 6.7-5.2 4.5-10.5-3.7-8.8-13.9-17.4-20.1-24.2C796.8 10 789.7 1.5 783-7.3m787.1-17.5c-1.6 3.4-4.3 7.6-2.9 11.6 1.3 3.8 5.9 6.3 9.2 8 9.8 5.3 22.4 9.6 30.3 17.7 7 7.3 9.3 16.4 10 26.3.7 10.2 1.4 22.2.2 32.4-1.7 12.1-13.8 12.1-22.8 17-10.4 5.6-17.1 16.7-24.6 25.5-5.9 7.2-13.5 12.7-22.1 16.1-20.1 7.8-42.5 7-63.6 7.6-10.1.3-20.1.5-30.1 1.5-8.5.9-23 1.4-29.2 8.1-6.8 7.3 8.4 12.1 13.2 14.1l40 16c8.3 3.3 18.1 5.8 25.8 10.3 4 2.4 8.6 6 10.7 10 3.3 6.2 2.6 9.9 0 16.3-4 9.9-12.7 18.9-18.8 27.6-5.8 8.1-12.7 13.4-20.5 19.8-6.8 5.6-14.8 11.4-19.4 19-6.1 10.2-10 22.8-14.7 33.7-3.8 8.7-7.1 17.7-12.2 25.7-6.2 9.7-14.4 17.2-21.2 26.4-1.9 2.6-5.4 7.8-3.4 11 2.6 4 11.5 2.5 15.2 2.5 9.7 0 17.8.9 26.5 5.2 10.4 5.2 19.4 10.5 30.8 12.3s21.3 2.8 28.3 13.1c5.7 8.4 8.1 19.5 10.6 29.3 2.8 11.4 3.8 20.8-7.8 27-7.3 3.9-16.5 5.6-24.5 8l-42.6 13.1c-18.1 5.4-35.1 14-50.2 25.4-23.3 17.6 26 29 36.5 32.3 8.6 2.7 18.9 5.7 25.3 12.3 6.9 7.2 8.3 20.1.4 27.1s-22.8 6.7-32.8 8.5m229.2-16.2c.8-9.5 4.4-19.1 4.6-28.6.2-10.5-2.4-21-12.2-25.7-9.3-4.4-22.3.7-31.8 2.9s-17.7 2.7-21.8-7.5c-4-9.9-7.1-19.8-13.3-28.5-6.9-9.5-15.2-16.4-11.6-28.7 3.2-10.9 4.8-20.4 1.8-31.6-1.4-5.1-3.5-10.1-5.3-15.2-1.6-4.5-5-9.3-2.1-13.7 4.6-6.8 18.7-2.9 25.7-1.2 10.9 2.6 21.8 7.7 32.9 4.5 5.2-1.5 9-4.8 14.5-5.1s8.1 3.2 12.4 6.5c8.3 6.4 16.3 13.9 27.4 14.1 10.2.3 19.9-3.6 25.8-11.8 8.4-11.6-2.5-18.5-10-26.9-6.2-6.9-10.1-16.1-16.8-22.4-8.8-8.3-20.2-9.5-30.2-15.5-8.1-4.8-9.8-14.3-8.7-23 1.5-11.6 3.4-20.5-.2-31.6-3.2-9.8-8.7-19-11.3-29-2.4-9.2-4.6-21.8-.5-30.8 2.3-4.9 5-7.4 9.4-10.1 3.3-2 13.4-6 15.1-9.4 1.9-3.9-5-10.1-6.9-12.6-3.1-3.9-5.5-8.2-7.2-12.8-3.5-9.2-6.8-19.1-7.7-29-1-10 .2-20.7 2-30.6s1.7-22.8 8.3-31 19.2-13 28.1-18.3 17.6-10.4 27.1-14.6c20.7-9.1 41.7-9.7 63.6-12.6 8.7-1.1 17.9-5.4 25.8-9.3 9.4-4.7 18.2-10.1 25.3-17.9 4.7-5.1 16.3-17.7 5.1-22.4-9.6-4-22-2.6-32.1-5.3-11.6-3.2-19.8-7.9-24.9-18.9m195.4 486.7c-10.7-.2-21.4 4.2-32.2 2.5-10-1.6-19.4-7.8-29.3-10.2-9.6-2.3-20.4-1.6-29.9.3s-22.5 5-29.3 12.7c-15.9 18.1 3.9 44.4 12.5 61.2 3.7 7.3 8.1 17.2 4 25.3-4.6 8.8-20.6 7.7-28.7 9.5-9.8 2.1-19.5 5.3-29.2 8-9.3 2.6-19.6 4.2-28.4 8.5M1413.5-57.5c-12.5 7.3-37.6 12.9-35.3 31.6 2.1 16.7 9.1 34 20 47 2.4 2.9 5.5 5.4 8.2 8.1 3.3 3.2 8.3 5.7 2.7 9.3-3 2-8 1.9-11.3 2.6-3.8.7-7.4 1.8-11.2 1.5-8.3-.7-15.3-3.4-22.8-6.5-8.2-3.4-17.4-9.1-26.1-10.8-16.9-3.3-31.6 19.8-41.2 29.9-11.1 11.7-23.3 21.9-34.2 34s-19.7 26.1-24.3 42c-4.5 15.4-8 33.8-.7 48.8 2.8 5.7 13.3 18.3 2.2 20.1-6.5 1.1-15.9-.8-22.1-2.7-7.8-2.4-14.4-5.2-14.6-14-.3-10.2.1-17.9-2.8-27.6-2.2-7.4-4.8-15-12.1-18.9-3.2-1.7-9.8-1.9-12.1-4.6-3.4-4.1 2.9-7.8 5.4-10.5 5.9-6.2 9.5-12.2 10.6-20.8 1-7.9-.7-15.8 1-23.7 3.5-16.3 14.1-30.7 20.7-45.9 3.5-8.1 5.7-16.8 9.3-24.8s8.5-15.5 12.4-23.3m-1264.9 7c-4.6 8.1-.4 15.4 5.8 21.5 14.5 14.2 37 8.6 55.6 10.8 4.4.5 8.8.4 13.1-.3m0 0c13.1-14 3.6-36.8 6-54.1M0 38c27-2 38.1 13.5 49.9 22.7 5.5 4.3 9.7 5.1 16.6 4.5m0 0c10.6-8.1 8.4-22.2 6.9-34-2.1-16.5-5.8-33.6-6.5-50.3M583 330.2c7.3-8.4 10.4-20.1 14.7-30.2 3.8-8.9 7.9-17.3 9-27 2.5-20.9.7-42.9-6.9-62.4l-8.1-20.9c-1.3-3.3-3.1-8.9-6.9-9.4-6.7-.9-14.5 23.2-16.6 28.1-4.4 10.4-6.1 21.1-8.4 32.2-2.1 9.9-6 19.4-7.8 29.3-2.2 11.7 3.5 23.7 9.2 33.5 5.8 10 12.7 19.5 21.8 26.8m7.2-186.4c8-9.4 21.7-20.6 19.3-34.4-1.1-6.4-4.4-12.5-8.1-17.9-3.3-4.8-10.7-10.1-11.2-16.1-1.4-.2-7.8 33.6-8.5 39.2-.7 6.7-1.6 12.5-.6 19.2 1.1 6.6.7 16.9 9.1 10"/>
    <path class="st2" d="M1547.3 450.5c3.6-8.4 3-13-.8-21.1l-8.3-18c-1.6-3.5-4.4-7.6-5.3-11.4-2-9.1 6.6-15.8 14.5-17.9 8.4-2.2 16.7-.1 25 1.2 9.3 1.5 18.9 3.9 28.3 4 10.7 0 14.4-7.6 22.3-13.3 4.2-3.1 7-4.3 11.8-2.6 4.3 1.5 8.1 3.8 12.1 6 2.8 1.6 7.7 5.2 9.7.8 1.5-3.3-1.8-9.5-4.3-11.5-7.4-6-17.8-1.2-24.4-8-5.6-5.8-9.5-15.7-11.2-23.6-2-9.5.2-18.4 1.8-27.8 1.2-7.7.6-15.6-1.9-23.1-5.2-16.6-15.5-33.5-15.8-51.4-.3-19 10.4-36.3 11.1-55.2.3-7.9-.6-16-1.1-23.9-.6-11.4-.6-23-1.9-34.4-.7-6.2-2.7-16-11-14.4-8.5 1.6-16 11-22.1 16.4-29.3 25.8-68 21.7-104 28-2.7.5-8.7 1.9-8.9 5.3-.1 3 5.4 6.1 7.5 7.2 9.7 5.5 20.6 9.6 30.7 14.4 14.2 6.6 32.2 17.3 25.4 35.9-2.9 7.9-9.1 14.8-13.9 21.5-5.3 7.4-10.2 15.2-16.4 21.8-11.2 11.8-26.5 19.2-34.6 33.8-10.4 18.9-17.9 40-26.7 59.7-2.8 6.1-6.8 13.4-.1 18.3 7.7 5.7 18.3 9.2 26.9 13.5 6.2 3.2 12.9 5.4 19.9 6.3 10.5 1.4 20 1.6 29.2 7.4 6.6 4.1 8 10.5 10.5 17.4 3.8 10.5 7 21.5 11.4 31.7 3.2 7.4 7.2 12.3 14.8 7M180.9 557.3c-6.4-11.6-10.8-24.8-16.1-36.9-4.4-10.2-10.3-20.9-8.9-32.4 1.5-12.4 7.7-24.8 14.4-35.2 6-9.5 17.7-15.9 22.3-26 3.4-7.4 2.7-11.9-1-19.1-2.8-5.4-7.2-10.3-10.7-15.2-6.8-9.5-15.7-20.9-18.6-32.3-3.6-13.8 4-21.7 7.4-34.2 2.8-10.3-3.8-19-9.9-26.8-8.6-10.9-18.5-21-27.6-31.4-6.9-7.8-12.7-16.7-18.9-25.1-1.6-1.8-9.9 17.2-10 17.5-2.5 5.3-4.5 10.7-6 16.3-3.3 13.1-6.3 24.4-4.6 38 3.3 26.9 14.2 52.3 2.8 79-5.3 12.6-14.5 25.4-16.3 39.2-1.7 13 3.7 26.1 4.5 39 1.6 27.5-2 55-2.2 82.5"/>
    <path class="st2" d="M235.1 554.8c-2.1-8.5-5.9-13-14.6-14.6-10.2-1.9-15.3-4.2-20.5-13.3-7.8-13.5-19.3-31.9-13.4-47.8 3.2-8.6 6.4-14.9 12.8-21.8 6.8-7.3 15.1-13.2 21.8-20.7 11.5-13 9.9-27.3-1.1-39.5-9.3-10.4-33.1-29.3-23.9-46 6.2-11.1 36.7-21.8 22.2-37.9-5.4-6-13.4-10-19.3-15.4-6.2-5.7-11.9-12-17.1-18.6-5.8-7.2-11.7-14.1-16.5-22s-5.9-15.4-5.6-24.5-.1-15.2-4.9-22.9c-4.4-7-11-14.8-12.3-23.3-1.4-9.3 2.6-19.1 5-27.8 2.5-9.1 3-16.4-1.4-25.1-6.8-13.6-21.8-27.3-36.1-32.7-7.5-2.8-16.4-4.4-22.4 1.7-6.5 6.7-9.1 17.3-13.6 25.6-8.2 15-19.5 27.4-24.9 43.7-6 17.8 10.8 32.2 17 47.5 7.5 18.4-.7 32.4-5.7 50.2-2.5 8.1-3.4 16.6-2.7 25 .7 8.6 4.3 16.9 6.8 25.1 4.6 14.7 8.8 31.4.6 45.6-2.3 4-6 8.5-7.5 13S56.5 388.4 56 393c-1.1 8.9-4.4 17.2-6.1 26-3.1 16 7.2 31.8 9.9 47.2 3.3 19.3-1 39.1-3 58.4-.7 6.8-1.2 14.3-3.9 20.6-5 11.5-15.2 3.3-23.6.9-7.7-2.2-14.2-1-20.5 4.1M417.5-11.4C410.1-2 407.4 8.5 413 19.8c4.1 8.2 9.4 15.8 13.3 24 2.8 5.9 3.9 10-1 14.7-5.9 5.6-12.5 8.5-16.7 15.7-4.4 7.7-6.1 13.2-8 21.9-3.1 13.9-4.3 29.1-5 43.3-.8 14.6 2.9 28.6 2.9 43 0 7.7-4.4 13.1-8.1 19.6-3.9 6.8-5.9 10.8-7.3 18.4-2.8 14.9-8 26.5-16.7 39.1-1.4 2-4.1 6.3-7.2 5.6-2.6-.5-4.6-5.6-5.6-7.6-3.1-6.3-5.8-12.7-8-19.4-2.3-7-5.9-14.4-6.2-21.8-.3-7.8 3.6-15.5 5.8-23 4.1-14.3 2.1-25.9-2.6-39.6-2.8-7.9-1.5-12.9-.2-21.3 1.1-7.8.6-13.7-.3-21.6-1.9-16-18.3-19.1-30.9-24.6-12.8-5.6-25.2-12.1-31.2-25.4-4.9-10.7-11.5-25.9-1.6-35C288.9 16 302.8 8 301.9-8.5m828.7 577.6c6.6-4.6 10.7-12 3.7-18.1-5-4.4-13.3-4.5-19.1-7.8-6.4-3.7-10.2-8.9-11.4-16.1-1.3-7.8 3-15.4 4.6-23 1.2-5.6-1.1-11.3-4.2-16.1-4-6.3-8.7-14-14.9-18.2-10.5-7.2-30.9-9.3-25.2-26.5 3.4-10.2 19.7-28.1 11.8-39.8-3.9-5.8-13.6-7.6-19.5-9.6-6.7-2.1-13.2-5-19.2-8.6-12-7.1-23.5-10.5-37.7-10.2-15.4.4-28.9 3.4-43.2-3.7-6-3-14.8-5.8-18.8-11.7-3.8-5.6.7-11.4 5-15.2 11.5-10.2 25.5-20.4 39.4-27.1 11.6-5.6 25-8.1 35.8-15.2 8.2-5.4 16.2-10.9 24.4-16.4 5.3-3.5 9.5-6.1 12.1-12.2 2.5-5.8.9-14.2-3.6-18.9-5.5-5.6-14.1-3.8-21.4-4-16-.4-24.2-12.6-33.9-23.8-4.4-5.1-7.8-9.5-14-12.4-7.2-3.4-15.8-3.3-23.6-3.5-12.1-.4-25 1.2-36.9 3.6L892 220c-6.2 1.2-13.6 3.9-19.9 4-12.8 0-23.1-11-35.1-13.7-11.4-2.6-37.2-2.6-39-17.8-2.1-18.5 18.5-19.8 31.6-24.3 11.5-3.9 28.3-11.4 16.9-25.1-8.3-10-20.9-18.9-32.2-25.2-12.7-7.1-28.3-13.6-37.9-25-2.1-2.5-4.6-5.8-3.6-8.4 1.3-3.2 4.7-3 7.5-3.3 6.3-.8 12.9-1.5 19.3-.7 14.4 1.8 28.7 4.6 43.2 5.9s29 1.9 43.3 4.4c15.8 2.8 31.7 7.2 47.8 6.8 6.5-.2 12.8-1.9 18.4-5.1 4.7-2.5 12.8-8.1 10.6-14.4-4-11.6-25.1-18.1-34.9-22.9-12.7-6.2-25.3-12.4-38.3-18.1-13.9-6.1-31-10.6-40.2-23.7-8.5-12 23.5-12 30.3-12.1 16.2-.3 31.6-1 47.7-2.9 15.5-1.8 30.7-1.7 46.3-1.8 6.9-.1 11.3-1.2 18-3.4 6-2 14.1-3.9 16.6-10.6m492.2 6.9c-5.9 3.5-10.7 8.3-4.1 14.2 4.9 4.4 12.4 6.4 18.7 8.2 19.2 5.4 81.1 7.8 59.7 42.5-4.2 6.9-10.3 12.5-15.2 18.8-4.5 5.8-8 12.5-11.8 18.8-7.9 12.9-20.6 15.9-34.9 17.3-33.6 3.4-67.6 3-101.3 4.1-9.8.3-24.4-.9-30.6 8.5-1.6 2.4-2 6.9-2.8 9.5l-4.9 16.6c-1.8 6.1-4.6 12.1-1.1 18 3.2 5.5 11.3 8.7 17 11.3 6.3 2.8 12.6 6 19.2 7.7 16.2 3.9 33.7 5.2 49 12.2 5 2.3 12.4 6.3 14.1 11.9 2.2 7.3-2.9 15.6-8 20.4-9.6 9.1-25.2 9.3-32.3 21.6-4.8 8.2-7.8 18.1-11.5 26.8-2.5 5.9-4.3 10.3-5.3 16.6-2.3 15-4 29.3-15.2 40.5-10.2 10.2-21.7 20.7-33.7 28.7-12.9 8.5-26.5 16.2-32.5 31.3-2.6 6.6-5.6 16.1-2.6 23.2 3.3 7.8 11.9 4.5 17.9 3.3 7-1.4 13.5-3 20.7-2.9 7.5.1 15.8 1.2 23.1 0 8.5-1.4 16.5-6 25.1-7.3 7.7-1.1 11.6.8 17.9 4.6 6.3 4 12.9 7.6 19.7 10.9 5 2.2 17.3 5.1 15.9 12.9-1.9 10.8-29.4 16.2-37.1 18.9-13.9 4.9-27.6 9.7-41.1 15.7s-29.5 11.4-41 21.1c-11.9 10-16.6 26.6-8.2 40.6s25.4 17.5 38.4 25.3c1.8 1.1 5.2 2.5 5.8 4.7 1.3 4.4-3.9 6.1-6.8 7.9-6.5 3.9-14.4 5.3-21.6 7.5m601.2-184.1c-13.7 7.5-27.9 18.6-44.4 14.4-7.4-1.9-14.1-6.8-21.5-8.4-6.3-1.3-12.9-1.1-19.2.4-14.6 3.7-28.2 9.9-41.7 16.7-14.6 7.4-26.9 14.7-37.9 26.9-9.5 10.5-12.8 24.8-12.9 38.6 0 8.4 1.1 16.5-2.2 24.3-2.8 6.5-8.1 9.9-14.6 12.8-8.4 3.8-17.6 5.8-25.9 9.8-6 2.9-11.3 7.9-16.6 11.9-5.8 4.4-11.7 10.2-18.7 12.7s-8.9-3-9.7-9.3c-1.9-15.4 1.2-32.7-4.8-47.3-5.5-13.3-19.8-22.2-32.2-28.2-7.8-3.8-16-3.5-23.8-6.5-8.5-3.4 1.5-10.4 6.5-12.1 6.2-2.1 13.6-2.3 20-3.4 9.5-1.6 19.2-2.8 28.7-4.7 13.2-2.6 23.4-8.6 33.8-16.9 11.5-9.2 23.4-18.2 33.7-29 6.1-6.4 11.7-13.4 17.6-20.1 3.4-3.9 10.4-10.4 9.7-16-.9-7.5-12.6-5.1-17.4-5-8 .1-16.7 1.3-24.7.4-6.7-.8-13.1-3.4-17-8.9-4.3-6-8-12.5-12.8-18.2-5-5.9-11.9-11.2-14.9-18.5s-1.3-15-3.4-22.2c-1.9-6.3-5.7-11.8-11-15.7-6.2-4.6-14.1-7.2-18.6-13.8-11.6-16.8 18-20.2 28-22.2 12.8-2.6 28.8-6.9 35.5-19 3.9-7 4.7-12.2-2.1-17.2-7.5-5.6-17-8.9-24.9-13.9-11.9-7.6-20.7-19.4-29.6-30.1-4.5-5.5-10.2-10.6-12.3-17.5-2.2-7.2-1.2-15 2.9-21.4 7.2-11.7 25.2-17.2 37.8-21.1 8.8-2.7 12.6-5.5 20-11 5.2-3.8 10.3-5.9 16.8-5.7 8.6.3 16.4 2.8 25.1 1.9 6.3-.6 12.6-2.7 18.4-5.1 7.1-2.9 15.3-5.5 21.5-10 6-4.3 10.7-9.7 15.7-15.1 11.1-12.3 21.2-25.4 30.4-39.2 8.1-11.9 17.6-22.8 28.3-32.3"/>
    <path class="st2" d="M404.4-46.6c-3.7 10.6-12.2 19.2-19 27.9-5.7 7.2-9.3 18.4-11.1 27.3-2.6 13.3-2.2 25.7-1.9 39.2.1 5.2.7 10.2-.7 15.2-2.4 8.3-7.7 4.6-13.5 1.3-10.1-5.5-18-14.2-22.5-24.8-5.2-12-3.7-21.5-2.1-34.5 1.3-10.7.3-19.5-2.7-29.8m840 593.7c3.1-4.6 6.8-9.1 9.4-13.9 3.3-6 5.2-12.6 8.3-18.7 2-3.9 4.6-5.8 8-8.8 9.4-8.3 21.5-16.3 27.9-27.5 4.9-8.6 5.6-19.7 4.4-29.4-1.5-11.6-5.6-22.8-6.4-34.4s-.8-23.6-2.9-35.1c-1.3-7.1-3.4-14.5-3.9-21.7-.4-5.5.7-11.5 1.1-17.1.9-11.7-7.2-21.6-19.1-24s-10.6 22.4-11.7 29.4c-1.8 12-7.6 21-12.4 32.2-4.1 9.5-5.1 22-12.7 29.7-7.8 7.8-23.4 3.2-31.7-1.3-12.3-6.8 3.7-20.8 6.4-29.2 3.8-11.6-1.5-22.3-12.1-28-4.6-2.5-9.7-4.3-14.9-5.3-6.3-1.4-14.8-1.7-20.6-4.5-5.3-2.5-6.2-7.8-9.7-11.9-3-3.4-6.4-4.5-10.8-4.8-13.3-.9-27-.1-40.3-1.7-4.8-.6-10.6-3.7-6.6-8.6 3.7-4.5 11.6-5.8 16.6-8.1 10.4-4.8 17.5-12.8 25.4-20.8s18.1-16.3 21.5-27.5c3.3-10.9-1.3-24.7-3.8-35.3-2.9-12.2-6.9-20.7-19.9-24-10.3-2.6-22.7 2.3-31.2-5.6-8.3-7.7-10.1-20.7-21-25.6-9.4-4.3-22.7-5.5-32.8-5.9-13.2-.5-26 4.4-38.7 7.7-10.7 2.8-21.3 4.4-32.2 6.2-11.2 1.8-22.1 4.9-33 0-4.5-2-12.6-6.1-8.9-12 2.8-4.5 9.9-8.3 13.9-11.3 8.8-6.7 19-16 12.5-28-2.2-4-5.8-7.5-9.1-10.6-4.4-4.1-13.2-9.5-16-14.9-5.1-9.7 17.7-6.8 22.6-5.8 22.3 4.6 49.5 14.1 72.1 6.3 10.5-3.6 20-9.5 30.6-12.9 7.2-2.3 30.2-6.1 31.8-16.1 1.4-9.2-9.9-17.8-16.7-22.5-10.9-7.7-21.5-16.5-33-23.2-4.9-2.9-10.5-4.9-15.7-7.3-3.8-1.8-12.5-4-14.5-8.5-4.7-10.7 26.8-6.2 30.4-6.1 19.9.4 66.3-17.9 81.5-31.5m440.9-20.9c-8.8 3.8-18.2 7.1-26.5 12.1-7.8 4.6-20.1 10.7-11.6 20.2 12.3 13.7 34.2 20.1 51.3 25.2 9.4 2.8 21.5 4.5 29.8 10.2 10.4 7.1 2.1 17.6-2.2 25.9-4 7.7-7.9 15.4-15.9 19.5-9.1 4.7-20.5 4.6-30.4 5.9-20.9 2.8-41.9 2.4-62.9 2.8-7.5.2-14.7.1-22.1-.3-10.3-.6-21.8-2.7-32.1-.9-22.6 4-13.6 32.6-23.2 47.7-7.7 12-37.8 31.2-19.3 45.9 15 11.9 38.4 7.8 56.2 13.1 10.3 3 20.4 6.6 30.2 10.9 2.8 1.3 8.3 3.5 7.8 7.5-.6 4.6-7.6 10.9-10 15-4.5 7.6-6.6 16.9-11.6 24-5.7 8.2-17.2 10.5-17.6 21.7-.3 10.1 4.9 19.4 5.4 29.4.5 9.2-5.7 16-12.4 21.3-8 6.3-15.9 12.6-24.3 18.4-8.8 5.9-17.1 10.6-22.9 19.8-10.8 17.1-17.8 36.4-20.2 56.5-1 8.9.4 19.9 7 26.7 6.3 6.5 17.8 3.3 25.2 1.2 9.1-2.6 18.7-6.6 28.1-7.2 10.3-.7 20.9-1 31.1.7 1 1-16 7.5-16.3 7.5-8.2 3-16.6 5.6-24.7 8.9-11.5 4.6-23.9 10.7-33.6 18.5s-16.4 20-17.3 32.5c-.5 7.8 1 15.1 2 22.8.9 6.8-.2 10.4-5.8 14.2m654.8-195.4c-12.4 8.6-24.6 20.8-40.7 19.9-8.4-.5-16.7-4.2-25-4.5-7.1-.1-14.2.7-21.1 2.4-14.1 3.8-27.8 11.9-40.5 18.9-8.2 4.5-16.3 9.4-24.7 13.6-3.9 1.9-14.1 7.9-16 2.9s6.4-11.6 9.2-14.9l21-23.8c7.7-8.7 18.2-24.5 4.2-33-5.4-3.3-42.2-8.7-31.2-21.3 5-5.7 14.2-3.8 20.7-3.7 7.7.2 15 .8 22.5-.6 15.5-2.9 29-10.8 42.8-18.3 2.6-1.4 17.4-7.4 15-12.4-2.2-4.5-17.2-.8-20.9-.2-14.9 2.4-27.2-.5-39.7-9.4-6.7-4.8-12.7-11.6-20.4-14.4-5.8-2.1-11.9-1.1-17.7.7-16 5.1-31.5 13.5-47.8 17.4-7.9 1.9-14.3-.7-17.5-8.8-2.6-6.5 2.7-10.9 7.3-14.7 5.2-4.3 10.3-9.2 16.2-12.6 8.7-5 17.8-9.4 26.7-14.1 4.9-2.6 11.8-5.3 15-10.1 4.6-6.7-4.1-10.2-9.3-12.1-14.9-5.3-32.7-9.1-45.1-19.8-5.8-5-8.3-11.9-11.4-18.7s-9-11-12.9-17.3c-5.1-8.3 9.9-7.8 14.7-8.3 8.5-.9 14.2-3.2 22.3-6.3 6.9-2.7 14.4-2.2 21.4-4.4 6.5-2.1 12-7.3 18.5-9.4 7.6-2.5 14.2-1.3 22.1-.6 8.1.8 16 .5 23.4 3.9 14.3 6.7 25.4 19.5 41.5 22.4 5.9 1.1 14 .1 20-1 5.7-1 16.5-3.3 20.6-7.9 4.6-5.2-1.8-14.1-4.4-18.9-3.5-6.6-6.5-14.8-11.3-20.5-5.8-6.8-13.4-9.1-21.2-13-6.3-3.2-10.6-7.3-15.4-12.4-5.7-6-10.7-10.7-9.9-19.3.8-7.3 3.6-14.3 8-20.2 4.4-5.6 10.6-9.8 16.9-12.8 7.8-3.7 11.1-5 19.6-5 15.1 0 32.4-2.1 46.4 4.9m-643-51.6c-3.9 5.5-9.7 10.2-14.3 15.1-3.8 4-7.8 7.4-13.1 9.5-7.1 2.8-8-1.6-7.8-8.2s1.8-13.4 2.7-20M575.2 575.1c6.6-10.2 3.7-23.4 8.1-34.6 5.5-14 13.5-28.2 20.8-41.3 6.2-11.1 14.7-18.6 27.5-20.7 5.9-.9 12-.7 17.9.4 5.8 1 14.8 4.1 20.4.7 5.3-3.1 8.5-13.3 11.2-18.2 3-5.5 5.6-9.9 10.6-14 12-9.7 24.5-5.5 37.3-.6 11.6 4.6 23.4 8.4 35.5 11.5 14.2 3.5 28.6 8.5 43 10.8 4.6.7 15.5 2.8 16-4.4.3-5-3.1-14-5.2-18.7-6.4-14.1-18.1-20.3-30.6-28.2-5.2-3.3-9.1-7-13.6-11.2-4.8-4.6-9.7-11.9-17.3-11.2-6.3.6-11.8 7.4-18.1 8.5-4.5.8-10.6-1.5-14.6-3.7-13.3-7.5-27-14.2-41.2-20-12.4-5.2-23.3-14.2-34.5-21.6-10.4-6.9-23.2-9.6-33.7-16.3-12.2-7.9-12.1-21.3-7.1-33.7 4.4-10.8 14.6-20.8 14.5-32.8-.1-15.5-3.5-32.3-5.9-47.6-2-12.9-5.5-25.6-8.3-38.3-2.6-11.7-7.4-24.8-3.8-36.6 2.3-7.6 5.2-11.4 10.1-17.8 4.7-6.1 8.2-10.1 9.9-17.6 1.3-5.4-.6-9.9-2.8-14.9l-11.5-25.2c-5.4-11.9-7.1-25.4-10-38-1.1-4.9-1.8-12.1-5.4-16.1-4.6-5.1-11.2 1.1-15 4.8-9.3 9.2-12 20.2-10.6 33.2s6.1 24.8 4.7 37.8c-1.7 14.8-5 29.4-6.7 44.2-1.3 12-.3 24.6-3.2 36.3-3.5 13.7-7.6 27.4-10.4 41.2-2.9 14.8-5.2 28.5-9.8 42.8-2 6.1-4 10.8-2.7 17.3 1.1 5.6 4.1 10.8 6.5 15.9l12.1 25.7c2.4 5.1 4.9 9.7 5.5 15.3 1.4 12.5-7.1 26.4-16.6 33.9-5.6 4.4-10.6 7-17.1 10-6.3 3-13.1 4.6-16.9 10.7-6.5 10.6-2.7 25.2-3.3 37-.7 14.1-3.6 27.2 2.7 40.5 5 10.6 21.5 19.4 20.2 32.2-.8 7-6.8 13-10.2 18.7-2.9 4.7-9.6 31.4-10.6 36.8m1019.9-226.5c5.6-1.4 13.3-1.8 18.3-4.6 5.2-2.9 8.4-8.9 9.9-14.4 3.3-11.7 3.4-27.6-8.3-34.6-10.1-6.1-25.8 9.2-33.2 15.2-8.3 6.8-18.3 16.2-19 27.5-.3 4.2-1.4 7.4 2.4 10 2.5 1.8 6.3 2.3 9.6 2.5 6.6.3 13.7-1.1 20.3-1.6"/>
    <path class="st2" d="M1507.6 356.6c11.5-1.9 22.8-4 34.4-5 11.8-1.1 27.7.7 35.2-10.1 3.2-4.5 3.1-9.3 3.9-14.8 1.1-7.5 2.6-15 3.3-22.6.9-10.2-.9-20.5-5.4-29.8-5-11-10.9-21.7-17.6-31.8-4.1-6-7.7-7-14.4-3.3-4.7 2.5-8.1 6.9-11.4 11-8.1 9.9-15.5 19.2-25.1 27.7-10 8.8-20 16.5-27 28-5.6 9.2-13.8 25.5-10.2 36.5 4.8 14.6 22.1 13.6 34.3 14.2"/>
    <path class="st2" d="M1525.6 363.8l32.8-3.2c8.8-.9 20.6.2 27.7-6.2 6.8-6.2 6-17.2 6.8-25.6 1-10.9 2.6-21.8 2.4-32.7-.3-20.5-15.7-37.4-19.8-57-2.2-10.6.2-21.9 1.2-32.6.8-9.7 3.5-18.1 6.3-27.5 2.4-7.9 7.9-21.1.8-28.4-5.9-6.1-19.7-1.4-26.3.9-6.3 2.2-24.4 7.3-22.4 16.9 1 4.5 5.8 9.9 8.2 13.9s4.9 8.5 5.7 13.2c3.6 21.2-15.8 40.2-26.9 55.7-5.2 7.3-9.4 12.6-16.1 18.4-8.3 7.3-16.8 14.3-24.1 22.6-5.7 6.5-9.8 15.3-13.2 23.4-3.8 9.1-9.4 19.7-7.8 29.8 3.3 20.9 33.3 23.2 49.6 21.3 5.2-.7 10.2-2 15.1-2.9m128.9-400.1c-3.7 2-9.4 5.2-10.3 9.8-.8 4.1 1.8 10.2 3.8 14 3.3 6 6.8 13.9 11.3 19.1 5 5.8 10.9 6.1 18 7.2m0 0c14.4-3.1 20.9-9.4 19.3-24.5-.6-5.9-2.1-11.8-3.2-17.6M-13.1 72.5c6.4-1.9 12.9-4.8 19.7-4.7 13.7.4 18.5 12.6 23.8 23.2 5.2 10.4 11.8 22.2 8.4 34.3-1.5 5.4-5.8 11-8.4 16-3.4 6.5-7.2 12.9-10.3 19.6-4.7 10.1-8.1 21.3-3.8 32.1 4.2 10.6 16.4 19 17 30.6.7 14-12.6 20.3-22.8 27.4-4.1 2.8-9.5 6.1-10.5 11.6-.7 4.1 2.2 10.1 4.3 13.6 6.6 11.1 15.6 21.5 20.6 33.4 2.3 5.5 5.8 11.1 4.3 17.3-1.7 6.5-8.8 9.4-13.1 14-7 7.6-9.6 19.3-7.7 29.3 2.5 13.1 5.9 25.3 7.2 38.6.5 4.9.4 9.9 2 14.4 2.5 7.5 6.5 14.8 9.7 22 4.3 9.8 9.8 20.5 7.6 31.5-1.1 5.5-3.7 11.3-8.5 14.5-5.8 4-14.3 4.8-20.7 7.7-5.2 2.4-9.6 6.2-14.3 9.5-4.3 3-9.4 8.3-15.1 8.1M477 558c-4.9-3.8-27-27-38.1-28.2-6 1-9.2 5-13.3 9.1-6.4 6.5-19.6 24.1-29.1 12.7-4.1-5-6.6-11.8-9.5-17.5-2-3.9-5.6-10.6-10.1-11.9-5.5-1.6-9.1 4.6-12 8-5.1 6.1-9.9 12.5-15.2 18.4-3 3.3-7 8.2-11.7 8.6-6.5.5-9.4-8.3-14.2-11.3-5-3.2-10.7 1.5-15.8 3.3-5.2 1.9-11.1 2.8-16.3 1-14-4.8-13-18.8-13-30.8.1-12.8-5.4-21.8-19-23.6-5.9-.8-12.1-.1-18 .1-5.4.1-12.5 1.6-17.4-.3-11.9-4.5-8.7-19.3-2-26.7 9.1-10 19.7-19.5 26.9-30.9 7-11.1 8.2-23.1 5-35.7-3-12.1-12.8-20.2-17.6-31.3-5.5-12.8 8.2-22.6 15-31.6 6.8-9 13.9-20.9 10.6-32.7-3.4-12-19.1-17-28.8-22.2-11.1-5.9-20.3-12.9-28.6-22.5-7.4-8.6-14.2-17.8-10.2-29.4 1.9-5.7 5.7-12.9 5.1-19.2-.5-5.2-4.1-9.1-7.8-12.6-10.2-9.6-20.3-16.8-15.9-32.2 3.4-12 12.2-20 7.5-33-4.3-11.7-14-23.5-21.1-33.7-7-10-15.7-17-25.5-24.1-9.2-6.7-16.4-12.7-20.9-23.2C106.3 32.2 91.3 6 93.5-19.6m489.8 2.2C577.7-8 572.1.6 565.6 9.4c-6.6 9-16.6 19.2-18 30.9-1.6 13.6 3 27.1 5.8 40.2 2.5 11.6 3.4 22.6 1 34.3-2.3 11.1-7.8 21.6-9.8 32.7-2.3 12.8-1.2 26.3-3 39.2-1.9 13.4-5.4 26.8-8.1 40.1-2.2 10.9-4.3 20.3-10.8 29.6-7.4 10.6-11.7 19.1-3.8 31.2 10.5 16.1 37 49 17.5 67.1-15.8 14.7-53.7 2.9-51.1 34.1 1 12.4 3.1 25 2.4 37.4-.7 12.6-2.5 26.1-.1 38.6 1 5.6 2.9 11.1 5.5 16.2 3 5.6 7.9 10.7 10.2 16.6 2.1 5.4 1.4 8.8.4 14.1L495 558m114.9 8.4c.4-6.8-.1-13.1 1.7-19.6 1.7-5.9 4-10.7 6.8-16.2 4.9-9.7 10.7-25.6 24-22.9 11.5 2.3 21 13.6 30.8 19.4 10.2 6 21.1 10 32.3 13.8 11.9 4.1 25.3 10.4 38.3 9.1 14.3-1.4 7.9-17.1 1.9-23.8-8.8-9.9-19.3-19.9-24.8-32.1-1.8-4-4-11.6-1.8-15.9 3-5.7 10.6-5.4 16-5.4 24.5-.3 48.6 5.8 70.2 16.6 9.8 4.9 22.6 13.8 34 9.4 5.4-2.1 10.1-6.3 14.5-10 4-3.4 10.9-8.2 11.9-13.7s-5.3-9.5-8.6-12.6c-5-4.7-11-9.1-15.4-14.3-7-8.3-9.7-20.7-18.8-27-10-7-22.7-13.5-29.2-24.1-6.2-10-7.7-22.7-13.9-32.5-5.1-8-19-21-29.3-17.4-11.6 4.1-14.4 20.1-27.5 22.3-10.9 1.9-23.8-2.9-33.4-8-11.6-6.2-22.4-13.2-33.5-20.4-8.2-5.3-22.9-11.9-24-22.8-1.2-12.4 16.8-17.3 24.6-23.4 10-7.8 12.4-21.1 5.8-32.2-3-5.2-8.7-8.1-13.5-11.4-5.1-3.6-9-8.6-11-14.5-4.4-11.6-5.9-25.7-8.2-37.9-2.1-10.7-4.7-22.3-4.6-33.2 0-6.7 1.3-13.1 6-18.4 3.7-4.2 10.7-7.3 15.4-10.4s10.9-5.9 13.5-11.1c2.1-4.3-.8-11.2-3.2-15-6.4-10.1-17.3-17-23.2-27.6-6.3-11.3-11.6-21.3-13.7-34.3-2.1-13.1-2.7-24.7 4-36.5 6.9-12.2 14.5-20.1 28.4-23.8 11.3-3 23.8.3 34.8-3.3 5.6-1.9 10.7-4.9 13.3-10.2"/>
    <path class="st2" d="M475-19.5c-6.4 3.9-12.3 9-18.4 13.5S443.4 2.6 440 9.8c-2.7 5.8-.2 12.1 3.3 17 6.2 8.5 13.2 16.4 19.8 24.6 3.9 4.8 9 9.9 10.9 16.1 5.7 18.7-22.2 13.3-32.9 15.3-18.7 3.5-21.7 18.1-24 34.6-2.2 16-2.9 31.2.6 47.1 3 13.6 15.1 28.2 11.8 42.4-1.7 7.4-5.8 14.1-7.4 21.5-1.9 9-2.2 19.1-5.2 27.8-2.4 7-7.8 13.1-11 19.8-3.1 6.5-3.2 11.9-3.4 19-.1 7.6 0 15.3-.9 22.9s-2 15-1.2 22.7c1.4 13.1 7.9 36.1-4.4 45.9-5.7 4.6-15.3 5.8-20.8.7-5.7-5.3-8.2-14.2-15.5-17.3-6.3-2.6-17 2.1-20-5.4-3.1-7.7 3-18 3.9-25.4 1-8-.8-12.7-4.3-19.5-3.4-6.5-7.6-12.4-8.3-19.7-1.6-17-2.5-32.1-10.5-47.4-3.9-7.4-8.5-14.4-13.6-21-4.9-6.4-7.8-11.4-3.7-19.4 6-11.9 23.2-25.4 12.4-39.8-7.7-10.2-31.7-17.1-22-32.9 3-4.9 11.9-14.9 9.7-21.6-2-5.9-10.8-9-15.7-11.2-14.7-6.8-31.9-12.2-42.1-25.4-5.2-6.8-6.8-15.4-11.2-22.6-3.7-6.1-11.2-10.7-16.6-15.3-6.1-5.2-11-8.7-14-16.3-2.7-6.9 2.4-10 8.9-11.6 16.4-3.9 35.6-3.2 51.1-10.5 6.2-2.9 12-7.8 12.1-15 .1-9.2-3.7-15.9-7.9-23.6m771.6 614.1c6.1-6.2 13.8-11.4 19.3-18.1 10.8-13.1 7.5-28.6 4.7-43.8-2.7-14.4-7.8-26.8-21.1-34.6-7.2-4.2-15.5-7.8-21.7-13.4-6.4-5.8-7.8-11.8-2.9-19.2 6-9.2 29.4-23.5 14.3-34.9-13.9-10.5-29.8-14.2-46.6-10.2-13.8 3.3-27.9 16.1-42.6 10.7-7.6-2.8-12.7-10.1-19.4-14.4-5.8-3.7-13.2-4.8-19.4-7.8-9.7-4.6-30.8-22.4-24.6-34.9 3-6 11.1-9.3 16.5-12.3 8.6-4.7 17.6-9 26-14.2 13-8.1 23.9-19.7 36.3-28.8 6.4-4.6 13.3-8.6 19.9-12.9 6.1-3.9 12.8-6.8 15.6-13.9 5.1-13.3-14.4-29.7-24.4-35.5-28.5-16.3-62.7-4.4-91.1 4.8-8.6 2.8-17.4 6.6-26.3 8.6-7.2 1.6-10.4-1.7-13.1-8-3-7.2-6.2-14.8-14.1-17.9-7.2-2.9-16.1-2.4-23.6-1.6-15.8 1.6-29.8 8.9-44.1 15.3-4.1 1.8-14.8 9.2-19.5 6.2-5.9-3.8-.8-14.2 1.9-18.7 5.1-8.5 11.8-16.2 16.4-25 3.6-6.9 4.7-12.2 2.8-19.7-1.9-7.3-10.2-10.8-12.5-17.6-2.4-7 10.2-9 14.9-10 9.3-2.1 18.9-3.4 28.3-5 4.8-.9 15.2-1 16.3-7.4 1-5.3-6.4-10.4-10.3-13.2l-24.3-17.5c-13-9.4-25.3-18.7-37.5-29.1-5.5-4.5-10.5-9.5-15.2-14.8-3.4-4.1-14.3-13-10.2-19.6 6.8-11.2 37.1.6 45.4 2.5 15 3.3 29.2 5.7 44.4 7.6 15.5 2 32.2 5.6 47.9 4.6 4.1-.3 19.1-1.1 18.5-7.2-.3-2.5-4.1-5-5.8-6.4l-12.7-10.8c-9.2-7.8-69.3-57.4-52.1-68.6 5.2-3.4 16.8-1.9 22.7-1.4 7.9.6 15.3 2.8 22.9 4.9 8.5 2.4 15.2 4.1 24 4.4m688.1-2.5c-4.5 4.7-12.1 12.1-4.5 17.2 6.5 4.4 16.3 6 23.6 8.5 14.1 4.8 28.7 10.1 33.1 25.6 3.8 13.4 1.2 31.9-9.6 41.2-5.8 5.1-12.7 9.8-17.8 15.7-6.2 7.1-10.5 15.9-16.6 23.2-19.9 24.1-63.2 18-90.6 18.5-14 .2-28.7 0-42.4 2.3-7.6 1.3-15.2 3-21 7.9-6.2 5.3-6.7 13.6-1.3 19.9 9.7 11.5 31.9 13.7 45.3 17.3s27.3 8 39.6 14.3c6.8 3.5 15.7 8.7 14.5 17.7-.9 6.7-7.3 13.4-10.9 18.6-4.4 6.3-8.3 13.4-14 18.7-6.2 5.9-13 10.3-20 15.1-13.1 8.9-17.1 23-22.2 37.3-5.4 15.2-10.2 31.1-20.5 43.8-9.5 11.6-22.4 19.5-30.2 32.7-3.9 6.6-8.1 14.1-1.2 19.5 6.7 5.3 15.1 1.4 22.3-.6 7.6-2.1 15.7-4.5 23.7-3.6 6.9.7 13 4.3 18.9 7.8 6.6 4 11.6 7.4 19 9.1 8 1.8 18 2.1 24.2 7.9 9.1 8.5 15.2 29.7 6 39.9-9.9 10.9-29.6 13.9-43 17.8-14 4.1-28.2 7.8-41.3 14.2-15.2 7.4-32.5 14.5-44.3 27-23.3 24.8 53.4 37.1 65 43.1 6.2 3.2 12.9 9.3 10.1 17-2.2 5.9-10.4 7.3-15.6 8.6-16.5 4-34.2 6.7-49.5 14.5m285.6-53.7c-.3-15-3.8-35.9-22.5-36.9-8.8-.5-16 1.4-24.6 3.4-6.9 1.6-15 4.6-20.4-2-4.8-5.9-7.8-14.9-11.3-21.6-2.9-5.5-7.9-12-9.1-18.1-1.7-8.6.9-20.1 1.3-28.9.2-5-1-15.1 2.8-19.2 5.1-5.5 18.1.2 24.3.5 7.6.4 15-3.1 22.6-3.5 14.8-.8 26.9 12 42.1 11.9 16.5-.1 31.4-8 41.9-20.6 4.2-5 9.1-12.4 5.1-18.9-1.6-2.6-6-5.1-8.3-7-3.9-3.3-8.2-6.4-11.8-10-10.3-9.9-15.4-23.1-28.1-30.6-6.9-4.1-16.7-6.8-20.2-14.4-3.1-6.6 0-14.3-.2-21.5-.4-15.4-12.5-28.8-16.8-43.2-2-6.8-2.9-16-.5-22.7 2.7-7.4 9.4-9.8 16.3-12s16-3.9 21.9-8.4c6.5-5 1.9-12.9-2.3-18.1-5.6-6.9-14.1-12.6-20.8-18.6-5.5-4.9-8.5-11-11.2-17.8-5.6-14.4-4.6-30.3-.9-45.1 3.8-15.2 13-23.2 25.6-31.5 13.6-8.9 26.5-17.7 42-22.7 6.5-2.1 13.2-5 20-5.9 10-1.3 20.4-1.4 30.5-2 12.6-.8 27.4-8.9 37.9-15.4 15.1-9.3 25.6-20.5 35.3-35.1 3.2-4.9 9.3-12.9 8.6-18.9-1-8.3-12.5-5.3-17.9-4.9-15.8 1.2-33.3 4.3-47.8-3.6m185 461.4c-8.3 1.3-16.1 5.6-24.3 7.2-17.1 3.4-29.2-6.2-45.2-9.4-14.6-2.9-31.2 1.5-45.1 6-14.3 4.6-29.9 13.1-32.3 29.5-2.4 16.9 8.5 34 14.8 49 2.1 5 5.7 12.6 1 17.3-3.7 3.8-10.7 5.1-15.4 6.6-17.9 5.7-36.9 10.3-54.3 17.3"/>
    <path class="st2" d="M1450.7-21.9c-6.2 2.6-23.7 7.5-22.3 16.7 1.5 9.8 17.4 15.4 25.2 19.3 10.8 5.3 21.4 10.5 32.5 15.1l24.2 10.1c4.2 1.7 8.8 3 11.2 7.2 6.3 11.3-8 24.1-17.2 27.6-22.8 8.8-50.8 7-74.8 7.3-10.5.1-21.2.2-31.7-.2-12.4-.5-27-4.5-38.9-.7-14 4.5-15.3 15.4-16.5 28.5-1.1 12.2-3.5 21.6-11.8 31-4.7 5.4-10.6 10.1-15.8 15-4 3.8-8.9 7.4-9.8 13.4-2.2 13.5 9.1 22.3 19.8 27.5 21.6 10.4 47.2 3 67.7 17.4 5 3.6 8.3 6.7 6.7 13.5-1.4 5.4-4.7 12.1-8.8 16-4.6 4.4-10.7 5.7-16.4 7.9-6.4 2.6-7.7 5.8-7.6 12.7.1 12 7.4 23.4 8.1 35.3.7 12.8-9.1 18.9-18 25.9-10.3 8-22.6 15.3-30.3 26-6.8 9.4-10.5 21.5-14.8 32.3-4.9 12.2-9.1 24.6-12.6 37.3-3.3 12.5-2.1 23.8-.4 36.4.6 4.3 1 9.1-1 13-2.7 5.3-8.5 10.4-12.3 14.9-7.8 9.5-15.2 21.3-24.7 29.2-3 2.5-11.2 10-15.7 7.1-4.1-2.6.7-14.3 1.4-17.8 2.1-11.2.9-23.5-1.2-34.6-2.3-11.9-6.5-23.2-7.7-35.3-1.3-13.5-.1-27 .3-40.6.4-11.9 3.3-23.1 4.3-35s-3.6-19.7-12.3-27.2c-10.5-9-19.7-16.6-27.8-27.8-3.1-4.3-6.6-11.6-11.5-14.2-5.8-3-7 3.2-8.8 7.7-4.6 11.3-10.4 23.2-11.6 35.5s4.2 27.3-1.6 38.9c-7.6 15.2-19.3-7.9-24-14.2-7.5-10.1-17.7-18-26.9-26.5-8.9-8.2-20.1-7-30.8-11-14-5.3 4.5-22.9 8.1-29.5 6.2-11.3 2.2-24.2.7-36.3-1.4-11 2.1-22.8.2-33.6-2.1-11.8-17.4-16-27-19.7-5.7-2.2-12-3.7-16.8-7.5-5.3-4.1-6.3-11.6-11.2-15.8-7.7-6.7-22.7-6.4-32.1-7.4-12.5-1.4-26.5-4.9-39-3.6-13.4 1.4-26.3 5.8-39.2 9.3-6.3 1.7-26.5 8.3-25.4-3.7.6-5.9 4.5-11.7 5.5-17.6 1-5.4-.9-14.1 4.8-17.4 5.1-2.9 14-1.1 19.4-.8 6.2.3 11.9.7 18.1-.1 12.9-1.8 25.2-10 36.9-15.5 11-5.2 23.7-6.7 35.4-9.4 8.5-2 26.2-4.3 22.2-16.7-3.3-10.2-11.2-20.6-19.3-27.4-5.2-4.4-30.3-16.8-25.9-26.1 2-4.2 8.7-5.2 12.9-6.1 8-1.7 16.1-3.1 24-5.1 4.8-1.2 10.4-3 13.7-6.6 3.5-3.9 4.5-10 5.2-15.1 1.8-13.5 3.6-25.2-.8-38.5m905 295.7c-10.7.5-21.4-8-31.7-10.9-12.6-3.5-23-2.4-35.7-.8-11.3 1.4-26 5.7-37.3 1.6-5-1.8-9.4-6.1-13.5-9.5l-10.3-8.4c-1.9-1.5-6.1-3.8-7.3-5.9-5-9.2 20.3-14.8 12.9-26.8-5-8.1-17.6-12.7-26.5-15.3-7.6-2.2-15.3-4.1-23-6.1-5.7-1.5-12.8-2.2-18.1-4.9-16.7-8.2 3-17.3 10.2-22.9 8.4-6.7 16.2-20.2 27.2-22.5 5.8-1.2 12.3.8 18.3 1.8 5.2.8 11.6.8 16.5 2.7 6.7 2.6 13.1 7.6 19.3 11.2 4.9 2.8 10.1 4.2 15.5 6 9.7 3.2 20.6 2.3 30.7 2.8l49.4 2.3c3.6.2 7.3 0 10.9-.4 8-1 10.4-2.3 8.4-11-2.6-11.1-8-23.7-18.2-29.8-11.3-6.7-22.8-7.3-29.4-19.9-5.8-11.1-4.4-20.6-17.2-26.3-8.5-3.8-30.4-7.5-24.8-22.1 1.9-4.9 10.7-7.2 14.8-9.2 5.5-2.7 11-6 16.7-8.1 12.3-4.7 22.8-.5 32.6 6.9m9.4 284.7c-10.1 5.7-18.1 16.2-30.1 18-12.9 2-25.1 1.4-37.8 4.8-7.3 2-29.7 11.5-35.8 3.9-2.7-3.4-3.5-11.3-3.4-15.8.1-5.6 3.1-10.7 7.9-13.5 4.7-3 11.7-4.4 16.9-6.3l23.5-8.8c9.7-3.6 18-10.1 26.8-15.7l21.8-14c2.9-1.9 5.6-4.2 8.9-5M15.6-41.9c-2 10-11 18.7-14.3 28.5C-4.1 2.2 12.7 1.6 23.1-.3m556.3 296.6c9.8-7.7 14.1-17.3 14.8-29.8.5-10.3.5-23.5-1.8-33.5-1-4.2-4.2-12.1-9.6-11.6-4.4.5-6.9 6.5-8.3 10.1-2.4 6.2-3.8 13.1-5.6 19.5-1.9 6.7-4.7 13.6-5.8 20.4-1.6 9 4.4 27 16.3 24.9m-7.3 194c13.8-5.5 23-17.3 35.5-25.2 10.8-6.8 24.1-7.3 35.7-12.2 13.3-5.7 21.9-16.8 30.6-27.9 3.5-4.5 8.6-10.5 4.8-16.3-3.2-4.8-11.1-8.9-15.6-12.5-11.5-9.2-21.9-17.9-35.7-23.7-10.5-4.4-28.3-7.8-39.4-4.8-11.9 3.2-20.2 15.2-29.9 22.3-11.5 8.4-21.4 14.9-24.7 29.6-1.7 7.8-2.7 15.7-2.7 23.6 0 9 1.8 15.1 6.2 22.8 3.3 5.8 8.7 10.1 14.1 14.1 3.2 2.3 6.7 5.8 10.3 7.5 3.2 1.5 7.4 1.9 10.8 2.7"/>
    <path class="st2" d="M1146.4 17.3c5.8-2.8 11.2-5.2 15-10.7s6.2-13.2 9.1-19.4c3.9-8.3 15.5-26.7 8.9-35.8-3.6-4.9-11.8-4.3-16.9-2.7-7.3 2.3-13.2 7.1-18.6 12.4-9.9 9.8-12.4 23.2-15.8 36.1-1.3 4.9-4.3 14.9-2 19.2 3.2 6 15.3 1.7 20.3.9M141.9 539.6c-5.8-11.5-13.1-23-17.7-35-4.8-12.6 1.9-25.1 6.2-36.7 2.6-6.9 4.6-14.4 7.8-21 2.7-5.7 6.7-11.1 10.1-16.5 3.2-5.1 7.1-11.1 5.2-17.4-1.5-5-6.4-11-12.1-10.5-10.7 1-19.1 24.1-22.9 32.2-5 10.5-8.3 22.1-8.4 33.8-.1 12.3 2.8 24 1 36.2-2 13.3-4.9 26.7-5.9 40.1M0 57.7C18 54 29.1 68.4 34.9 78s13.3 21.6 15.4 33c2.4 12.9-4.5 22.9-10.4 33.6s-13 21.9-14.7 34.4c-1.7 12.1 9.3 23.6 15.5 33 7.3 11.1 8.9 20.3 1.3 32.1-5.9 9.1-19.2 15.5-20.9 26.8-1.6 10.7 8.6 23.6 13.6 32.4 5.1 9 13.2 20.6 10.9 31.4-1.5 7.4-4.8 8.9-10.7 13.6-4.2 3.4-9.9 6.6-12.2 11.8-5.4 12 2.3 23.5 4.3 35.1 1.7 9.7-1.9 20.2 1.5 29.6C36.7 447.5 52 472 40 496.4c-7.2 14.6-18.8 9.8-31.2 16.1-10.3 5.2-16 18.6-28.4 20M267.7 560c-8.2-10.3-4.7-24.5-3.2-36.4 1.6-13-8.2-17.6-19.7-16.4-11.3 1.2-25.5 5.4-34-4.7-7.9-9.5-7.3-23.5-.4-33.1 13.6-18.8 40.1-32.6 37-59.2-1.5-12.2-10.5-22.1-18-31.1-3.5-4.3-8.7-9-9.3-14.9-.5-5 2.6-8.5 5.7-11.9 8.8-9.3 21.8-18.8 25.1-31.9 3.2-12.8-8-19.1-17.2-24.3-9.5-5.4-20.4-10.4-27.9-18.5-8.2-8.9-19.2-19.8-23-31.4-2.1-6.6-.7-10.9.7-17.8 1-5.1 3-11.4.9-16.5-2.3-5.4-9-11.1-12.7-15.7-3.8-4.7-6.7-8.7-8.1-14.9-2.4-11.1 6.2-21.4 8.6-31.8 2.6-11.2-4.7-22.7-11.1-31.3-7.2-9.8-13.9-18.8-23.4-26.5S115.1 78 108.1 67.6C101.6 58 99.5 44.8 96.2 34c-3.5-11.6-7.1-22.8-9.4-34.7M593.7-15c-4.9 9-10.4 17.7-16.5 26-6.8 9.1-16.4 19-18.3 30.6-2.2 13.5 1.5 26.2 4 39.5 1.7 9.5 2.6 19.4.9 28.9-2.3 12.5-6.3 24.8-8.2 37.4-1.8 11.9-1.2 24.1-3.2 36-1.9 11.5-5.7 22.6-7.9 34-2.2 11.8-2.9 24.3-7.8 35.4-5 11.5-11.7 19-6.9 32 7.7 21.1 32.9 45.5 20.6 69.3-5.2 10.1-14.8 15.1-25.3 18.2-12.1 3.6-25.5 5-27 20.3-1 11.3 2 23 1.5 34.3-.6 12.7-3.2 25.2-.4 37.9 2.7 12.3 12 18.9 17.5 29.6 6 11.6-6.3 34.5-9.7 45.6m87.5 24.4c.9-11.6 3-20.9 8-31.4 5.2-11 9.3-25.9 17.8-34.6 21.5-22.3 41.5 9.2 60 19 5.4 2.9 30.4 11 28.8-2.1-.8-6.3-6.4-14.2-9-19.9-2.3-5.3-3.8-11-4.5-16.7-1.6-11.3 4.8-22.1 16.9-22.7 11.7-.6 24.9 4.7 36.1 7.2 24.1 5.5 47.8 12.5 71.1 20.8 9.4 3.4 25.6 2.3 24.5-11.1-.4-5.1-3.5-8.9-6.1-13.2l-13.3-22.1c-5.7-9.5-13.5-14.9-22.5-21.2-4.6-3.2-10.2-6.2-14.1-10.2s-6.4-9-8.9-14.1c-4.5-9.1-10.8-26.2-23.6-25.9-12 .2-14.9 18.6-27.9 17.7-25.4-1.8-48.1-16.5-68.7-30-15.8-10.3-54-21.9-37.7-47.2 6.7-10.3 18.6-12.7 26.8-21 11.8-12-6.2-18.7-12.5-26.2-6.7-7.9-7-19.2-8.9-28.9l-9.6-50.6c-1.8-9.4-3.9-18.3-.8-27.6 1.5-4.9 4.2-9.3 7.8-12.9 4.5-4.7 11.5-8.7 15.1-14.1 7.2-10.8-6.2-25-11.6-33.6-5.6-9-10.2-18.3-12.5-28.7-3-13.7-6.2-26-5.3-40 .7-10.6 7.4-21.8 14.4-29.6 7.8-8.7 17.8-12.7 29-14.2 10.8-1.5 27.7-.7 33.5-11.7"/>
    <path class="st2" d="M.3 102.3c14.3 8 2.1 26.1-3 35.6M536.9-.9c-9.2 9.9-21.7 17-28.4 29-6.9 12.4 6.9 28.6 11.9 39.6 4.8 10.7 11.7 25.6 7.5 37.6-4 11.6-17.4 22.6-29.1 25.5-8 2-13.6-.4-21.7-1.8-5.9-1.1-12.5-1.3-16.8 3.9-4.1 4.9-3.3 13.4-1.8 19 2 7.3 5.6 12.3 9.8 18.6 3.8 5.9 7.4 12.1 10.6 18.4 3.3 6.2 7.4 10.6 12.1 15.9 9.7 10.8 12.4 23.8.6 34.7-4.8 4.4-12 7.3-16.2 12.3-4.5 5.3-4 11.7-2.1 18 4.1 13.8 13.8 25.8 17.9 39.6 1.9 6.1 2.8 12-2.3 16.4-5.3 4.5-12.5 7.1-18.1 11.2-10.9 7.8-21.9 18-22.5 32.1-.7 15.8 2.2 30.5 4.6 46.1 2 13-1.1 25.9-.9 38.9.1 7.3 1.5 14.7 2 22 .5 6.4.7 12.2-6.5 14.2-6.4 1.8-15.3.7-21.9.4-5.3-.2-10.1-.8-13.7-4.9-8.6-10.1-11.6-29.4-25.5-34-14.4-4.8-25.9 11.4-35.7 19.2-4.4 3.5-10.1 6.4-15.7 6.2-7.4-.2-15.1-4.2-21.9-6.5-5.9-2-12-3.6-18.2-4.7-5.2-1-16.1-1.2-18.5-7.3-2.2-5.4 1.5-16 2.4-21.9.7-5.1 1.2-10.3 1.4-15.5.5-14.4 2.5-29-2.3-42.9-1.9-5.7-5.1-12.2-4.1-18.4 1.2-7.2 5.4-14.9 7.9-21.7 4.6-12.7 11-25.8 11.1-39.6.1-14.6-7.1-22.2-19.2-28.4-13.6-7-29.5-12.6-39.7-24.6-10.6-12.5 3.6-27 9.1-38.4 2.8-5.8 4-10.3-1.7-14.7-5.5-4.3-13.2-5.8-19-9.6-5.3-3.4-10.1-7.6-8.2-14.4 2.1-7.4 9.9-13.1 12.4-20.3 1.9-5.5-.8-9.1-3.9-13.2l-17.5-22.8c-8.2-10.7-11.9-24.1-19-35.5-6.6-10.6-18.9-19-28.3-26.9-11.1-9.4-20.7-20.5-28.4-32.8-6.9-10.6-11.3-24.9 3.6-30.2 13.5-4.8 30.1-4.3 44.2-5.5m486.5 590.4c5.6-11.4 24.7-2.3 33.7-.1 14.7 3.5 29.5 7.9 44.4 10.6 13.1 2.4 29.1 6 42.4 2.9 15.5-3.6 9.4-25.9 8.4-37.1-.4-4.3-2.1-14.6 3.5-16.8 6.1-2.4 14.6 6.6 18.4 9.5 10.8 8.2 21.1 14.3 34.5 7.4 6.5-3.4 12.5-10.4 20.1-8.7 6.4 1.4 11.2 6.1 17.3 8.3 15.2 5.5 22.7-10.2 36.5-9.8 7.6.2 16.8 4.5 24.2 6.5 4.7 1.4 9.6 2.1 14.5 2 13.3-.2 30.4 2.5 42.9-3.2 6.6-3 11.2-10 7.8-17.2-2.5-5.3-7.8-8.2-12.8-10.5-8-3.8-16.7-7.1-24.4-11.6-5.3-3.1-10-7.6-14.8-11.5-4.5-3.6-8.9-7.8-13.9-10.6-7.7-4.5-16-8-24-12-10.6-5.3-18.5-15-28.5-21.2-12.2-7.6-25.8-10.3-33.2-23.7-3.3-6.1-6.2-13.8-10.8-19-4.9-5.5-12.4-9.2-18.5-13-12-7.4-17.8-19.3-13-33.3 9.5-28.2 46.2-32.7 68.7-46.3 3.5-2.1 10.9-7.1 11.1-11.8.3-6.8-11.2-6.5-15.9-6.5-14.4.3-28.8 2.7-42.6 6.9-12.6 3.9-24.5 10.5-37.3 13.9-6.4 1.8-14.5 3.4-19-3-4.2-6-3.6-15.2-7.8-21.2-11.5-16.5-51.4 36.6-59.3 41.1-9.9 5.7-32 .7-33.1-13-.5-7 6.5-14.1 8.9-20.1 2.5-6.2 2-11.8 1.8-18.3-.6-15.4-.1-30.7 1.7-46 .6-5.4 2.1-13.6-4.1-16.4-5.3-2.4-12.9-.2-18.7-1.7-13.6-3.6-17.7-22.1-18.6-34.4-.5-7.4.5-14.1 5.2-19.8 3.7-4.5 9.8-7 14.8-9.9l24.3-14.6c4-2.4 9.8-5.8 12.2-9.9 5.9-10.5-17.7-28.2-23.4-34.1-18.2-18.7-48.6-29.4-45.1-60.4.7-6.3 3.8-12.8 9.2-16.5s11.7-3.1 17.7-3.2c6.8-.2 13.8.2 20.3-.9 7.8-1.3 15.5-4.3 23.3-5.1 6.7-.6 12.8.6 19.2 2.1 5.2 1.2 15.9 5.3 20.1.6 3.5-3.9-.7-10-2.4-14.1L738-30.2m825.1 588.1c-9.4-10-7.2-25.8-13.4-37.4-6.7-12.4-22.5-15.6-35.3-16.2-15.1-.7-28.4.3-42.8 5.1-5.1 1.7-14.2 4.2-15.5 10.4-1.4 6.4 8.6 12.7 12.3 16.2 10.1 9.5 16.5 19.5 16.6 34m464.4 3.6c-11.3-8.9-7.4-28.3-8.8-40.8-1.4-12.1-7.9-21.9-19.8-25.5-6.6-2-13.5-3.6-20-6.1-7.2-2.7-13.8-7-21.1-9.6-5.2-1.8-15.2-4-18.3 2.4-2.7 5.5 2 13.9 3.7 18.8 4.4 12.7 9.3 25.3 10.2 38.7"/>
    <path class="st2" d="M540-19.3C533.6-9.9 524.2-3 515.1 3.6c-9.3 6.7-26.1 15-24.4 28.7 1.6 12.8 13.4 24.1 19 35.3 5 9.9 12.9 26 5.4 36.5s-21.7 13.7-33.6 12c-13.8-1.9-29.6-5.7-35 11.3-9.1 28.9 13.4 53.4 27.5 76.2 5.3 8.6 13.9 18.5 5.2 27.7-5.1 5.4-13.2 8.3-18.1 13.9s-5 12.1-3.5 19c2.9 12.6 14.4 23.4 13 37-.6 6.2-5.3 13.1-7.8 18.8-2.6 5.9-7.3 10-11.7 14.8-4.8 5.2-7.9 9-11 15.3-3.3 6.9-3.1 13.2-3.4 20.8-.6 13.1 4.4 26.3 5.8 39.4s-.7 25.4-2.3 38.4c-1.3 10.2-2.5 31.8-18.6 22.4-10.5-6.2-13.8-22.1-21.8-31-10.3-11.5-24.4-3.5-35.6 1.9-5.6 2.7-11.3 6.2-17.3 7.9-7.8 2.2-12.3-1.8-16.2-8.2-3.4-5.5-5.9-11-12.9-7.8-5.6 2.6-11.5 9.2-18.2 8.4-10.7-1.3-9.4-22.1-8.6-30 1.4-13.6 6.1-30.2 1.9-43.4-1.7-5.3-4-10.9-3.4-16.5.7-7.1 3.6-14.6 5.3-21.6 3.1-12.6 8.3-26.3 8-39.6-.3-14-7.1-22.6-19.1-28.9L259 249.5c-4.4-2.3-9.3-5-12.2-9-9.6-12.9 5.1-25.3 13.1-34 3.3-3.5 11.6-10.1 10.5-16.1-1-5.5-13.4-7.2-17.3-8.5-5.5-1.8-11.8-3.3-16.4-7-5.9-4.8-3-9.8.2-15.1 3.5-5.9 8.9-12 8.7-19.3-.2-5.5-4.2-9.5-8.1-13.1-10.7-10.1-21.4-17.5-28.8-30.7-5.7-10-7.3-22.4-15.6-30.8-11.4-11.6-24.7-21.6-36.6-32.8-6.9-6.5-17.7-17.6-20-27.2-5.6-22.9 62.7-17 73.3-18.4 5.1-.6 11.5-2 15.3-5.5m791.1 570.1c11.7-6.5 16.3-18.7 9-30.6-8.4-13.7-21.4-16.1-35.2-22.2-5.5-2.4-10.5-5.9-14.6-10.3-4.5-4.6-6.9-10.5-10.9-15.5-8.9-10.9-25.6-9.8-37.7-15.4-10.7-4.9-19.4-13.9-29.9-19.4-6.4-3.3-14.3-5.9-20-10.2s-8.3-11.4-11.3-17.5c-2.3-4.6-5-9.1-8.9-12.5-6.2-5.2-14.1-8.4-20.1-13.8-11.2-10.2-10.5-22-1.8-33.5 7-9.2 19.7-14.5 30.2-18.6 14-5.5 27.7-10.2 40.4-18.1 9-5.6 21.1-16.9 23.8-27.6 3.9-15.2-16.4-11.8-25.4-10.1-29 5.5-57 14.7-85.1 23.5-10 3.1-23.3 6.7-23.9-7.3-.3-6.1 1.1-15.8-2.2-21.4-3.8-6.6-12.1-3.8-17.7-1.9-10.8 3.6-19.9 11.5-27.9 19.5-6.3 6.4-12.5 12.9-18.8 19.4-4.2 4.3-8.2 9.5-13.9 11.9-4.6 1.9-12.7 2.6-13.9-4-1.2-6.9 3.3-16.3 3.9-23.3 1.1-11.9-3.4-24.1-2.3-36 1.4-15.1 7.8-28.4 11.3-43 1.2-4.9 2.4-10.1-2.9-12.3-6.8-2.7-15 1.8-21.9 2.3-7 .6-11.4.1-16.6-4.6-4.3-3.8-6.8-11.3-7.3-17-1.3-15 11.8-22.1 23.1-28.6 11.8-6.7 25.2-10.8 36.7-18 12.6-8 2.5-18.6-5.2-26-11.2-10.5-22.5-21.3-34.3-31-9.2-7.6-21.6-12.5-28.9-22.3-7.6-10.1-7.7-26.8 5.5-31.7 6.4-2.4 13.8-1.8 20.5-2.1 6-.4 11.9-1.2 17.8-2.3 6.3-1 12.8-2.9 19.2-2.4 7 .5 13.4 2.7 20 4.7 6 1.8 34.8 13.2 37.2 1.3 1-5-3.7-11.2-6-15.1-4.6-7.7-9.2-15.4-13.7-23.2M1609 563.6c-5.6-9.6-20.2-7.7-29.5-11.1-12.6-4.7-13.4-15.9-15.8-27.5-2.1-10.3-5.7-19.9-15.2-25.5-19.1-11.4-44.3-9.5-65.3-4.6-12.3 2.8-24.4 6.6-36.1 11.3-7.5 3-24.1 11-13.8 19.2 16.2 12.6 43.6 18.6 42.6 43.7m479.5-25c-6-18.1-3.7-48.9-27.5-53.9-7-1.5-14.3-1.2-21.3-2.6-3.8-.7-7.3-2.5-11-4-10.7-4.4-22.2-11.5-34.2-10.4-11.1 1-21.2 7.5-18.6 19.6s10 23 15.2 34.1c4.7 10 6.2 19.9 7.1 30.7"/>
    <path class="st2" d="M519.2-12.7C508.4-4 494.8 1.1 483.9 9.7c-5.1 4-11 9-10.3 16s5.8 12.5 9.5 18c7.6 11.6 18.7 24.7 21.4 38.7 1.5 7.7 1 14.4-6.4 18.9-5.9 3.5-11.4 3-17.8 2.5-12.5-.9-30.6-5-39.3 7-9 12.4-7.2 31.4-4.9 45.5.9 5.7 3.1 9.3 5.9 14.5l14.7 27.1c2.8 5.2 5.5 9.5 6.8 15.2 1 4.4 1.9 6.2-.6 10.1-1.9 2.9-4.5 5.2-7 7.7-5.1 5.1-9.5 10-11.5 17.2-2.1 7.5-.4 13.7 1.5 20.9 1.7 6.3 4.3 13 2.9 19.5-1.5 7.2-5.4 13.5-6.6 21-1.5 8.6-5.5 13.5-10.4 20.8-3.6 5.3-5.5 10.1-5.5 16.5 0 15.3 1.1 30.6 3.2 45.8 2 14 4.5 27.1-2 40.4-5.1 10.6-10.4 1.6-15.8-4-4.8-5-9.3-8.5-16.6-8.9s-14.8 2.2-21.6 4c-6.1 1.6-14.6 5.5-21 3.6-7.9-2.2-8-11.7-14.5-15.6-6.1-3.6-14.3-1.4-21-.3-3.2.5-6.6 2-9.3.5-2.9-1.7-3.3-5.9-3.3-8.9.1-7.9 3.1-16.6 4.5-24.4 2.5-13.8 1.6-27.7-.2-41.5-3.5-26.9 14.1-58.2-10-79.7-5.5-4.9-12.2-8-18.6-11.3-6.1-3.2-14.7-6.1-19-12.1-8.9-12.7 14.5-25.9 21.3-32.8 3.9-4 10-10.5 8.3-16.6-1.9-6.7-11.1-8.6-16.8-10.3s-15-3.3-18-9.1c-3.2-6.3 3.5-15.4 5.2-21.5 4.9-17.3-8.5-23.9-21-32.1-11.8-7.4-20.7-18.5-25.4-31.6-2.2-5.8-4.2-11.9-8.2-16.7-4.6-5.6-11-10.2-16.3-15.1-10.5-9.7-24.4-19.3-32.1-31.6C148 .7 166-1 177.7-1.7c15.4-.9 31.9-.3 47.2-2.9 6-1 17-3.4 20.4-9.4s-.4-14.5-3.6-19.6m778.2 597.7c5.1-3.1 12.2-7.9 16-12.5 9.4-11.3 5.7-27.3-1.7-38.6-9.6-14.6-23.1-14.9-37.3-22.8-6.8-3.6-12-9.8-14.2-17.2-2.2-6.9-.2-15-2.2-22-2.4-8.3-9.1-6-15.6-4.5-7 1.6-14 3.4-21.3 2.7-14.9-1.4-25.2-11.2-37.7-18.4-6.7-3.9-15.1-6.3-21.1-11-5-3.9-8.2-10.8-11.5-16.1-4.1-6.8-7.2-9.6-13.6-14.6s-13.3-8.9-17.4-15.8c-8.2-14 11.1-26.6 21.7-31.9 12.9-6.4 27.5-9.4 40.4-15.8 13.2-6.5 23.2-17.3 33.1-27.9 8.2-8.9 22.6-23.2 7.9-32.8-12.8-8.4-30.7-4-44.4-.5-14.1 3.6-27.9 9-41.7 13.7-12.2 4.1-27.7 11.9-41 11.5-16-.4-5.9-24.6-14.1-33.3-9.5-10.1-29 .2-38.3 5.8-13.2 8-22.7 20-35.3 28.5-8 5.4-12 .9-15-6.6-2.6-6.5-4.6-13.1-5-20.1-.7-14.4 5.1-28.5 11.5-41.1 5.5-11 19.1-30-.4-34.6-12.3-2.9-31 10.5-41.4 1.1-24.5-22.3 48.5-43.5 59.7-47.5 4-1.5 13.7-3.9 13.7-9.2 0-6.2-10-13.7-13.8-17.2-10.4-9.7-22-18-32.7-27.5C696 77.9 685.7 68 673.7 59c-5.1-3.9-12-8.2-11.5-15.7.4-6.7 7.3-9 13-10.4 9-2.1 18.6-2.7 27.8-4 6.7-1 12.5-2.2 19.1-1.2 15.7 2.3 30.7 8.7 46 12.8 7.5 2 34.3 6.3 31.2-7.6-1.1-4.9-5.6-9.5-8.5-13.7L773-6.8m862.5 566.5c1.1-5.7 3.7-14.8-1.7-19.2-5.6-4.6-14-2.3-20.3-1.7-13.6 1.3-30.9 5.5-36.8-10.6-2.6-7-2.6-14.9-5.8-21.7-3.7-8.1-8.3-11.9-14.9-17.6-5.4-4.7-12.3-9.3-19.3-11.2-6.1-1.6-14.5-.1-20.8.8-15.4 2.1-31.2 5.7-46.3 9.4-12 2.8-23.8 6.8-35 12-6.4 3.1-38.9 15.5-26.4 26.8 11.3 10.2 29.7 12.4 42.8 19.2s18.5 18.4 15.8 32.7m496.4-57.6c-2.9-10.1-5.5-20.4-8.8-30.3-2-5.9-5.1-12-11-14.6-7.7-3.4-17.5-1.8-25.5-1.7-8.8.1-13.2-1.3-21.6-4.5-15.3-5.9-29-10.8-45.7-6.6-6.6 1.6-16.7 5.6-20 12.3-3.7 7.5-.2 16.5 2.5 23.6 5.4 14 16.2 25.8 19.4 40.8 1.8 8.2 3.9 17.6-.3 25.6-3.7 6.8-10.3 7.1-17.1 7.6-18 1.2-34.3 4.4-52 8.2M1431.7-28.2c-5.5 1.9-11.8 3.2-16.4 6.6-8.2 6-8.5 12.4-3.8 21 6.7 12.3 25.8 17.3 37.6 22.9l30.6 14.4c4.9 2.3 10 4.2 14.3 7.5 8.1 6.1 9.7 12.3-.4 17.9-5.7 3.1-15 5.1-21.4 6.2-15.2 2.6-31.7 1.8-47.1 1.8-16.8 0-32.7-.4-49.3-2.3s-33.4-6.6-44 10.4c-8.3 13.3-.4 30.2-7 44-7.1 14.6-24.6 18.6-32.1 32.6-8.4 15.6-4.9 30.9 9.3 41.5 7.6 5.7 13.2 8.2 22.2 11.3 7.7 2.6 15.2 2.9 23.3 3.6 7.3.7 14.8.9 21.5 4.2 6.9 3.4 14 10.2 4.4 15.6-8.7 4.9-43.4-2.1-42.8 11.7.3 7.1 10.6 12.1 14.7 17 5.1 6.4 8.7 13.8 10.8 21.8 2 7.2 1.3 14.1-3.9 19.5s-11.6 9.4-16.7 15c-5.5 6.1-12.5 12.1-16.8 19-4.1 6.5-6.3 14.3-8.8 21.5-5.5 15.5-11 30.3-18.9 44.8-3.2 6-7.5 18-13.8 21.5s-7.1-7.6-7.2-12.3c-.4-17.8 2.1-36.1.6-53.9s-11-31.1-19.5-46.4c-3.3-6.3-7.8-11.8-13.2-16.3-5.4-4.7-10.4-8.7-13.5-15.2-7.4-15.5-10.4-31.2-29.8-34.8-18.6-3.5-28.6 15.6-38 28.1-4.3 5.6-7.2 10.7-15 10.2-8-.5-16.5-3.5-21.7-9.7-10-12-12.6-27.1-6.2-41.4 3.3-7.5 9.8-14.6 9.9-22.9.2-9.7-7-13.2-14.1-18.8-2.5-1.9-6.2-3.8-8.1-6.3-2.5-3.3-3.4-9.5-4.9-13.4-2.8-7.5-7.1-11.3-15-12.7-16.4-3-34.2-1.9-50.9-2.6-8.8-.4-17.9-.3-26.7-1.1-5.3-.5-13.5-.9-17.1-5.3-5.4-6.4 5.3-12.6 10.3-15.4 7.4-4 14.9-6 23.3-7.4 15.6-2.6 32.4-.4 47-7.1 7.7-3.5 9.6-9.9 8.2-18-1.1-6.2-7.4-15.9-4.6-22.3 3.3-7.7 13.6-6.7 20.3-6.8 8.3-.1 16.6.5 24.6-1.8 14.7-4.4 22.1-20.7 36.8-25.5 7.2-2.3 17.2-4 23-9.5 5-4.8 8.8-12.5 11-19 2.5-7.3 4.5-14.9 7.8-21.9 4.3-9.1 9.7-17.8 14-27m415.2 2.6c-.1 7.7 7.6 15.4 11.8 21.2l14.2 19.7c2.2 3 4.3 7.3 7.1 9.8 8.5 7.6 21.6 3.4 31.4 1.9m0-.1c7.4-3.4 19.8-6.3 21.6-15.7 2-10.2-2.9-22.5-4.4-32.5"/>
    <path class="st2" d="M1611.8-21.7c5.4 8 14 14.4 20.3 21.6 4.9 5.6 7.8 13 11.3 19.6 3.4 6.4 6.3 13 14.1 14.7 7.2 1.5 16-1.2 23.4-2.2m0 0c13.6-4.1 29.9-6.6 41.9-14.6 11.5-7.7-3.3-24.6-5.1-34.5-1.5-8.1-2.8-15.1-1.7-23.4M197.1 562.7c-11.9-11.9-16.9-29.9-23.2-44.9-2.7-6.4-6.3-12.8-7.3-19.7-1.5-10.5.5-16.4 3.8-26.4 5.4-16.2 18.9-26.6 30.6-38.6 13.6-13.8 2.5-26.7-7.2-38.7-9.3-11.4-22.6-26.7-21.6-42.3.6-9.1 6.5-14.7 11-22.3 4.9-8.3 2.4-13.5-2.4-21.1-9.2-14.6-22.1-27-32.5-40.8-4.1-5.2-7.3-11-9.4-17.3-2.7-8.7-2.1-17.7-4.1-26.5-3.6-15.8-14.7-27.3-13-44.7 1.3-13 11-34-6-41.4-15.8-6.8-32 16.3-39.8 27-10.9 15.1-1.6 30.9 5.9 45 7.3 13.6 10.7 26.1 7.5 41.5-3.2 15.2-9.6 32.2-8.4 48 1.4 19.5 7.9 38.6 9.9 58 3.2 31.4-27 56-20 87.2 3.2 14.6 6.5 28.8 5.8 43.9l-3 65M0 289c3.5 6.2 12.2 23.4 8.8 30.1-3.5 6.9-10.1 10-11.7 18-2.8 13.7-.7 28.7 1.6 42.3 2.5 14.9 3.1 31.1 9.4 44.9 5.8 12.8 17 29.6 16.5 44.5-.3 9.2-7.6 11.4-14.7 14.2-7.4 2.9-14.4 6-21.5 9.7-6.1 3.1-11.6 3.9-17.1-.9m11.2-408.6c7.2-2.2 15-5.3 22.7-4.7 7.3.5 10.8 5.4 14.1 11.3 4.2 7.5 7.9 14.3 9.3 23 2.5 15.2-10.4 30.9-17.1 43.5-5.9 11-11.5 25.2-7.1 37.7C9.1 207.5 27 225 0 243.2M572.3-17.9c-8.2 14-18.4 26.2-28.2 39.2-8.7 11.5-9.4 21.5-6 34.9 4.2 16.2 10.2 32.6 9.1 49.6-1 14.8-11.2 27-14.4 41.1-3 13.1-.1 27.7-2 41.1-1.3 8.8-3.5 17.6-5.2 26.4-1.4 7.4-2.1 15.6-4.5 22.8-2.1 6.4-5.9 11.5-10.2 16.4-5.4 6.2-10.9 11-10.1 19.8.6 6.1 3.4 11 6.6 16l16.9 25.8c7 10.8 12.5 27.8-1.9 35.2-12.5 6.3-29.6 1-41.4 10.4s-9.7 26.1-7.8 39.4c1 7.4 2.7 15 3 22.4.3 8.9-1 18-1 26.9 0 15.1 3.5 27.7 10.4 41 6.7 12.9 8.8 27 .4 39.9-5.2 8-10.2 3-16.5-1-6.6-4.2-13-9.2-20.2-12.2-6.9-2.8-14.5-3.6-21.4 0-5.9 3.1-9.3 10.6-15.1 13.8-4.2 2.3-6.4 2.6-9.8-.3-2.4-1.9-4.4-4.2-6-6.7-4.2-6.5-7.2-16.1-12.6-21.6-13.7-13.8-24.6 11.8-32.4 19.5-7 6.9-10.3 5.3-17.7.6-6-3.8-11.8-5.5-18.4-2.1-5.6 2.8-14.1 13.3-19.1 4.2-3.4-6.2-1.9-14.7-5.1-21.3-6.8-13.8-20.3-17-34.4-18-7.1-.5-17.2.9-22.9-3.2-5.9-4.2-2-10.5 1.5-15.3 10.3-14 22.7-23.5 27.2-41 3.4-13.2.2-27.9-5.8-39.9-3.3-6.6-9.4-14.3-8.8-22.2.6-7.5 7.2-14.8 11.1-20.7 7.9-12 15.7-25.2 12.8-40s-22-21.3-33.6-27.7c-11.9-6.6-25.4-14.1-31.5-27.2-3.7-8-1.5-13.2 1.4-20.8 2.4-6.4 6.6-13.8 4.2-20.5-4.9-14.1-28.2-15.6-26.7-32.9.7-8.5 6.9-16.1 9.9-23.9 1.8-4.7 1-10.3-1.1-14.9-3.6-7.9-9.5-15.4-14.1-22.9-4.4-7.2-8.4-15.1-13.5-22-8.6-11.7-21.8-17.7-32.2-27.5-11.3-10.6-16.7-27-23.6-40.5-6-11.9-11.2-27-7.6-40.3m520.3 594.6c2.9-7-.1-14.4.3-21.5.6-8 3.4-15.6 8.1-22.1 10.7-14.9 27.8-1.2 39.4 5.2 14 7.7 28.6 13.1 43.5 19 11.9 4.7 27.8 8.6 40.8 7 18.4-2.3 12.2-25.6 6.5-36.7-4.3-8.4-25.7-25.7-19.1-37.1 3.3-5.6 16.7-5.3 21.9-4.9 6.7.7 13.4 2.2 19.7 4.6 15.4 5.5 25.4 17.8 39.5 25.3 14.8 7.9 26-9.8 38-16.1 6.1-3.2 12.5-5.4 19-2 5.4 2.9 13 13.1 18.9 5.2 4.6-6.1-2.8-13.6-5.9-18.3-4.4-6.8-8-13.7-14.2-18.9-10.9-9.3-25.4-13.5-33.8-25.5-4.5-6.5-7.3-15.3-12.6-21.1-4.9-5.3-13.2-9.2-19.2-13.3-13.3-9.1-16.4-20.5-19.8-35.5-1.6-7.1-2.7-14.5-8.2-19.8-5.8-5.5-13.1-9.7-19.5-14.3-5.5-3.9-11.1-7.8-18.1-5.1-6 2.4-10.8 8.8-15 13.4-5.2 5.6-9.5 12.5-17.6 14.1-6.8 1.4-15.5-1.2-21.8-3.6-13-4.9-26.9-14.6-37.5-23.2-4.8-3.9-13.2-11.1-7.9-17.9 4.3-5.5 12.3-8.6 17.5-13.3 11.4-10.5 10.6-27.5 6.8-41.5-2-7.4-6.1-11.4-12.4-15.2-8-4.8-12.2-7.7-16.1-16.6-5.5-12.6-6.7-28.3-8.3-41.9-1.7-14.7-5.3-28.3 10-36.5 10.8-5.8 33.1-13 29.1-28.8s-20.7-25-31.1-35.9C626.8 64.4 617 28 637.3 6.5 649.1-6 663-1.9 678-2.7c11.7-.6 34.8-5.9 37.2-19.3m829.3 600.1c-9.5-11.4-5.4-30.6-18.8-39.7-5-3.4-14.5-6.7-20.1-2.3-4.8 3.8-3.6 12.2-3.1 17.9"/>
    <path class="st2" d="M409.9-26.9c-6.6 9.3-14.4 18.1-15.1 30.1-.7 12.5 6 22.7 8.9 34.5 2.6 10.8-4.6 20-8.2 29.8-7.9 21.8-9.5 46.1-13 68.9-1.6 10.1-1.9 20.5-3.5 30.6-.4 2.5-1.3 11.7-5.6 9-2.4-1.4-3.4-10.2-4-13.4-1.9-10.9-3.1-21.7-5.5-32.4-2.6-11.6-3.9-25.2-9.4-35.9-5.1-9.9-13.8-14.8-23-20.4S314.6 62.6 309.3 53c-4.9-8.8-7.3-19.8-3-29.1 4.6-10.2 10.2-20 9.1-31.6-1-10.8-3.6-23.2-7.7-33.2m840.6 613c9-9.4 17.1-23.2 10.2-36-2.4-4.5-11.9-11.1-6.2-16.4 4.7-4.3 14.4-4.2 20.3-4.8 13.1-1.4 26-6.5 34.2-17.4 4.5-6 7.3-10.7 8.1-18.4.6-6.9-1.2-13.8-2.7-20.4s-3.2-13-4.3-19.5c-1.3-7.9-.7-16.6-2.8-24.3-1.5-5.2-5.6-13.2-11.8-8.9-5 3.5-6.7 11.5-8 17-1.7 7.3-2.6 14.7-8.3 20.3-5 4.9-12.5 8.6-18.3 12.6-5.2 3.5-10.7 8.7-16.5 10.9-10.3 4-8.9-5.3-13.1-11.8-7.2-11.2-29.5-4.4-35-16.4-2.2-4.8 1.3-12 3.4-16.4 3.8-7.9 10.1-16.1 12.5-24.5 4.2-14.8-19.6-16.2-28.8-18.1-6.7-1.3-11.9-2-17.6-5.4-5.3-3.2-10.9-7.7-16.8-9.4-15.5-4.6-32.8-2.8-48.3-7.3-5.3-1.5-11.7-5-14.9-9.7-2.1-3-2.2-4.9-.1-8.9 1.3-2.5 4.6-5.6 6.8-7.4 11.3-9.3 27.2-14.3 40.2-20.3 11.5-5.2 22.3-14 31.4-22.7 4.9-4.6 8.7-9.2 9.9-16 1.2-7.1-1.8-15.9-4.4-22.4-2.6-6.3-6.2-12.1-12.7-14.4-6.8-2.4-14.5-.3-21.8-.8-15.7-1-22.3-14.1-30.5-25.6-15.5-21.8-54.2-9.5-75.5-5.6-14 2.5-28.2 6.1-42.3 7.4-15.4 1.4-29.1-6.1-43.2-11.4-4.8-1.8-13.7-3.6-16-8.7-2.9-6.4 5.8-9.2 10.1-11.2 10.2-4.8 30.1-10.6 35.8-21.7 6.7-13.2-13.2-24-21.4-30.4-9.5-7.6-23.5-16.4-28.3-27.7 2.7 1.5 11.8-2.2 15-2.5 4.3-.4 8.7 0 13 .1 10.4 0 20.8.6 31.2 1.8 19.6 2.6 38.6 11.4 58.6 10.5 7.4-.3 16.1-3.3 22.9-6.4 9.1-4.2 20.8-8.4 28.7-14.6 13.4-10.5-23.8-30.6-32.2-34.4-11.5-5.2-23.8-9.6-34.8-15.8-9.3-5.2-18-12.1-26.9-18.1 1-1 2.1-1.9 3.3-2.8 2.5-1.2 6-1.6 8.6-2.3l22.5-6c9.4-2.5 18.5-2.2 28.2-1.8 20.9.9 46.8 1.4 62.7-14.8m480.8-16.1c-7.7 3.7-36.8 12.6-28.6 25.3 7 10.8 24.7 15.1 36.4 18.3 13.2 3.6 28.3 4 40.7 10.2 6.1 3 10.7 7.7 10 14.9-.7 6.8-6.1 12.4-10 17.8-7.5 10.2-11.8 24.5-23.3 30.7-12.5 6.7-29.8 6.4-43.6 7.4-11.5.8-23.1.4-34.7.6l-58 .7c-10.2.1-20.9-.2-24.3 11.6-2.3 7.9-2.4 16.9-5.3 24.6-2.4 6.3-7.9 12.4-11.7 18.1-2.9 4.5-8.6 11-7 16.8s10 7.2 15.1 8.1c16 3 30.4 7.8 46 12.3 12.2 3.6 26.2 3.9 37.9 8.7 5.8 2.3 13.9 7.1 10.9 14.1-3 7.2-11.4 9.3-17.8 12.4-6.2 3-11.2 5.6-14.8 12-3.7 6.5-4.3 14.7-7.8 21.4-3.1 6.1-9.2 10.9-12.1 17.2-2.7 5.7-1.4 13-1 19.1.4 7.4 1 13.5-2 20.4-2.6 5.9-6.9 8.8-11.7 13-12.1 10.5-23.6 20.5-36.9 29.2-11.3 7.4-19.1 17.2-24.4 29.7-4.9 11.5-10.2 28.6-2.8 40 8.1 12.4 28.9.7 39.8-1 6.6-1 13.6-.7 20.3-.9 6.5-.2 12.2-1.7 18.5-3.1 6-1.4 13.8-4.4 20.1-2.6 5.2 1.5 14 7.4 15.6 12.9 2.9 9.8-19.3 16.5-26.1 19.2l-52.4 21c-10.6 4.3-20.8 10.5-27.3 20.2-8.4 12.7-6.1 28.1-1 41.7 2.4 6.5 7.2 11.8 10.4 18 .9 1.8 2.8 4.3 1.8 6.2-1.2 2.1-5.6 3.1-7.8 3.8m623.3-188.6c-11.8 7.3-23.7 16.9-38.4 14.5-8-1.3-15.5-5.4-23.4-7-5.6-1-11.4-1-17 0-11.9 1.9-24.4 7.6-34.7 13.6-23.4 13.7-52.7 26.6-67.9 50.3-4.6 7.1-8.3 15-12.4 22.4-3.3 6-6.2 13.8-10.5 19.1-3.5 4.2-10.2 5.6-15.3 7-7.3 2-14.9 5.2-19.9-2.1-4.1-5.9-6.1-14-8.7-20.7-2-5-5.2-10-1-14.6 5.2-5.7 13-9.5 18.9-14.5 5.1-4.4 9.8-9.3 14.6-14 22.1-21.1 43.9-43.1 63.6-66.4 2.8-3.3 7.3-8.8 7.7-13 .7-6.8-8.1-7.7-12.8-8.4-7.9-1.2-16.3-1.8-24-3.8s-13.3-3.8-12.4-12.5c1.4-13.4 6.6-26.7 18.4-33.6 6.2-3.6 11-4.8 18.4-4.7 7.1.1 16 3.6 22.9 1.5 9.5-3 .4-9.8-4.4-12.2-6.6-3.4-14.2-4.7-21.6-3.7-12.2 1.3-26.3 4.7-36.4 11.8-7.5 5.3-26.6 24.7-37.2 15.2-2-1.8-3.4-7-4.6-9.4-1.9-4-3.7-8-5.8-11.9-3.3-6-8.2-11.5-10.9-17.7-3.4-7.8.2-10.6 6.7-15.1 6.2-4.3 13.5-7.6 20.2-11.3 5.5-3.1 9.9-7.5 14.6-11.6 4.1-3.5 12.5-8.6 15-13.6 2.9-5.9-4.7-9.4-8.9-12-8.2-5.1-16.5-10.1-24.7-15.1-5.9-3.6-8.6-5.5-12.6-11-3.7-5.1-6.9-10.5-11.6-14.6-9.1-8.1-30.7-20.2-16.1-33.4 11.6-10.5 25.9-6.3 39.4-10.6 6.3-2 11.4-8.3 17.8-10 7.1-1.9 16 .4 23.4-.3 11.8-1.1 22.8-7.4 34.7-8.9 8.7-1 18.5-3.6 27.2-3.2 6.8.3 12.3 4.6 17.7 8.4 10.6 7.4 18.3 21.2 30.3 26 7 2.8 14.1 3.6 20.8-.4s7.2-11.4 2.9-17.6c-8.8-12.7-24.2-10.2-35.3-18.8-5.1-4-8.7-10.6-13.6-15.2s-11.6-8.9-11.7-16c0-6.5 3.6-12.3 6.7-17.7 3.8-6.8 7.1-14.2 11.5-20.6 7.2-10.5 19.2-21.6 31.4-25.5 6.3-2 13-.8 19.5-.5 9.2.5 18.6.7 27.8 1.6"/>
    <path class="st2" d="M1426.3-42c-10.9 4.2-28.6 7.2-31.9 20.2-3.1 12.3 3.5 26 12.8 34.3 9.7 8.5 23.8 10.7 35.2 15.9 5.4 2.5 35.2 16.6 22.1 24.2-9.9 5.7-25.7 4-36.6 4.2-13.8.3-28.1 1.9-41.7 0-12.6-1.7-24.4-7.5-36.9-8.7-15.3-1.5-24.6 3-33.7 15.7-8.4 11.8-12.2 25-16.5 38.7-2.4 7.7-3.9 8.4-10.7 13.2-6 4.2-11.2 7.8-15.1 14.1-6.4 10.3-7.2 26.1-6.8 37.9.4 12.7 9.9 25.7 18.2 34.9 4.6 5.1 10.4 9.3 15.5 14.1 5.7 5.4 4.4 8.4 2.9 16-1.3 6.6-2.3 12.1-.2 18.7 2.3 7.2 8.5 11.1 12.4 17.3 5.6 8.9-5.9 24.5-11.1 32-1.9 2.8-8.7 15.8-13.4 14.7-5.8-1.3-6.4-15.1-7.1-18.9-1.2-6.5-2.5-12.7-6.2-18.4-3.3-5.1-9.2-9.3-13.5-13.5s-9-8.3-13.2-12.7c-4.5-4.7-8.1-10.8-13.2-14.8-10.9-8.7-25.4-14.2-38.1-19.6-5.4-2.3-11.1-3.9-16.8-5.8-6.9-2.2-12.9-3.1-11.4-11.6 1.8-10.1 17.1-24.7 9-34.9-8.5-10.8-25.4 0-36.1.2-7.4.2-11.3-1.3-14.8-7.8-3.2-6-4.6-13-7.6-19-2.4-4.8-9.6-12.1-9.7-17.4 0-6.6 10.3-7.6 14.8-8.6 12.7-3 25.5-6.4 30.2-20.2 2.3-6.6.6-14.2 3.6-20.6 3-6.2 10.4-9.9 15.9-14.1 10.5-8 16.8-19.6 22.1-31.5 4.8-10.8 6.6-22.5 12.4-32.9 7-12.7 13.1-26 18.2-39.6"/>
    <path class="st2" d="M1355.2-40.1c-2.1 19.3 16.5 34.9 15.9 54.2-.8 3.5-14.8-10.3-15.2-10.6-4.8-3.8-10.6-6.8-16.8-7.2-10.3-.6-18.8 4.6-26.2 11.1-23.5 20.5-46.3 42.4-70.8 61.8-3.5 2.8-7.7 5.8-11.9 7.3-6.2 2.2-9.3.7-9.8-6.2-.9-12.9 7-27.5 11.3-39.1 8.8-24.2 21.7-47 28.4-71.9M109.8 221.2c1.5-12.9 0-23.5-1.7-36.4-.7-4.9-1-8.9-3-13.3-2.8-6.1-7.7-5.3-13-1.8-21.4 14.3 5.2 42.3 17.7 51.5m469.6 251.1c8-5.5 15.9-12.1 24.5-16.6 10.6-5.5 22.9-8.1 33.2-14 7.8-4.5 16.8-12.1 19.1-21.1 2.9-11.2-8.1-20-15.9-26-15.4-11.9-39.7-14.8-57.3-6.5-18.9 8.9-37.3 20.9-41.1 42.7-2.2 12.2-1.4 23.4 6.5 33.2 3.2 4 8.4 8 13.3 9.7 6.5 2.3 11.5.8 17.7-1.4m603.1 21.8c7.7-5.5 13.5-10 11.7-20.1-1.8-9.6-9-11.2-17.6-7.3-6.7 3.1-13.7 10-13.8 17.7.1 10.8 11.8 10.8 19.7 9.7M1507.6 346l28.8-3.9c8.1-1.1 18.8-.8 26-5.6 8-5.4 8.2-16.5 10.2-25.1 1.8-7.6 2.4-16.2.5-23.8-2.3-9.4-7-16.6-13.6-23.4-3.5-3.5-6.1-6.7-11.7-5.8-2.8.4-6.1 3-8.4 4.8-15.4 11.8-31 25.8-42.9 41.1-5.6 7.2-11.5 17.9-10.8 27.1.7 13.8 10.1 13.6 21.9 14.6"/>
    <path class="st2" d="M-15.5 355.9l7.6 52.3C-6.2 419.7-.4 430.3 4 441c2.2 5.2 4.9 10.6 5.4 16.4.6 7.7-3.3 10.9-9.8 13.8-4.9 2.2-11.3 5.4-16.6 5.9m3.6-186.8c2.8 4.5 5.5 9.6 5.4 14.9M0 85.8c18 4.2 20.7 27.1 17.5 37.1-4.1 12.6-13.7 23.6-18.7 35.9-4.9 12.1-9.4 25.6-5 38.3 2.1 6 6.6 14.1 5.5 20.8-.9 5.4-5.2 8.7-9.8 11.2M554.3-7.4c-8.9 10.6-19.8 21-27.2 32.8-4.2 6.8-6 12.1-4.4 20.1 1 5.3 3.6 10.7 5.4 15.9 4.5 13.1 11.4 26.8 10.5 41-.8 13.7-10.7 22.2-16.8 33.6-6.8 12.8-3.9 27.8-3.7 41.7.2 12.6-2.9 25.4-4.8 37.8-1.9 12.8-2.7 22.7-12.6 32-5 4.7-11.6 8.8-13.3 15.7s.8 13.2 3.8 19.5c5.8 12.5 15.2 23.4 22 35.4 2.5 4.4 5.1 10.1 3.7 15.3-1.6 6.5-7.8 7.5-13.5 8.5-15.3 2.5-26.7 4.1-37.5 16.1-7.8 8.6-7.2 22-5.9 32.9 1.5 12.6 4.8 24.9 4.6 37.7-.2 15-1.5 29.6 1.8 44.4 2 9 13.2 25.4 8.1 34.1-3.8 6.5-14 1-19.3-.6-6.5-2-12.6-3.8-19.5-4-11-.3-25.8 12.9-33.4 1.7-6.1-9-8.4-27.7-20-31.5-12.5-4.1-23.3 16.2-30.5 23-3.4 3.2-6.9 5.9-11.8 5.4-7.7-.9-15.8-4-23.4-5.9-5.2-1.1-10.1-3.2-14.5-6.3-5-3.2-9.8-7.3-15.5-9.2-8-2.7-16.5-4.4-24.7-6.6-6.4-1.7-9-3.9-6.7-10.9 2.2-6.6 7.1-12.4 10.3-18.5 2.6-5.1 4.4-10.6 5.5-16.2 2.4-12 2.1-26.8-1.7-38.5-4.4-13.6-11.6-21.5-5.4-36 4.8-11.3 12.8-20.9 16.4-32.9 3.8-12.7 4.6-27.1-6.2-36.4-10.5-9.1-25.4-13.2-37.1-20.5-9-5.5-20.5-15.2-19.7-26.8.7-9.9 15.9-25.6 9.9-35.6-6.4-10.8-26-11.7-28.8-24.9-1.2-5.9 3.6-12.6 6.1-17.5 3.7-7.1 6.3-10 4.8-17.7-2.2-11.5-12.4-21-18.4-31-7.2-12-12.4-25.1-22.3-35.1-9.3-9.3-21.2-15.7-29.8-25.6-8.2-9.5-15.5-21.8-21-33-4.8-9.8-11-27.1.6-34.7m520.9 599c6-9.9-3.8-26 5.2-34.5 9.5-8.9 30.3 5.4 38.9 9.4 22.6 10.3 48.2 17.6 73 20 13.2 1.3 25.3-1.6 25-17-.2-14.2-4.2-27.9-9.4-40.9-2-4.8-6.2-11.4-1.4-15.4 5.1-4.3 13.7.2 18.7 2.6 12.2 5.9 20.8 18 31.9 25.6 4.5 3.1 10 6.7 15.6 6 6.8-.8 10.5-5.8 15.4-10.3 4.4-4.1 9.3-10.8 16.2-10.2 6.2.6 11.5 9.5 16 13 12.1 9.4 20.6-2.7 31.1-8.1 5.8-3 11.2-3.2 16.5.6 6.5 4.7 10 8.8 17.4 11.9 6.7 2.8 13 2.9 20.3 2 3.8-.5 14.8-2.9 13.8-8.6-.6-3.5-8.2-7.7-11.4-9.4l-23.6-12.6c-11.8-6.4-21.7-14.5-32.4-22.6-9.6-7.3-17-17.1-26.5-24.2-11-8.3-25-11-33.7-22.1-4-5-6.8-11.3-10.1-16.9-3.5-5.9-5.3-7.7-11-11.5-10.8-7.1-23-13.1-26.8-26.3-3.2-10.8-3.7-28.5 4.3-37.4 9-10.1 22.9-14.9 33.6-22.8 1.9-1.4 4.6-3.1 4.3-5.6-.3-2.9-4.3-2.9-7.4-2.7-5.3.2-10.7 2.3-15.5 4.5l-23.9 11c-4.2 1.9-10 4.3-14.6 4-6.8-.5-11.7-4.8-16-9.4-4.5-4.9-8.4-12.1-16.1-11-4.2.6-9.5 5.3-12.8 8.2-6.5 5.9-12.5 12.5-18.6 18.8-8.6 8.6-19.2 10.9-30.5 5.4-6.4-3.1-11.5-5.8-17-10.2-4.4-3.4-11.5-7.9-11.4-14.1.1-7.5 9-12.1 12.8-17.4 3.5-4.7 5.5-10.2 6-16 1.1-13.1.3-27.8-1.6-40.8-.9-6.5-3.2-9.7-9.2-11.9-6.1-2.2-12.7-3.7-17.3-8.7s-5.7-12.9-7.5-19.3c-1.7-6.3-3-12.7-3.9-19.2-1.7-11.7-2.8-24.1 8.4-31.1 10.9-6.9 27.2-11.8 35.4-22.5 9.2-11.9-5.2-25.1-12.7-34S658 84 649.8 75.4c-8.9-9.4-15-21.3-15.9-34.3-.9-13.6 4.3-26.5 16.6-33.1 11-5.9 25.2-.8 37.1-2.4 6.1-.8 12.4-3.5 18.3-5.1s16.1-2.4 21.2-6c4.2-2.9 3-9 2.1-13.3m844.9 601.9c-4.4-4.9-10.7-7.2-15.6-11.4-4.2-3.7-7.3-8.4-9.2-13.6-4.5-11.5-4.9-26.7-16.5-33.9-10.4-6.4-27-9-39-6.9-5.5 1-12.3 3.2-12.8 9.3-.5 6.5 5.7 13.3 8.1 19m456.2 43.8c-13.4-6.8-15.1-17.2-16.6-30.8-1.4-12.8-.8-25.8-14-32.2-5.6-2.7-11.7-4.3-17.8-4.7-4.2-.1-5.6 0-7.5 3.2s-.3 11.6-.4 15.1"/>
    <path class="st2" d="M1712.7 577.8c8.5-7.5 16.6-14.5 26-20.8 9-6.1 18.3-8.8 28.6-12.4 9.9-3.5 21.4-6.1 30.3-11.9 9.7-6.3 7.2-14.7 4.5-24.2-2.9-10.3-7.3-21.7-6.3-32.6.9-10.1 6.3-20 13.6-26.7 8.1-7.4 17.2-12 27.4-15.7 10.9-3.9 21.9-8.3 33.3-10.5 9.5-1.9 19.3-.9 28.2 2.9 10.3 4.3 19.1 8.9 30.4 6.4M1850.3-8.3c-11.4 16.8-21.4 34.6-36.8 48.1-12.4 10.9-27.3 20.8-43 26.2-10 3.4-17.2 3.5-28 3.5-8.8 0-17.3.2-25.7 3.2-9.3 3.2-18.3 8.9-27.2 13.2-7.3 3.6-14.3 7.6-21.1 12.1-7.1 4.5-14.8 9.3-19.3 16.7-4.2 6.9-5.7 18.2-5.4 26.1.6 17.7 12.6 31.6 25.2 42.6 7 6.1 13.7 12.6 21.1 18.1 5.2 3.8 19.1 11.6 14.8 19.2-3.9 7-16.1 7.9-22.8 9.6-9.2 2.3-17.8 4.1-26.3 8.1-20.5 9.8-7.6 31.4 3.2 43.5 5.8 6.5 10.4 12.2 10.6 21.3s-2.5 16.3 5.3 22.9c7 5.9 13.6 10.1 19.2 17.3s11.2 16.8 18.3 22.7c8 6.6 18.1 7.7 27.2 11.9 8.9 4.1 6.5 11.5 1.2 18.2-10.9 13.7-25.5 27.7-41.4 35.4-14.6 7-33.2 8-48.7 4-8.9-2.4-16.3-4.5-25.6-2.8-8.1 1.5-21 3.2-26.8 9.3-6.1 6.5-6.7 17.2-3.6 25.4 2.7 7.3 7.4 16.8 13.2 22.3 7.4 7 16.3 3.8 25.2 2s16.3-2.4 24.5 1.8c17.7 9 21.1 25.1 20.6 43.7m-309.5 53.5c16.2-7.9 35.7-9.3 51.8-17.4 8.5-4.2 5-9.3-2-11.9-11.1-4.2-22.6-7.4-33.8-11-13.8-4.5-35-13-32.7-30.9 2.1-16.8 24.6-25.8 37.6-32.2 15.8-7.8 32.1-14.4 48.9-19.8 11-3.5 22.4-6.4 33.2-10.5 6.3-2.4 14.7-6.7 17.2-13.5s-.3-17.5-7-21.1c-7.8-4.1-17.8-4-25.8-7.9-8.2-4-14.9-11.9-24-14.1-9.6-2.3-18.3 1.9-27.2 4.9-7.4 2.5-14.3 4.1-22.1 2.9-10.4-1.6-18-2.3-28.4-1.1-3.7.4-8.4 1.6-10.7-2.4-2-3.4.5-8.2 2.3-11 5.3-8.4 16-13 23.8-18.7 7-5.2 12.4-12.5 18.4-18.8 6.3-6.5 13.3-12.3 20-18.3 13.2-11.9 14.8-32.8 20.1-48.6 2.8-8.4 6.1-16.5 10.1-24.4 4.2-8.3 10.5-11.7 18.3-16s14.1-8.6 19.4-15.8c4.8-6.5 11.4-15 12-23 1.2-14.6-29.3-22.4-39.9-25.3-18.3-5-38.6-5.7-54.1-17.8-13.3-10.5-8.2-34.9 6.9-40.8 14.7-5.7 33.4-5.1 48.8-5.3 19.3-.3 38.9.4 58.1-.8 16.6-1 35-3 45.8-17.2 5.7-7.5 9.6-16.3 15.4-23.6 5.7-7.1 14-12.4 18.8-20.1s7.2-18.5 4-27.4c-3.4-9.5-12.2-12.4-20.6-16-8.2-3.6-16.6-4.8-25.4-6.5-7.6-1.5-17.3-2.1-23.9-6.7-9-6.2 1.5-13.1 6.6-17.4m-549-4c-6.8 5.8-19.3 4.2-27.3 4.3-16.8.3-33.2 3.3-50 4.3-18.8 1-37.9 2.8-56.4-.9-8.1-1.6-19.1-6-27.3-3.4-11 3.5-1.8 15.4 2.8 20.4C832 17.5 846.2 30 860 37.1c18.1 9.3 36 17.3 53.5 27.8 5 3 18 11.3 8.8 16.1-5.5 2.8-13.5 2.1-19.8 1.5-20.9-1.8-42-3.2-62.9-5.6-18.5-2.1-37-5.3-55.4-7.9-4.9-.7-47-11.1-48.5-.5-.4 2.5 4.1 8.6 5.7 10.7 2.9 3.6 6.2 6.9 9.7 9.9 7.8 6.7 16.9 12.2 25.2 18.3 13.6 9.8 30.2 16.4 42.6 27.6 6 5.4 14.5 13.7 6.5 20.8-6.2 5.4-15.9 6.5-23.8 7.8-7 1.2-22 1-27.2 7.5-4.3 5.4 1.9 16.6.5 23.2-1.1 5.1-12.1 20.7-7.7 25.8 4.6 5.3 23.6-.9 28.6-1.8 16.5-2.7 36-2.2 49 9.2 8.2 7.2 12.8 11.2 24 9.8 9.5-1.2 18.9-5.2 28-8 15.7-4.7 32.1-7 48.5-6.7 8.9.2 18.8.7 27 4.5 7.2 3.4 12.2 9 17.7 14.6 8.4 8.5 17 16.7 25.2 25.4 5.7 6 3.5 11.4-1.7 17.5-12 14.1-32.8 18.3-48.3 27.7-16.7 10.2-32.1 23.1-47.9 34.7-4.6 3.4-12.2 7.8-14.6 13.1-4.5 9.8 4.6 14.1 12 16.3 9 2.7 17 4.5 24.8 9.8 4.4 3 9.5 8 14.5 9.9 3.1 1.2 7.8.8 11.2.3 8.8-1.4 17-6.4 25.8-7.6 8.9-1.2 17.9-.2 26.3 3 8.6 3.2 16.9 8.1 24.9 12.6 6.7 3.8 13.3 8.6 13.2 17.1-.3 15.2-26.5 30.7-10.8 44.5 13.1 11.5 35.2 17.9 35.1 38.6-.1 10 .5 20 1.7 29.9 1 7.8 1.8 16.8-1.6 24.2-3.9 8.6-11.2 14.7-17.7 21.2M272.7-45.3c9.5 10.5 20.5 29.8 14.9 44.2-6.6 17.1-33 19.4-48.1 22.9-7.5 1.7-15.6 5.8-7.3 13.2 5.9 5.3 13.9 8.7 18 15.7 4.9 8.3 6.1 17.8 12 25.7 4.5 6.1 11.8 9.7 18.7 12.9 10.2 4.8 21 8.5 31.4 12.8 6.7 2.8 13.9 7.8 14.1 15.9.2 10.5-11 15.4-14.1 24.3-2.9 8.4 7.5 15.8 12.5 21.2 6.1 6.7 8.4 13.3 6.8 22.3-1.7 9.6-8.8 16.7-11.5 25.8-2.4 7.9 2.4 15.1 5.2 22.2 3.5 8.7 8 17.6 10.8 26.6 2.9 9.7 4.1 20.4 6.1 30.4 1.8 8.9 5.7 14 10.9 21.8 4.8 7.2 6.9 16.5 11.8 23.2 7.3 9.9 12.1.3 13.5-7.2 1.6-8.6 3.3-17 3.9-25.7.7-9 .1-19.3 2.9-27.9 3.2-9.7 8.2-16.9 13.9-25.2 5.4-7.8 5.4-14.8 5.7-24.1.1-3.8-.2-7.7.9-11.2 1.7-5.3 5.5-9.9 7.2-15.2 2.6-8.1-.7-16.9-2.9-24.8-4.8-17.4-5-34.7-3.1-52.6 1.6-15.1 2.4-37.4 17.3-45.8 8.3-4.7 17.9-3.6 26.5-7.1 9.1-3.7 2.9-12.5-1.1-17.9-9.1-12.2-31.6-29.9-24.5-47.8C428-4 436.6-9.9 442.2-14.8c6.8-6 13.5-13.1 21-18.1"/>
  </g>
</svg>
