<?xml version="1.0" encoding="utf-8"?>
<!-- Generator: Adobe Illustrator 24.0.0, SVG Export Plug-In . SVG Version: 6.00 Build 0)  -->
<svg version="1.1" id="Layer_1" xmlns="http://www.w3.org/2000/svg" xmlns:xlink="http://www.w3.org/1999/xlink" x="0px" y="0px"
	 viewBox="0 0 216 216" style="enable-background:new 0 0 216 216;" xml:space="preserve">
<style type="text/css">
	.st0{clip-path:url(#SVGID_2_);fill:#FFFFFF;}
</style>
<g>
	<defs>
		<rect id="SVGID_1_" x="-0.26" y="0.07" width="216" height="216"/>
	</defs>
	<use xlink:href="#SVGID_1_"  style="overflow:visible;"/>
	<clipPath id="SVGID_2_">
		<use xlink:href="#SVGID_1_"  style="overflow:visible;"/>
	</clipPath>
	<path class="st0" d="M52.79,102.18c-10.56-8.1-17.43-20.13-17.43-34.37c0-27.49,19.89-46.89,56.22-46.89h53.76v174.3H87.4
		c-37.07,0-61.87-17.92-61.87-50.33C25.54,125.75,37.32,111.02,52.79,102.18 M115.14,49.4H91.57c-16.2,0-26.02,6.88-26.02,20.13
		c0,13.99,9.82,20.13,26.02,20.13h23.57V49.4z M87.4,166.74h27.74v-48.61H86.66c-19.89,0-30.93,10.31-30.93,25.04
		C55.73,157.91,66.78,166.74,87.4,166.74"/>
	<path class="st0" d="M174.47,195.22c-8.59,0-15.47-6.88-15.47-15.47c0-8.59,6.88-15.47,15.47-15.47c8.59,0,15.47,6.88,15.47,15.47
		C189.94,188.35,183.06,195.22,174.47,195.22"/>
</g>
</svg>
