<svg id="Layer_1" data-name="Layer 1" xmlns="http://www.w3.org/2000/svg" viewBox="0 0 239.21 362"><defs><style>.cls-1,.cls-4{fill:#fff;}.cls-1,.cls-3,.cls-4{stroke:#000;}.cls-1,.cls-2,.cls-3,.cls-4{stroke-miterlimit:10;}.cls-1,.cls-2{stroke-width:2px;}.cls-2{stroke:#fff;}</style></defs><title>Awarding</title><path class="cls-1" d="M307.33,382l-22.58-.12a2.93,2.93,0,0,0-2.21.94L267.05,399.2c-2.22,2.35-6.33.15-8.29-4.44L194.39,244.37c-1.65-3.86-1.07-7.82,1.3-8.83l42.49-18.19c2.37-1,5.64,1.3,7.29,5.16l64.36,150.38C311.8,377.49,310.56,382,307.33,382Z" transform="translate(-96.4 -39.15)"/><path class="cls-1" d="M159.54,399.25,143.66,383.2a2.91,2.91,0,0,0-2.23-.89l-22.57.65c-3.23.09-4.57-4.37-2.71-9L177,222.1c1.57-3.9,4.77-6.28,7.16-5.32L227,234c2.4,1,3.07,4.9,1.51,8.8L167.72,394.61C165.86,399.25,161.81,401.55,159.54,399.25Z" transform="translate(-96.4 -39.15)"/><path class="cls-1" d="M333.42,171.48c-1.34-2.55-2.76-5-4.2-7.54a9.62,9.62,0,0,1-.13-10.11q1.95-3.51,3.92-7c2.68-4.76,2-9.19-2.08-12.93-1.92-1.78-3.83-3.58-5.78-5.33a9.58,9.58,0,0,1-3.09-9.63c.54-2.67,1.09-5.34,1.62-8a9.63,9.63,0,0,0-5.53-11.07c-2.64-1.26-5.32-2.45-8-3.7a9.34,9.34,0,0,1-5.57-7.77c-.34-2.75-.64-5.51-1-8.27-.63-5.19-3.95-8.44-9.16-9-2.66-.3-5.32-.62-8-.93a9.53,9.53,0,0,1-8-5.74c-1.21-2.61-2.4-5.23-3.61-7.84A9.51,9.51,0,0,0,264.43,51c-2.93.5-5.84,1.14-8.77,1.71a9.45,9.45,0,0,1-9.26-2.89c-2-2.19-4-4.42-6.1-6.55a9.49,9.49,0,0,0-12-1.76q-3.58,2-7.12,4a9.65,9.65,0,0,1-10.25.08c-2.46-1.39-4.91-2.79-7.39-4.15a9.48,9.48,0,0,0-11.84,1.81c-2.07,2.15-4.08,4.35-6.1,6.54a9.5,9.5,0,0,1-9.26,2.93c-2.68-.5-5.34-1.08-8-1.62-5.11-1-9.14,1-11.36,5.73-1.34,2.83-2.59,5.71-4,8.49A8.75,8.75,0,0,1,146.3,70c-3,.5-6.1.74-9.15,1.14-4,.52-7.05,2.56-8.18,6.5a50.68,50.68,0,0,0-1.46,9.2c-.37,4.11-1.74,7.47-5.69,9.32-2.87,1.34-5.76,2.63-8.61,4a9.19,9.19,0,0,0-5,9.81q.81,4.47,1.71,8.93a9.7,9.7,0,0,1-3.16,9.76c-2.13,1.93-4.29,3.84-6.34,5.86a9.53,9.53,0,0,0-1.59,12c1.44,2.54,2.89,5.09,4.27,7.68a9.25,9.25,0,0,1-.1,9.28c-1.41,2.57-2.87,5.11-4.27,7.69a9.54,9.54,0,0,0,2.06,12.17c2.11,2,4.25,3.9,6.35,5.86a9.33,9.33,0,0,1,3.06,7,8.47,8.47,0,0,1-.08,1.23c-.58,3-1.16,5.95-1.76,8.92a9.66,9.66,0,0,0,5.7,11.38c2.61,1.21,5.23,2.4,7.83,3.63a9.19,9.19,0,0,1,5.42,7.21c.44,2.85.76,5.71,1,8.58a9.78,9.78,0,0,0,8.81,9.21c2.81.34,5.62.64,8.43,1a9.35,9.35,0,0,1,7.8,5.53c1.22,2.55,2.39,5.12,3.59,7.68,2.24,4.82,6.25,6.86,11.44,5.82,2.67-.54,5.33-1.09,8-1.61a9.51,9.51,0,0,1,9.24,3c1.9,2,3.77,4.08,5.65,6.12A9.63,9.63,0,0,0,203.74,276c2.48-1.36,4.93-2.76,7.39-4.14a9.55,9.55,0,0,1,9.85.06l7.13,4c4.62,2.55,9,1.87,12.56-2,1.89-2,3.77-4.07,5.66-6.11a9.48,9.48,0,0,1,9.38-3c2.87.55,5.73,1.19,8.62,1.69a9.53,9.53,0,0,0,10.59-5.6c1.23-2.66,2.43-5.33,3.69-8a9.41,9.41,0,0,1,7.94-5.57l8.27-1a9.54,9.54,0,0,0,8.73-8.41c.43-2.9.71-5.82,1.05-8.73a9.37,9.37,0,0,1,5.61-7.9l7.7-3.57a9.66,9.66,0,0,0,5.76-11.22c-.54-2.72-1.1-5.44-1.63-8.16a9.5,9.5,0,0,1,2.91-9.27c2.13-2,4.32-4,6.45-6A9.48,9.48,0,0,0,333.42,171.48Z" transform="translate(-96.4 -39.15)"/><path class="cls-2" d="M215.67,264a105.27,105.27,0,1,1,.81-210.53c57.85.23,104.93,47.49,104.78,105.21A105.26,105.26,0,0,1,215.67,264Z" transform="translate(-96.4 -39.15)"/><path class="cls-1" d="M215.5,61.54c-53.49.09-96.85,43.89-96.73,97.71.13,53.26,43.92,96.89,97.11,96.74a97.25,97.25,0,0,0,97.35-97.72C313.19,104.86,269.33,61.44,215.5,61.54Z" transform="translate(-96.4 -39.15)"/><g id="Zstrqo.tif"><path class="cls-3" d="M215.81,119.31c9.31,0,18.63.12,27.94-.07,3.53-.07,4.78,1.13,4.55,4.66-1,15.38-4.2,30-12.79,43.18-4.85,7.42-11.12,14.14-12.74,23.35-.23,1.27-1.1,1.69-2.33,1.68-3,0-6.09,0-9.13,0a2,2,0,0,1-2.16-1.88c-1.72-9.16-8-15.89-12.81-23.32-8.58-13.19-11.74-27.82-12.7-43.21-.24-3.76,1.47-4.49,4.77-4.44C197.54,119.41,206.68,119.31,215.81,119.31ZM205,141.42c4.6,3.6,5.25,8.07,4.47,13.6,4.53-4.73,8.82-2.55,14.56.26-3.43-6.43-.45-10.22,3.87-14.45-6.6.57-9.67-2.51-11.83-8C213.67,138.11,210.82,141.52,205,141.42Z" transform="translate(-96.4 -39.15)"/><path class="cls-3" d="M215.82,217.3c-6.46,0-12.92,0-19.38,0-1.31,0-3.17.51-3.13-1.77,0-1.82-.89-4.19,2-4.81a18.74,18.74,0,0,0,9.27-5,19.23,19.23,0,0,0,3.3-4.42c1.18-2.14,1.73-3,4.43-2.78,2,.2,4-.13,6-.07,4.68.14,6.05,3.26,8.29,6.71,2,3.06,5.27,4.52,8.76,5.14,3.14.55,3.51,2.41,3.3,5-.24,3.05-2.55,1.93-4,2C228.37,217.37,222.09,217.3,215.82,217.3Z" transform="translate(-96.4 -39.15)"/><path class="cls-3" d="M240.18,172a45.28,45.28,0,0,1,13.67-17.18,26,26,0,0,0,8.78-12c1.75-5.06.61-7.4-4.59-8.58-3-.69-4.82-1.5-3.81-5.19s3.37-1.66,5-1.3c9.66,2,13.09,9.16,9.07,18.58S250.93,168.06,240.18,172Z" transform="translate(-96.4 -39.15)"/><path class="cls-3" d="M190.47,171c-12-6.2-22.79-13.68-27.55-27-3.26-9.13,2.45-16.6,12.15-17,2-.09,2.57.74,2.62,2.38s1.45,3.55-1.47,4.29-6.51.37-7.39,4.22c-.92,4,1.16,7.4,3.49,10.36s4.75,6,7.77,8.12C185.34,160,188.07,165.29,190.47,171Z" transform="translate(-96.4 -39.15)"/><path class="cls-4" d="M205,141.42c5.86.1,8.71-3.31,11.07-8.58,2.16,5.48,5.23,8.56,11.83,8-4.32,4.23-7.3,8-3.87,14.45-5.74-2.81-10-5-14.56-.26C210.21,149.49,209.56,145,205,141.42Z" transform="translate(-96.4 -39.15)"/></g></svg>