<svg id="Layer_1" data-name="Layer 1" xmlns="http://www.w3.org/2000/svg" viewBox="0 0 311.11 324"><defs><style>.cls-1,.cls-2{fill:none;stroke:#000;stroke-miterlimit:10;}.cls-1{stroke-width:2px;}</style></defs><title>Innovation and Tech</title><path class="cls-1" d="M251.07,181.39a12.12,12.12,0,0,1,.65,1.7,4.47,4.47,0,0,1-1.18,4.3c-2.6,2.61-5.19,5.24-7.83,7.81a4.48,4.48,0,0,1-6.35,0c-.93-.86-1.83-1.75-2.69-2.68a1,1,0,0,0-1.41-.21,35.51,35.51,0,0,1-7.67,3.19,1,1,0,0,0-.85,1.15c0,1.15,0,2.31,0,3.47a4.51,4.51,0,0,1-4.75,4.77q-5.37,0-10.73,0a4.49,4.49,0,0,1-4.64-4.66c0-1.23,0-2.46,0-3.68a.91.91,0,0,0-.76-1,36.14,36.14,0,0,1-7.87-3.27,1,1,0,0,0-1.32.26c-.85.88-1.73,1.75-2.61,2.6a4.47,4.47,0,0,1-6.42.06q-4-3.87-7.82-7.83a4.46,4.46,0,0,1-.06-6.34c.86-.93,1.76-1.82,2.68-2.69a1,1,0,0,0,.23-1.41,35.56,35.56,0,0,1-3.18-7.68,1,1,0,0,0-1.15-.87c-1.19,0-2.39,0-3.58,0a4.47,4.47,0,0,1-4.67-4.52q-.07-5.52,0-11.06a4.47,4.47,0,0,1,4.55-4.53c1.26,0,2.53,0,3.8,0a.92.92,0,0,0,1-.75,37.05,37.05,0,0,1,3.31-8,.82.82,0,0,0-.24-1.14c-.87-.86-1.75-1.72-2.6-2.61a4.51,4.51,0,0,1,0-6.66q3.73-3.78,7.51-7.52a4.52,4.52,0,0,1,6.67-.06c.86.83,1.7,1.67,2.52,2.54a1,1,0,0,0,1.41.23,34.38,34.38,0,0,1,7.68-3.18,1.07,1.07,0,0,0,.88-1.25c0-1.19,0-2.39,0-3.58a4.47,4.47,0,0,1,4.61-4.57q5.47,0,11,0a4.49,4.49,0,0,1,4.55,4.53c0,1.19,0,2.38,0,3.57a1.13,1.13,0,0,0,.94,1.32,34.08,34.08,0,0,1,7.57,3.14,1,1,0,0,0,1.42-.18c.81-.88,1.67-1.71,2.52-2.54a4.53,4.53,0,0,1,6.67,0q3.83,3.76,7.59,7.59a4.49,4.49,0,0,1,0,6.58c-.81.83-1.61,1.66-2.46,2.45a1.1,1.1,0,0,0-.27,1.59,33.5,33.5,0,0,1,3.14,7.58,1.06,1.06,0,0,0,1.25.88c1.22,0,2.45,0,3.68,0a4.46,4.46,0,0,1,4.47,4.49c0,3.73.05,7.45,0,11.17a4.48,4.48,0,0,1-4.53,4.45c-1.23,0-2.46,0-3.68,0a1,1,0,0,0-1.18.83,36.48,36.48,0,0,1-3.22,7.78c-.21.37-.37.72,0,1.08l3.46,3.35Z" transform="translate(-80.19 -54)"/><path class="cls-1" d="M255.87,158.38c0-1.59,0-3.18,0-4.77,0-.78-.24-1-1-.94-1.15.05-2.31,0-3.47,0a4.9,4.9,0,0,1-4.63-3.46,42,42,0,0,0-3.22-7.78,5,5,0,0,1,.9-5.91c.83-.85,1.67-1.7,2.53-2.52.34-.33.47-.53.06-.94q-3.6-3.54-7.13-7.13c-.34-.35-.55-.32-.87,0-.77.81-1.57,1.59-2.37,2.38a5,5,0,0,1-6.42,1,36.12,36.12,0,0,0-7-2.91,5.14,5.14,0,0,1-4-5.35c0-1,0-2.1,0-3.14,0-.55-.13-.75-.72-.74q-4.93,0-9.87,0c-.58,0-.74.2-.73.75,0,1.16,0,2.32,0,3.47a5,5,0,0,1-3.67,4.92,38.27,38.27,0,0,0-7.38,3.05,5,5,0,0,1-6.17-.87c-.82-.81-1.65-1.62-2.45-2.46-.32-.33-.53-.48-.94-.06q-3.54,3.59-7.13,7.13c-.34.34-.32.55,0,.87.86.82,1.7,1.67,2.53,2.53a5,5,0,0,1,.84,6.17,37.65,37.65,0,0,0-3,7.28,5,5,0,0,1-5,3.76c-1.12,0-2.25,0-3.36,0-.69,0-.84.21-.83.86,0,3.22,0,6.43,0,9.65,0,.71.24.85.88.82,1.11-.05,2.24,0,3.36,0a5,5,0,0,1,4.87,3.6,39.85,39.85,0,0,0,3.14,7.58,5,5,0,0,1-.86,6c-.81.83-1.62,1.66-2.46,2.45-.43.4-.5.65,0,1.1q3.52,3.45,7,7c.43.44.65.35,1,0,.82-.86,1.67-1.7,2.52-2.53a5,5,0,0,1,5.91-.86,40.81,40.81,0,0,0,7.67,3.18,4.92,4.92,0,0,1,3.54,4.79c0,1.2,0,2.39,0,3.58,0,.58.19.74.75.73q4.94,0,9.87,0c.63,0,.71-.25.7-.77,0-1.08,0-2.17,0-3.25a5.07,5.07,0,0,1,3.91-5.19,37.5,37.5,0,0,0,7.08-2.94,5,5,0,0,1,6.34.89q1.26,1.2,2.46,2.46c.32.34.52.33.85,0q3.54-3.58,7.14-7.13c.42-.42.25-.62-.08-.94-.83-.8-1.65-1.62-2.45-2.45a5,5,0,0,1-.87-6.17,39.26,39.26,0,0,0,3-7.28,5,5,0,0,1,5.05-3.79c1.09,0,2.17,0,3.26,0,.65,0,.88-.16.86-.84C255.84,161.57,255.87,160,255.87,158.38Z" transform="translate(-80.19 -54)"/><path class="cls-2" d="M250.2,180a4.08,4.08,0,0,1,0-3.68c.71-1.69,1.32-3.43,2-5.14a3.35,3.35,0,0,1,4.61-2.08c1.76.65,1.75.64,3-.75a22.08,22.08,0,0,1,1.82-1.8.59.59,0,0,0,.17-.84c-.25-.49-.48-1-.69-1.52a3.29,3.29,0,0,1,1.71-4.37c1.93-.9,3.88-1.78,5.83-2.61A3.21,3.21,0,0,1,273.1,159c.53,1.38,1.18,2.17,2.75,1.69a.93.93,0,0,1,.29,0,6.69,6.69,0,0,0,2.62-.09c.71-.33.68-1.47,1.08-2.22a3.32,3.32,0,0,1,4.11-1.61c2,.74,4.06,1.5,6.06,2.31a3.36,3.36,0,0,1,1.91,4.46c-.65,1.85-.64,1.84.8,3.16.58.54,1.14,1.09,1.66,1.68.31.38.57.37,1,.19,3.76-1.61,4.79-1.2,6.45,2.52.63,1.4,1.27,2.8,1.89,4.22a3.37,3.37,0,0,1-1.81,4.73c-1.7.79-1.69.79-1.6,2.66a13.11,13.11,0,0,1,0,2.17,1,1,0,0,0,.85,1.24,6.11,6.11,0,0,1,1,.37,3.36,3.36,0,0,1,2,4.5q-1.07,2.91-2.21,5.79a3.19,3.19,0,0,1-4.39,2c-1.53-.72-2.49-.52-3.35.89a5.25,5.25,0,0,1-1.39,1.39c-.62.45-.6.89-.26,1.48a8,8,0,0,1,.52,1.16,3.3,3.3,0,0,1-1.67,4.32c-2,.93-4,1.84-6,2.69a3.13,3.13,0,0,1-4.27-1.7c-.59-1.81-1.61-2.18-3.25-1.81a2.91,2.91,0,0,1-1.28,0c-1.15-.29-1.56.29-1.91,1.29-.94,2.69-2.56,3.37-5.24,2.34-1.71-.65-3.43-1.3-5.14-2a3.32,3.32,0,0,1-2.06-4.53c.65-1.8.65-1.8-.77-3.1a6.87,6.87,0,0,1-1.12-1.1c-.69-1-1.38-1-2.43-.46-2.37,1.18-4.11.48-5.18-1.92-.77-1.7-1.54-3.4-2.29-5.12a3.37,3.37,0,0,1,1.82-4.79c1.62-.75,1.62-.75,1.56-2.5a8.09,8.09,0,0,1,0-1.77,1.47,1.47,0,0,0-1.33-2,4.09,4.09,0,0,1-2.32-1.55Z" transform="translate(-80.19 -54)"/><path class="cls-2" d="M294.49,172.92a3.65,3.65,0,0,1-2.58-1.27,22.47,22.47,0,0,0-3.35-3.19,3.61,3.61,0,0,1-1.19-4.24,8.73,8.73,0,0,1,.38-1c.24-.47.11-.68-.39-.85a22.5,22.5,0,0,1-3.11-1.21c-.91-.46-1.18-.18-1.48.68-.8,2.29-2,3-4.4,2.9a20.88,20.88,0,0,0-4,.14,3.6,3.6,0,0,1-3.89-2.06,12.24,12.24,0,0,1-.52-1.17c-.15-.41-.35-.46-.73-.28-1,.47-2,1-3.06,1.35s-1.08.75-.64,1.66c1,2.13.69,3.51-1.09,5.07a19.91,19.91,0,0,0-2.63,2.8,3.72,3.72,0,0,1-4.71,1.31,6.32,6.32,0,0,1-.82-.32c-.4-.22-.57-.08-.71.32a30.4,30.4,0,0,1-1.24,3.21c-.43.87-.24,1.17.67,1.48,2.12.71,3,2.07,2.92,4a22.79,22.79,0,0,0,.14,4.52,3.59,3.59,0,0,1-2.08,3.79,12.24,12.24,0,0,1-1.17.52c-.39.15-.47.35-.28.74.47,1,.89,2,1.33,3,.54,1.21.54,1.21,1.78.66,1.83-.81,3.41-.59,4.59.74a26.73,26.73,0,0,0,3.5,3.31,3.41,3.41,0,0,1,1.3,3.24,6.13,6.13,0,0,1-.35,1.32c-.45,1.23-.46,1.23.79,1.71.83.32,1.68.58,2.48,1s1.16.22,1.47-.69c.78-2.29,2-3,4.4-2.87a22.77,22.77,0,0,0,4.13-.17,3.59,3.59,0,0,1,3.74,2,11.86,11.86,0,0,1,.57,1.26c.15.4.32.47.72.29,1.18-.56,2.38-1.1,3.59-1.61.45-.19.63-.38.34-.86a7.19,7.19,0,0,1-.52-1.17,3.61,3.61,0,0,1,.95-4,27.46,27.46,0,0,0,3.31-3.51,3.56,3.56,0,0,1,4.09-1.13c.4.14.8.28,1.19.45s.57.08.72-.33c.45-1.27.94-2.52,1.45-3.77.17-.42.07-.59-.35-.7a6.37,6.37,0,0,1-.91-.36,3.62,3.62,0,0,1-2.52-4,24.32,24.32,0,0,0-.15-4.43,3.59,3.59,0,0,1,2-3.73,10.08,10.08,0,0,1,1.26-.56c.41-.15.45-.35.28-.73-.55-1.16-1.08-2.32-1.56-3.5-.23-.55-.46-.69-1-.4A4.73,4.73,0,0,1,294.49,172.92Z" transform="translate(-80.19 -54)"/><path class="cls-2" d="M255.87,158.38c0,1.6,0,3.19,0,4.78,0,.68-.21.87-.86.84-1.09-.05-2.17,0-3.26,0a5,5,0,0,0-5.05,3.79,39.26,39.26,0,0,1-3,7.28,5,5,0,0,0,.87,6.17c.8.83,1.62,1.65,2.45,2.45.33.32.5.52.08.94q-3.6,3.54-7.14,7.13c-.33.34-.53.35-.85,0q-1.2-1.26-2.46-2.46a5,5,0,0,0-6.34-.89,37.5,37.5,0,0,1-7.08,2.94,5.07,5.07,0,0,0-3.91,5.19c0,1.08,0,2.17,0,3.25,0,.52-.07.77-.7.77q-4.94,0-9.87,0c-.56,0-.76-.15-.75-.73,0-1.19,0-2.38,0-3.58a4.92,4.92,0,0,0-3.54-4.79,40.81,40.81,0,0,1-7.67-3.18,5,5,0,0,0-5.91.86c-.85.83-1.7,1.67-2.52,2.53-.37.39-.59.48-1,0q-3.45-3.52-7-7c-.46-.45-.39-.7,0-1.1.84-.79,1.65-1.62,2.46-2.45a5,5,0,0,0,.86-6,39.85,39.85,0,0,1-3.14-7.58,5,5,0,0,0-4.87-3.6c-1.12,0-2.25,0-3.36,0-.64,0-.88-.11-.88-.82,0-3.22,0-6.43,0-9.65,0-.65.14-.9.83-.86,1.11.06,2.24,0,3.36,0a5,5,0,0,0,5-3.76,37.65,37.65,0,0,1,3-7.28,5,5,0,0,0-.84-6.17c-.83-.86-1.67-1.71-2.53-2.53-.34-.32-.36-.53,0-.87q3.59-3.54,7.13-7.13c.41-.42.62-.27.94.06.8.84,1.63,1.65,2.45,2.46a5,5,0,0,0,6.17.87,38.27,38.27,0,0,1,7.38-3.05,5,5,0,0,0,3.67-4.92c0-1.15,0-2.31,0-3.47,0-.55.15-.76.73-.75q4.93,0,9.87,0c.59,0,.74.19.72.74,0,1,0,2.09,0,3.14a5.14,5.14,0,0,0,4,5.35,36.12,36.12,0,0,1,7,2.91,5,5,0,0,0,6.42-1c.8-.79,1.6-1.57,2.37-2.38.32-.33.53-.36.87,0q3.54,3.58,7.13,7.13c.41.41.28.61-.06.94-.86.82-1.7,1.67-2.53,2.52a5,5,0,0,0-.9,5.91,42,42,0,0,1,3.22,7.78,4.9,4.9,0,0,0,4.63,3.46c1.16,0,2.32.05,3.47,0,.74,0,1,.16,1,.94C255.83,155.2,255.87,156.79,255.87,158.38Z" transform="translate(-80.19 -54)"/><path class="cls-2" d="M194.94,158.35a18.74,18.74,0,1,0,18.72-18.75A18.77,18.77,0,0,0,194.94,158.35Z" transform="translate(-80.19 -54)"/><path class="cls-1" d="M294.49,172.92a4.73,4.73,0,0,0,2.61-.76c.55-.29.78-.15,1,.4.48,1.18,1,2.34,1.56,3.5.17.38.13.58-.28.73a10.08,10.08,0,0,0-1.26.56,3.59,3.59,0,0,0-2,3.73,24.32,24.32,0,0,1,.15,4.43,3.62,3.62,0,0,0,2.52,4,6.37,6.37,0,0,0,.91.36c.42.11.52.28.35.7-.51,1.25-1,2.5-1.45,3.77-.15.41-.33.51-.72.33s-.79-.31-1.19-.45a3.56,3.56,0,0,0-4.09,1.13,27.46,27.46,0,0,1-3.31,3.51,3.61,3.61,0,0,0-.95,4,7.19,7.19,0,0,0,.52,1.17c.29.48.11.67-.34.86-1.21.51-2.41,1.05-3.59,1.61-.4.18-.57.11-.72-.29a11.86,11.86,0,0,0-.57-1.26,3.59,3.59,0,0,0-3.74-2,22.77,22.77,0,0,1-4.13.17c-2.4-.15-3.62.58-4.4,2.87-.31.91-.63,1.1-1.47.69s-1.65-.65-2.48-1c-1.25-.48-1.24-.48-.79-1.71a6.13,6.13,0,0,0,.35-1.32,3.41,3.41,0,0,0-1.3-3.24,26.73,26.73,0,0,1-3.5-3.31c-1.18-1.33-2.76-1.55-4.59-.74-1.24.55-1.24.55-1.78-.66-.44-1-.86-2-1.33-3-.19-.39-.11-.59.28-.74a12.24,12.24,0,0,0,1.17-.52,3.59,3.59,0,0,0,2.08-3.79,22.79,22.79,0,0,1-.14-4.52c.13-1.94-.8-3.3-2.92-4-.91-.31-1.1-.61-.67-1.48a30.4,30.4,0,0,0,1.24-3.21c.14-.4.31-.54.71-.32a6.32,6.32,0,0,0,.82.32,3.72,3.72,0,0,0,4.71-1.31,19.91,19.91,0,0,1,2.63-2.8c1.78-1.56,2.13-2.94,1.09-5.07-.44-.91-.34-1.33.64-1.66s2.05-.88,3.06-1.35c.38-.18.58-.13.73.28a12.24,12.24,0,0,0,.52,1.17,3.6,3.6,0,0,0,3.89,2.06,20.88,20.88,0,0,1,4-.14c2.39.14,3.6-.61,4.4-2.9.3-.86.57-1.14,1.48-.68a22.5,22.5,0,0,0,3.11,1.21c.5.17.63.38.39.85a8.73,8.73,0,0,0-.38,1,3.61,3.61,0,0,0,1.19,4.24,22.47,22.47,0,0,1,3.35,3.19A3.65,3.65,0,0,0,294.49,172.92Z" transform="translate(-80.19 -54)"/><path class="cls-1" d="M276.31,195.53a11.63,11.63,0,1,0-10.85-12.31A11.62,11.62,0,0,0,276.31,195.53Z" transform="translate(-80.19 -54)"/><path class="cls-1" d="M194.94,158.35a18.74,18.74,0,1,1,18.75,18.74A18.76,18.76,0,0,1,194.94,158.35Z" transform="translate(-80.19 -54)"/><path class="cls-1" d="M213.59,172.66a14.33,14.33,0,1,0-14.26-14.4A14.34,14.34,0,0,0,213.59,172.66Z" transform="translate(-80.19 -54)"/><path class="cls-2" d="M276.31,195.53a11.63,11.63,0,1,1,12.37-10.87A11.66,11.66,0,0,1,276.31,195.53Z" transform="translate(-80.19 -54)"/><path class="cls-2" d="M269.49,183.43a7.62,7.62,0,1,0,8.05-7.09A7.66,7.66,0,0,0,269.49,183.43Z" transform="translate(-80.19 -54)"/><path d="M235.32,378c-6.83,0-8.93,0-15.75,0-17-.11-30-11.93-30.14-28.91-.07-10.42-3.22-39.74-5.32-50a95.06,95.06,0,0,0-26.69-49.66A117.23,117.23,0,0,1,130,208.3a112.62,112.62,0,0,1,27.66-123c23.3-22,51.06-32.56,83-31.17,50.88,2.21,94.47,38.58,105.11,88.35,8.53,39.94-1.58,75.21-30.19,104.49-12.86,13.17-22.73,27.72-27.41,45.61a99.49,99.49,0,0,0-3.15,24.89c0,6.17-3.3,31.3-4.12,37.38-1.72,12.78-14.2,22.65-27.1,23-7.74.24-10.77.05-18.51.05Zm0-20.58c7,0,14,0,21,0,5.1,0,8-21.84,8.15-27q.11-4.15,0-8.31a124,124,0,0,1,3.76-34.79c5.72-21.5,17.33-39.24,32.87-55.07,24.25-24.69,32.29-54.63,23.85-88.09-13.17-52.24-67.08-81.35-118.64-64.86-48.46,15.5-75.47,70.34-58.37,118.34,5.34,15,14.3,27.44,25.42,38.69,16.37,16.55,26.52,36.51,31,59.38,2.25,11.41,2,22.93,2,34.45,0,5.45,2.89,27.2,8.38,27.23C221.68,357.43,228.5,357.41,235.33,357.41Z" transform="translate(-80.19 -54)"/><path d="M152.49,265.11c-3.19.4-11.8,1.37-12.67,3.64a13.26,13.26,0,0,1-6.6,6.87c-8.13,4.27-18.51,3-24.91-2.77s-4.76-17.75,8-21.08c5-1.3,9.93-1.61,14.64.48a20.81,20.81,0,0,1,4.94,3.11c3,2.49,10.56,3.09,14.69,2.77,3.92-.31,7.88-1.25,11.72-1.88l23.85-3.94c11.9-2.08,23.29-5.22,34.88-8.14.26-.06.51-.16,1-.32-2.82-.95-5.41-1.89-8.06-2.7-13.32-4.08-25.89-9.29-38.62-14.26q-16.28-6.34-32.54-12.73c-6-2.32-12-4.54-17.82-7a140.08,140.08,0,0,1-23.2-12.8,80.63,80.63,0,0,1-15.39-12.79c-2.62-2.9-4.89-5.93-5.76-9.44-2.39-9.67,5-18.42,17.77-20.61a89.64,89.64,0,0,1,12.63-1c6.24-.16,10.13,0,16.58,0-.9,2.53-1.7,4.77-2.51,7.06-1.07,0,.24,0-.81,0-5.48,0-11-.18-16.43-.1a28.88,28.88,0,0,0-10.5,2.12c-4.23,1.74-7,4.3-7.68,8a8.34,8.34,0,0,0,1.33,5.7c2.5,4.27,6.33,7.8,10.6,11.1a137.82,137.82,0,0,0,25.68,15.25c8.14,3.83,16.44,7.46,24.77,11,25.72,11,52.71,20,80.18,28.16a12.28,12.28,0,0,0,7.18,0c25-7.46,49.57-15.66,73.27-25.29,6.6-2.68,13-5.69,19.47-8.53a245.57,245.57,0,0,0,25.44-12.41c8.68-5.06,16.23-10.9,21.88-18.06,5.09-6.45,1.62-13.44-7.85-15.78-6.42-1.6-13-1.68-19.67-1.43-2.42.1-4.83.28-7.25.37-.34,0-.94-.22-1-.43-.8-2.15-1.51-4.32-2.3-6.61,8.71-.12,17.2-.62,25.69.06,5.63.46,10.9,1.66,15.43,4.32,7.39,4.36,10.4,11.51,8,18.55-1.59,4.56-5.07,8.29-9,11.83-7.16,6.54-15.81,11.8-25,16.64q-7,3.69-14,7.35L290.89,230c-7.4,2.72-15,5.08-22.52,7.59l-18.15,6.05a4.77,4.77,0,0,0-.63.3c6.89,1.78,13.62,3.6,20.43,5.25,5.72,1.39,11.52,2.6,17.29,3.85,7.58,1.63,15.18,3.22,22.76,4.83,3.11.67,11.43,2.58,13.52.8a18.47,18.47,0,0,1,9.85-4.08c9.78-1.23,18.44,3.26,20.94,10.55,2.46,7.14-5.76,17.58-19.19,16.47-5.26-.44-9.89-1.75-13-5.16a14.77,14.77,0,0,1-2.71-4.41c-1-2.61-9-6.8-12.51-7.43-6.84-1.27-13.72-2.43-20.46-3.95-9.21-2.08-18.33-4.4-27.44-6.72-6.58-1.67-13.09-3.52-19.64-5.28a14.22,14.22,0,0,0-7.84.11c-13.86,4-27.81,7.83-42.08,10.92-7.55,1.63-15.2,3.06-23,4.09C161.93,264.38,157.16,264.52,152.49,265.11Zm184.06,9.46c4.92,0,8.87-2.93,8.89-6.6s-4.08-6.68-8.87-6.67-8.79,3-8.82,6.67S331.54,274.58,336.55,274.57Zm-217.48-16c-4.45,1.6-6.36,5.52-4.29,8.84s7.47,4.72,11.8,3.16,6.25-5.53,4.18-8.87S123.59,256.92,119.07,258.54Z" transform="translate(-80.19 -54)"/><path d="M252.34,301.79H279.9c2.8,0,4.82,1.6,5.94,4.65,1.06,2.86.79,5.83-1.07,7.93a11.4,11.4,0,0,1-4.75,2.76c-1.12.41-2.41.1-3.63.11H226.73a13.92,13.92,0,0,1-2.95-.22c-3.35-.7-5.46-3.94-5.3-8s2.66-7.08,6.07-7.15c5.92-.13,11.84-.06,17.76-.07h10Z" transform="translate(-80.19 -54)"/><path d="M252.46,326.19c9.12,0,18.23-.06,27.34,0,5.06,0,8.08,5.93,5.84,11.18a6.53,6.53,0,0,1-6.64,4.27q-17,0-33.95,0c-6.53,0-13.06,0-19.59,0-3.83,0-6.58-2.76-7-6.73-.47-4.91,2.34-8.68,6.61-8.71C234.24,326.15,243.35,326.19,252.46,326.19Z" transform="translate(-80.19 -54)"/><path d="M187.13,301.79h3.45c.35,0,.6,1.6.74,4.65a54.49,54.49,0,0,1-.14,7.93,11.54,11.54,0,0,1-.59,2.76c-.14.41-.3.1-.45.11h-6.21a.37.37,0,0,1-.37-.22c-.42-.7-.68-3.94-.66-8s.33-7.08.76-7.15a13.73,13.73,0,0,1,2.22-.07h1.25Z" transform="translate(-80.19 -54)"/><path d="M188.33,326.19c1.14,0,2.27-.06,3.41,0,.64,0,1,5.93.73,11.18-.17,3.26-.47,4.27-.83,4.27-1.41,0-2.83,0-4.24,0-.82,0-1.63,0-2.45,0-.48,0-.82-2.76-.87-6.73-.06-4.91.29-8.68.83-8.71C186.05,326.15,187.19,326.19,188.33,326.19Z" transform="translate(-80.19 -54)"/></svg>