<svg id="Layer_1" data-name="Layer 1" xmlns="http://www.w3.org/2000/svg" viewBox="0 0 362 303.32"><defs><style>.cls-1,.cls-2{fill:#fff;stroke:#000;stroke-miterlimit:10;}.cls-1{stroke-width:2px;}</style></defs><title>Moving</title><g id="UdIEPD.tif"><path class="cls-1" d="M396.23,304.38v-3.22c0-17.73.07-35.46-.07-53.19a22.31,22.31,0,0,0-1.63-8.19c-9.25-22.34-18.67-44.61-28-66.91-3.59-8.56-8.67-12-18-12l-76.84.05h-3.54v68.43H250.89V137l9.14,6.71c.71-2.54,2-4.94,1.86-7.23-.22-3.08-.62-6.39-3.72-8.54-4.29-3-8.17-6.57-12.62-9.24-4.22-2.54-5.53-5.68-5.18-10.46.44-6.1.1-12.27.1-18.45h-17.6v11.8c-1.16-.84-2-1.43-2.81-2q-22.32-16.67-44.61-33.35c-1.14-.86-1.92-1.23-3.29-.2q-41.67,31.26-83.42,62.43a6.52,6.52,0,0,0-1.86,2.33c-2.08,4.32-1.39,8.53.71,12.8l8.8-6.45V229.4c-.64,0-1.13.13-1.63.13-10.18.08-20.36.26-30.54.18-13.2-.09-21.75,7.92-21.85,21-.12,15.42,0,30.84,0,46.25,0,6.49,2.91,11.06,8.81,13.82a3.24,3.24,0,0,1,1.48,2.24c.21,2,0,4.1.11,6.16.35,8.86,6.46,14.87,15.3,15,4.71.07,9.42,0,14.13,0h13a34.78,34.78,0,0,0,11,22.24,36.17,36.17,0,0,0,45,4.24c9.47-6.3,14.71-15.26,16.25-26.36H282.1c3.56,12.8,5.64,17,11.18,22.15a35.83,35.83,0,0,0,22.52,10,35,35,0,0,0,21.79-5.43c9.88-6.26,15.24-15.41,17-26.88h3.07c9.25,0,18.5,0,27.75,0,7.26,0,13.72-4.41,15.72-11,1.84-6.06,1-12.35,1.12-18.8Z" transform="translate(-41.31 -64.34)"/><path class="cls-1" d="M396.23,304.38h6c-.1,6.45.72,12.74-1.12,18.8-2,6.63-8.46,11-15.72,11-9.25,0-18.5,0-27.75,0h-3.07c-1.72,11.47-7.08,20.62-17,26.88a35,35,0,0,1-21.79,5.43,35.83,35.83,0,0,1-22.52-10c-5.54-5.19-7.62-9.35-11.18-22.15H167.35c-1.54,11.1-6.78,20.06-16.25,26.36a36.17,36.17,0,0,1-45-4.24,34.78,34.78,0,0,1-11-22.24h-13c-4.71,0-9.42,0-14.13,0-8.84-.13-15-6.14-15.3-15-.09-2.06.1-4.13-.11-6.16a3.24,3.24,0,0,0-1.48-2.24c-5.9-2.76-8.82-7.33-8.81-13.82,0-15.41-.09-30.83,0-46.25.1-13.12,8.65-21.13,21.85-21,10.18.08,20.36-.1,30.54-.18.5,0,1-.08,1.63-.13V137.07l-8.8,6.45c-2.1-4.27-2.79-8.48-.71-12.8a6.52,6.52,0,0,1,1.86-2.33Q130.44,97.16,172.16,66c1.37-1,2.15-.66,3.29.2q22.28,16.71,44.61,33.35c.82.61,1.65,1.2,2.81,2V89.75h17.6c0,6.18.34,12.35-.1,18.45-.35,4.78,1,7.92,5.18,10.46,4.45,2.67,8.33,6.28,12.62,9.24,3.1,2.15,3.5,5.46,3.72,8.54.16,2.29-1.15,4.69-1.86,7.23L250.89,137v92.41h17.23V160.94h3.54l76.84-.05c9.34,0,14.42,3.42,18,12,9.35,22.3,18.77,44.57,28,66.91a22.31,22.31,0,0,1,1.63,8.19c.14,17.73.07,35.46.07,53.19ZM151.92,182.15v47.16h97.83c0-.69.11-1.2.11-1.7q0-44.45-.07-88.88a4.45,4.45,0,0,0-1.61-3.1Q212,108.21,175.66,80.91c-1.53-1.16-2.46-1.09-3.93,0q-36,27.24-72.16,54.33a4.41,4.41,0,0,0-2,4q.09,43.67,0,87.34v2.79h27.09V182.15Zm117,48.27h-13.8c-63.48,0-127,.13-190.44-.11-12.2-.05-21.41,8.2-21.5,19.56-.12,15.93-.08,31.87,0,47.8,0,4.65,1.77,9,6,10.88,4.05,1.81,4.8,4.41,4.25,8.15a6.59,6.59,0,0,0,0,.77c.07,10.22,5.69,15.84,16,15.89,6.85,0,13.71,0,20.56,0,5.5,0,5.5,0,6.73,5.22,3.55,15,17.41,26.56,32.37,27.1,16.88.62,31-9.11,35.85-24.72.72-2.35,1.17-4.78,1.78-7.28H283c1.8,19.2,18.82,32.26,35.35,32.08a35.2,35.2,0,0,0,21.49-7.24c8.29-6.29,12.62-14.84,13.93-25.15h2.73q14.77-.09,29.55-.19c6.76-.05,13.09-4.43,14.36-11,1.07-5.53.9-11.31,1.3-17.21h-6.36c-.05-.94-.12-1.69-.12-2.44,0-18.67,0-37.34,0-56a14.79,14.79,0,0,0-1.06-5.47q-14.37-34.55-28.9-69c-2.85-6.75-8-10.28-15.42-10.28H271.4c-.74,0-1.49.12-2.47.21ZM173.71,78.11l85.78,64.08c.42-1.41.72-2.37,1-3.35a9.54,9.54,0,0,0-3.64-10.75L201.76,86.93l-28-20.87c-.52.34-1,.6-1.36.9Q130.9,98,89.39,129a4.51,4.51,0,0,0-1.52,1.62c-1.54,3.75-2.13,7.53.28,11.4Zm-22.85,105H125.59v46.19h25.27Zm88.44-69.52V90.68H224c0,3.58,0,7,0,10.38a2.48,2.48,0,0,0,.81,1.7C229.54,106.33,234.26,109.82,239.3,113.58Z" transform="translate(-41.31 -64.34)"/><path class="cls-1" d="M151.92,182.15H124.66v47.23H97.57v-2.79q0-43.67,0-87.34a4.41,4.41,0,0,1,2-4q36.12-27.1,72.16-54.33c1.47-1.11,2.4-1.18,3.93,0q36.24,27.41,72.52,54.72a4.45,4.45,0,0,1,1.61,3.1q.14,44.43.07,88.88c0,.5-.07,1-.11,1.7H151.92Zm43.33-62.82h-43V162.4h43Z" transform="translate(-41.31 -64.34)"/><path class="cls-2" d="M268.93,230.42V162c1-.09,1.73-.21,2.47-.21h78.38c7.41,0,12.57,3.53,15.42,10.28q14.54,34.47,28.9,69a14.79,14.79,0,0,1,1.06,5.47c.08,18.67,0,37.34,0,56,0,.75.07,1.5.12,2.44h6.36c-.4,5.9-.23,11.68-1.3,17.21-1.27,6.58-7.6,11-14.36,11q-14.77.12-29.55.19h-2.73c-1.31,10.31-5.64,18.86-13.93,25.15a35.2,35.2,0,0,1-21.49,7.24c-16.53.18-33.55-12.88-35.35-32.08H166.73c-.61,2.5-1.06,4.93-1.78,7.28-4.81,15.61-19,25.34-35.85,24.72-15-.54-28.82-12.15-32.37-27.1-1.23-5.22-1.23-5.22-6.73-5.22-6.85,0-13.71,0-20.56,0-10.27-.05-15.89-5.67-16-15.89a6.59,6.59,0,0,1,0-.77c.55-3.74-.2-6.34-4.25-8.15-4.27-1.91-6-6.23-6-10.88-.08-15.93-.12-31.87,0-47.8.09-11.36,9.3-19.61,21.5-19.56,63.48.24,127,.11,190.44.11Zm14.34,97.09a35.52,35.52,0,0,1,11.59-23.06A34.33,34.33,0,0,1,319,295.39a33.92,33.92,0,0,1,20.29,6.81c8.51,6.3,13,14.9,14.37,25.32,1.17.07,2.1.17,3,.17,9.25,0,18.51,0,27.76-.07,7-.05,10.71-3.58,11.18-10.6.09-1.27-.07-2.57,0-3.85.13-1.86-.57-2.59-2.51-2.51-3.39.14-6.8,0-10.28,0v-5.82h6.66v-2.77c0-17.3-.05-34.61.06-51.91,0-2.58-.63-3.34-3.27-3.33-22.27.1-44.55.06-66.82,0a29.18,29.18,0,0,1-5.62-.32c-10.33-2.1-16.83-10.21-16.84-20.86q0-27.49,0-55v-3H274.75V260.6H269V236.18c-.73-.06-1.16-.12-1.58-.12q-102.3,0-204.59.05c-7.83,0-13.79,5.55-13.91,13.49-.25,15.84-.16,31.69,0,47.54,0,5.25,2.91,7.79,8.23,8,3,.1,6,.2,8.93.24,2.72,0,5.43,0,8.21,0v5.54H59.43c0,3.33-.19,6.41,0,9.45a7.71,7.71,0,0,0,7.65,7.23c9,.15,18,.09,27,.18,1.64,0,2.21-.67,2.4-2.23,2.13-16.92,17.16-29.19,32.2-30.06,16.64-1,31.49,9,36.26,25,.68,2.27,1.11,4.61,1.68,7Zm19.41-160.18v2.47q0,27.73,0,55.48c0,10.14,6,16.06,16.14,16.09q32.76.1,65.51.12c1.15,0,2.29-.2,3.59-.32-.43-1.18-.72-2.07-1.08-2.94q-13.18-31.36-26.38-62.73c-2.71-6.45-5.41-8.22-12.33-8.21l-42.64,0ZM131.36,360.06a29.5,29.5,0,0,0,29.45-30.33c-.25-16-13.87-29.09-30-28.84-16.53.26-29.4,13.86-29.13,30.77C102,347.09,115.74,360.29,131.36,360.06Zm187,0a29.59,29.59,0,1,0-29.58-29A29.57,29.57,0,0,0,318.4,360.07Z" transform="translate(-41.31 -64.34)"/><path class="cls-2" d="M173.71,78.11,88.15,142c-2.41-3.87-1.82-7.65-.28-11.4A4.51,4.51,0,0,1,89.39,129Q130.9,98,172.42,67c.4-.3.84-.56,1.36-.9l28,20.87,55.09,41.16a9.54,9.54,0,0,1,3.64,10.75c-.28,1-.58,1.94-1,3.35Z" transform="translate(-41.31 -64.34)"/><path class="cls-2" d="M150.86,183.1v46.19H125.59V183.1Zm-16.8,27.77a4.52,4.52,0,0,0,4.61-4.46,4.6,4.6,0,0,0-9.2-.06A4.55,4.55,0,0,0,134.06,210.87Z" transform="translate(-41.31 -64.34)"/><path class="cls-1" d="M239.3,113.58c-5-3.76-9.76-7.25-14.43-10.82a2.48,2.48,0,0,1-.81-1.7c-.07-3.4,0-6.8,0-10.38H239.3Z" transform="translate(-41.31 -64.34)"/><path class="cls-1" d="M195.25,119.33V162.4h-43V119.33Zm-21,21h20.23V120.17H174.23Zm20.23,1.24H174.29v20h20.17ZM173.1,140.3V120.13H153V140.3Zm0,1.18h-20v20h20Z" transform="translate(-41.31 -64.34)"/><path class="cls-1" d="M283.27,327.51H166.64c-.57-2.4-1-4.74-1.68-7-4.77-16-19.62-26-36.26-25-15,.87-30.07,13.14-32.2,30.06-.19,1.56-.76,2.25-2.4,2.23-9-.09-18,0-27-.18a7.71,7.71,0,0,1-7.65-7.23c-.23-3,0-6.12,0-9.45H74.26v-5.54c-2.78,0-5.49,0-8.21,0-3,0-6-.14-8.93-.24-5.32-.18-8.19-2.72-8.23-8-.12-15.85-.21-31.7,0-47.54.12-7.94,6.08-13.48,13.91-13.49q102.3-.06,204.59-.05c.42,0,.85.06,1.58.12V260.6h5.74V167.77H297v3q0,27.49,0,55c0,10.65,6.51,18.76,16.84,20.86a29.18,29.18,0,0,0,5.62.32c22.27,0,44.55.06,66.82,0,2.64,0,3.29.75,3.27,3.33-.11,17.3-.06,34.61-.06,51.91v2.77h-6.66v5.82c3.48,0,6.89.1,10.28,0,1.94-.08,2.64.65,2.51,2.51-.09,1.28.07,2.58,0,3.85-.47,7-4.17,10.55-11.18,10.6-9.25.07-18.51.06-27.76.07-.93,0-1.86-.1-3-.17-1.34-10.42-5.86-19-14.37-25.32A33.92,33.92,0,0,0,319,295.39a34.33,34.33,0,0,0-24.13,9.06A35.52,35.52,0,0,0,283.27,327.51Zm-7.79-159.2v93.3h-7.37V237.17c-.65,0-1.07-.08-1.49-.08q-101.88,0-203.78,0c-7.46,0-12.74,5.31-13,12.75,0,.35,0,.69,0,1q0,22.49,0,45c0,6.17,2.37,8.49,8.59,8.51,4.54,0,9.08,0,13.62,0,.92,0,1.84.08,2.83.12v7.18H60.22c0,2.29,0,4.33,0,6.36.11,6,2.88,8.75,8.92,8.78,7.88,0,15.76,0,23.64.06,1.91,0,2.57-.5,2.9-2.48a36.31,36.31,0,0,1,36.84-30c16.61.45,31.36,13,34.39,30.15.31,1.77,1,2.18,2.67,2.18q55.24-.06,110.5,0c1.81,0,2.39-.51,2.74-2.34,4.11-21.41,24.57-34.56,45.2-28.66,14.32,4.09,23,13.9,26.05,28.56.23,1.1-.08,2.51,1.81,2.49,10.19-.08,20.39,0,30.58-.23a7.67,7.67,0,0,0,7.51-6c.75-2.79.6-5.83.87-9h-13v-7.26h6.52v-56.4h-3.15c-22.79,0-45.57.12-68.36-.11-8.82-.09-15.41-4.56-18.8-12.76a29.66,29.66,0,0,1-2-10.74c-.19-17.72-.09-35.45-.09-53.18v-2.83Z" transform="translate(-41.31 -64.34)"/><path class="cls-1" d="M302.68,167.33h2.81l42.64,0c6.92,0,9.62,1.76,12.33,8.21q13.21,31.35,26.38,62.73c.36.87.65,1.76,1.08,2.94-1.3.12-2.44.33-3.59.32q-32.74,0-65.51-.12c-10.18,0-16.12-6-16.14-16.09q0-27.74,0-55.48Zm1,1V225c0,10,5.4,15.41,15.4,15.43q32.25.06,64.5.07c.9,0,1.8-.1,3-.17l-4.86-11.63q-11.31-26.93-22.59-53.87c-1.74-4.16-4.64-6.55-9.17-6.56C334.7,168.26,319.37,168.29,303.7,168.29Z" transform="translate(-41.31 -64.34)"/><path class="cls-2" d="M318.4,360.07A29.59,29.59,0,1,1,348,330.35,29.7,29.7,0,0,1,318.4,360.07Zm28.66-29.6a28.62,28.62,0,1,0-57.24.47c.06,15.55,13.2,28.34,29,28.23C334.22,359.06,347.13,346,347.06,330.47Z" transform="translate(-41.31 -64.34)"/><path class="cls-1" d="M134.06,210.87a4.55,4.55,0,0,1-4.59-4.52,4.6,4.6,0,0,1,9.2.06A4.52,4.52,0,0,1,134.06,210.87Zm3.6-4.55a3.6,3.6,0,1,0-3.42,3.68A3.48,3.48,0,0,0,137.66,206.32Z" transform="translate(-41.31 -64.34)"/><path class="cls-2" d="M174.23,140.28V120.17h20.23v20.11Z" transform="translate(-41.31 -64.34)"/><path class="cls-2" d="M194.46,141.52v20H174.29v-20Z" transform="translate(-41.31 -64.34)"/><path class="cls-2" d="M173.1,140.3H153V120.13H173.1Z" transform="translate(-41.31 -64.34)"/><path class="cls-2" d="M173.11,141.48v20h-20v-20Z" transform="translate(-41.31 -64.34)"/><path class="cls-2" d="M275.48,168.31H296v2.83c0,17.73-.1,35.46.09,53.18a29.66,29.66,0,0,0,2,10.74c3.39,8.2,10,12.67,18.8,12.76,22.79.23,45.57.1,68.36.11h3.15v56.4h-6.52v7.26h13c-.27,3.16-.12,6.2-.87,9a7.67,7.67,0,0,1-7.51,6c-10.19.22-20.39.15-30.58.23-1.89,0-1.58-1.39-1.81-2.49C351,309.65,342.34,299.84,328,295.75c-20.63-5.9-41.09,7.25-45.2,28.66-.35,1.83-.93,2.34-2.74,2.34q-55.26-.08-110.5,0c-1.65,0-2.36-.41-2.67-2.18-3-17.16-17.78-29.7-34.39-30.15a36.31,36.31,0,0,0-36.84,30c-.33,2-1,2.51-2.9,2.48-7.88-.1-15.76,0-23.64-.06-6,0-8.81-2.79-8.92-8.78,0-2,0-4.07,0-6.36H74.87v-7.18c-1,0-1.91-.12-2.83-.12-4.54,0-9.08,0-13.62,0-6.22,0-8.58-2.34-8.59-8.51q0-22.47,0-45c0-.34,0-.68,0-1,.26-7.44,5.54-12.75,13-12.75q101.9-.06,203.78,0c.42,0,.84,0,1.49.08v24.44h7.37Z" transform="translate(-41.31 -64.34)"/><path class="cls-2" d="M303.7,168.29c15.67,0,31,0,46.32,0,4.53,0,7.43,2.4,9.17,6.56q11.22,27,22.59,53.87l4.86,11.63c-1.24.07-2.14.17-3,.17q-32.25,0-64.5-.07c-10,0-15.4-5.47-15.4-15.43V168.29Z" transform="translate(-41.31 -64.34)"/><path class="cls-1" d="M137.66,206.32a3.48,3.48,0,0,1-3.42,3.68,3.58,3.58,0,0,1-3.77-3.61,3.6,3.6,0,1,1,7.19-.07Z" transform="translate(-41.31 -64.34)"/><path class="cls-2" d="M112.91,330.48a18.27,18.27,0,0,1,18.44-18.33,18.57,18.57,0,0,1,18.45,18.46c-.1,9.82-8.44,18.38-17.83,18.3C121,348.82,112.9,341,112.91,330.48Zm18.48-17.33a17.39,17.39,0,1,0,17.44,17.48A17.34,17.34,0,0,0,131.39,313.15Z" transform="translate(-41.31 -64.34)"/><path class="cls-2" d="M318.48,312.15c10.1,0,18.61,8.51,18.47,18.44S328.5,349,319.12,348.92c-11-.1-19.09-7.92-19.06-18.43A18.25,18.25,0,0,1,318.48,312.15ZM301,330.65C301,340.48,308.9,348,319,348c9.11-.06,17-8.19,16.93-17.54a17.5,17.5,0,0,0-35,.23Z" transform="translate(-41.31 -64.34)"/><path class="cls-2" d="M119.6,330.54a11.51,11.51,0,0,1,11.62-11.73,11.75,11.75,0,0,1,11.89,11.85,11.88,11.88,0,0,1-11.87,11.64A11.65,11.65,0,0,1,119.6,330.54Zm11.83-10.71a10.57,10.57,0,0,0-10.92,10.76,10.78,10.78,0,0,0,10.78,10.76,10.92,10.92,0,0,0,10.86-10.73A10.77,10.77,0,0,0,131.43,319.83Z" transform="translate(-41.31 -64.34)"/><path class="cls-2" d="M306.75,330.56a11.52,11.52,0,0,1,11.63-11.75,11.76,11.76,0,0,1,11.89,11.64c.11,5.91-5.3,11.79-10.94,11.89C312.1,342.47,306.76,337.47,306.75,330.56Zm11.69-10.73a10.55,10.55,0,0,0-10.78,10.64,10.75,10.75,0,0,0,10.9,10.89,11,11,0,0,0,10.73-10.87A10.78,10.78,0,0,0,318.44,319.83Z" transform="translate(-41.31 -64.34)"/></g></svg>