<?xml version="1.0" encoding="iso-8859-1"?>
<!-- Generator: Adobe Illustrator 23.0.2, SVG Export Plug-In . SVG Version: 6.00 Build 0)  -->
<svg version="1.1" id="Layer_1" xmlns="http://www.w3.org/2000/svg" xmlns:xlink="http://www.w3.org/1999/xlink" x="0px" y="0px"
	 viewBox="-49 141 512 512" style="enable-background:new -49 141 512 512;" xml:space="preserve">
<path style="fill:#0BB7A5;" d="M431.933,328.365c1.012-0.701,2.206-1.07,3.107-1.965c3.027-3,6.627-8.48,6.627-17.555
	c0-21.733-21.889-57.53-55.785-91.192c-38.14-37.902-88.598-69.355-109.208-48.841c-1.59,1.576-3.306,3.89-4.608,6.997
	c-13.4,17.888-20.938,38.433-22.195,60.103l-78.729,57.225c-42.179-7.432-84.663,0.883-120.261,23.083
	c-10.393,6.491-16.022,18.659-14.336,31.015c7.008,50.96,29.049,97.164,61.365,134.153L-24.816,613.737
	c-3.901,4.209-3.787,10.752,0.27,14.804c2.081,2.084,4.807,3.125,7.532,3.125c2.601,0,5.202-0.948,7.251-2.855l132.164-122.9
	c36.94,32.361,83.078,54.428,133.964,61.442c1.467,0.208,2.923,0.302,4.37,0.302c10.757,0,20.891-5.47,26.602-14.659
	c16.948-27.244,25.905-58.561,25.905-90.577c0-9.979-1.138-20.124-2.946-30.246l57.132-78.436
	C390.92,352.402,413.119,343.911,431.933,328.365z"/>
</svg>
