<svg id="Layer_1" data-name="Layer 1" xmlns="http://www.w3.org/2000/svg" viewBox="0 0 360 315.49"><defs><style>.cls-1{fill:#fff;}.cls-2{stroke:#fff;}.cls-2,.cls-3{stroke-miterlimit:10;}.cls-3{fill:none;stroke:#000;}</style></defs><title>Soul Place</title><g id="ln44ui.tif"><path d="M300.56,60.27c34.76,3.87,66.7,24.43,83.47,56.92a109.29,109.29,0,0,1,8.56,77.7c-8.49,32-27.29,57.06-49.43,80.19-36.37,38-78.36,69.09-122.24,97.79-3.35,2.2-5.87,2.31-9.28.06C161.86,340.1,114.33,304.61,75.21,259c-22-25.63-37-54.23-38.91-88.72-2.45-45,27.27-88.46,69.19-104.21,24.53-9.22,52.47-9.79,76.76.79C194.3,72.15,205.52,79.31,217.71,86a105.31,105.31,0,0,1,41.57-22.31A107.84,107.84,0,0,1,300.56,60.27ZM217,126.52c-1-.3-1.34-.29-1.46-.43-2.67-3.16-5.32-6.34-8-9.51-18.25-21.67-41.25-32.22-69.85-30.53-48.63,2.86-84,50.63-73.06,98,5.66,24.45,18.77,44.28,34.9,62.6,30.2,34.31,65.9,62.27,103.13,88.38,13.39,9.4,13.72,9.42,27.12,0,40.78-28.72,79.92-59.35,111.72-98.29,16.12-19.75,27.23-41.85,28.17-67.61C371.88,110,311.56,69.24,257,92.37,240,99.57,227.69,111.94,217,126.52Z" transform="translate(-36.16 -59.08)"/><path class="cls-1" d="M217.06,120.58c11.39-15.55,24.55-28.73,42.63-36.4,58.14-24.66,122.43,18.75,120.12,81.75-1,27.46-12.85,51-30,72.07-33.9,41.5-75.61,74.14-119.08,104.75-14.27,10.05-14.62,10-28.9,0-39.68-27.84-77.73-57.63-109.91-94.2C74.7,229,60.72,207.91,54.69,181.85,43,131.4,80.72,80.49,132.55,77.44c30.49-1.8,55,9.44,74.45,32.54,2.84,3.37,5.66,6.77,8.51,10.14C215.64,120.27,216,120.26,217.06,120.58Z" transform="translate(-36.16 -59.08)"/></g><path class="cls-2" d="M297.06,92.69c13.44-.34,26.21,3.88,37.81,11.68,14.38,9.66,24.64,22.53,29.66,39.28a57.53,57.53,0,0,1,2.53,17.26c-.06,5.05-.91,10.1-1.39,15.15a28.36,28.36,0,0,1-1,5.93c-1.64,5.16-7.32,6.72-11.32,3.07-2.29-2.09-2.3-4.82-1.82-7.57a90.22,90.22,0,0,0,1.63-13,53.7,53.7,0,0,0-9.89-32.78c-10.08-14.65-23.88-23-41.65-24.56-2.76-.24-5.52-.35-8.27-.57a11.91,11.91,0,0,1-2.51-.52c-3.27-1-4.76-3.12-4.69-6.51.07-3.16,1.79-5.27,5-6.19A31,31,0,0,1,297.06,92.69Z" transform="translate(-36.16 -59.08)"/><path class="cls-3" d="M149.43,208c1.5-2.89,2.82-5.59,4.26-8.21,1.7-3.09,3.55-6.1,5.26-9.18s3.18-6.05,4.83-9c1.22-2.23,2.57-4.39,3.82-6.61,1.05-1.85,2-3.77,3.11-5.6a2.17,2.17,0,0,1,1.43-.92c5.39-.47,10.78-.94,16.18-1.26,8.34-.51,16.69-.85,25-1.34,10.51-.61,21-1.3,31.52-1.92,1.73-.1,3.47,0,5.31,0-.69,1.36-1.31,2.73-2.06,4-1.56,2.71-3.26,5.34-4.79,8.06s-2.78,5.33-4.19,8c-.54,1-1.17,2-1.72,3.06-1.78,3.26-3.52,6.55-5.3,9.81-.91,1.65-1.88,3.26-2.81,4.9-.78,1.38-1.58,2.75-2.34,4.15-.68,1.25-1.29,2.55-2,3.77a1.49,1.49,0,0,1-1.13.55q-9.06-.18-18.11-.45c-5.2-.14-10.41-.31-15.62-.44-6.14-.15-12.28-.25-18.41-.44-6.86-.21-13.72-.5-20.57-.76C150.6,208.11,150.1,208.05,149.43,208Z" transform="translate(-36.16 -59.08)"/><path class="cls-3" d="M223.32,263.91c0-4.11.05-8,0-11.93,0-12.93-.25-25.92-.77-38.84,0-1.11.36-1.41,1.43-1.4a2.32,2.32,0,0,0,1.78-.8c7.22-11.82,13.42-24.22,20.07-36.36.93-1.69,1.94-3.33,3-5.19q8.35,11.55,16.48,23.26c3,4.31,5.88,8.7,8.92,13,1.7,2.39,1.37,5.33,1.43,8.12.15,6.27.17,12.53.27,18.8l.18,11.23V249a5.17,5.17,0,0,1,0,1.62c-.2.48-2.28.68-2.78.81l-3.4.85L263.16,254l-2.67.67c-1.8.46-35.45,8.61-37.17,9.28" transform="translate(-36.16 -59.08)"/><path class="cls-3" d="M154.94,256.29c-1.48-.2-1.72-.79-1.72-2.05q-.09-19.43-.24-38.85c0-1.8,0-3.6,0-5.66l68.09,2c0,12,.48,24,.71,36l.34,16.91c-2.15-.22-3.9-.32-5.6-.65-.36-.06-.78-1-.78-1.52,0-4,0-8,0-12.06,0-7.38-.11-14.76-.16-22.14,0-2.73,0-5.46,0-8.19,0-1.33-.46-1.79-1.82-1.8-4.9-.05-9.8-.23-14.7-.34-2.08,0-2.29.21-2.28,2.1q.1,13.54.16,27.09c0,4.13,0,8.26-.07,12.39,0,.66-.1,1.32-.17,2.16-2-.23-3.83-.43-5.69-.68-4.55-.63-9.09-1.3-13.64-1.92-3.78-.51-18.69-2.24-22.46-2.84" transform="translate(-36.16 -59.08)"/><path class="cls-3" d="M281.3,206.25c-1.5.08-2.73.23-3.95.19a2,2,0,0,1-1.32-.78c-8.34-12.16-17.48-25.67-26.21-37.56l1.81-3.62c5.35,9.34,23.13,33.25,29.67,41.77" transform="translate(-36.16 -59.08)"/><path class="cls-3" d="M268.57,242.77c-1.8.46-35.44,8.61-37.16,9.28L230.9,230c1.72-.67,35.36-8.82,37.16-9.28Z" transform="translate(-36.16 -59.08)"/><path class="cls-3" d="M265.62,241.77c-1.52.39-29.89,7.26-31.34,7.82L233.85,231c1.45-.56,29.82-7.43,31.34-7.82Z" transform="translate(-36.16 -59.08)"/><path class="cls-3" d="M171,166.86c3.73-.27,11.64-.64,15.33-.85,9.07-.54,18.14-1,27.21-1.54,12.48-.73,25.93-1.52,38.46-2.42l15.11,21.07c5.85,8.17,12.59,16.2,17.73,24.82-.33-.56-6.72,0-7.7,0,0,7,0,13.69,0,20.38q.06,11,.23,22c0,1.58-1.1,1.84-2.18,2.13-10.29,2.74-20.64,5.2-31,7.68-3.75.89-7.5,1.77-11.24,2.7" transform="translate(-36.16 -59.08)"/><path class="cls-3" d="M165.77,259.22c-.75-.09-11.53-1.49-12.16-1.45-1.58.12-1.92-.76-1.93-2.09,0-6.86-.12-13.72-.18-20.58,0-8.46-.14-16.91-.14-25.37-1,0-1.77,0-2.52,0-1.27,0-1.71-.68-1.1-1.8,3.07-5.65,6.5-11.11,9.57-16.77q3.78-7,7.58-14c1.15-2.14,2.32-4.26,3.55-6.35a17.17,17.17,0,0,1,2.57-3.91" transform="translate(-36.16 -59.08)"/><path class="cls-3" d="M233,262.81c-3.73,1.1-7.11,2.11-10.5,3.1a3.73,3.73,0,0,1-1.18.22,11.93,11.93,0,0,1-2.14-.27c-2.82-.64-5.21-.32-6.88,2.47s-4.07,3.78-7.55,3c-4.46-1-9.09-1.21-13.64-1.79-.35-.05-.86-.29-1-.55a1.29,1.29,0,0,1,.43-1c1.61-1.5,3.26-3,5.3-4.79l-30.09-4" transform="translate(-36.16 -59.08)"/><ellipse class="cls-3" cx="213.32" cy="126.38" rx="5.88" ry="6.76"/><path class="cls-3" d="M206.85,270.33c-.61-.08-13.75-1.8-14.71-1.91l5.29-4.61c.16-.14.49-.11.74-.09l14.69,1.75" transform="translate(-36.16 -59.08)"/><path class="cls-3" d="M212.86,265.47c-1.62,1.74-2.89,3.21-4.29,4.55a2.45,2.45,0,0,1-1.72.31" transform="translate(-36.16 -59.08)"/><path class="cls-3" d="M213.76,263.7c0-3.23,0-14.34,0-17.57,0-5.93-.09-11.85-.13-17.77,0-2.2,0-4.39,0-6.58,0-1.07-.37-1.44-1.46-1.45-3.93,0-7.86-.18-11.8-.26-1.67,0-1.84.16-1.83,1.68q.09,10.88.13,21.75c0,3.32,0,6.63-.06,9.94,0,.54-.08,7.77-.13,8.44Z" transform="translate(-36.16 -59.08)"/><path class="cls-3" d="M211.94,224.49c0-.82-.28-1.1-1.12-1.11-3,0-6-.14-9.07-.21-1.29,0-1.42.13-1.41,1.3h0c0,1.62,0,3.24,0,4.86,0,.82.28,1.1,1.12,1.11,3,0,6,.14,9.08.2,1.28,0,1.41-.12,1.4-1.29h0C211.93,227.73,211.91,226.11,211.94,224.49Z" transform="translate(-36.16 -59.08)"/><circle class="cls-3" cx="164.88" cy="184.27" r="1.46"/><path class="cls-3" d="M191.33,231.25v11.43c0,.91-.21,1.38-1.34,1.31q-14.75-.86-29.49-1.56c-1.32-.07-1.77-.55-1.78-1.87-.08-7.37-.22-14.75-.37-22.12,0-1.1.28-1.57,1.48-1.53,9.94.3,19.88.59,29.82.79,1.53,0,1.84.72,1.84,2,0,3.87-.15,7.28-.15,11.15C191.29,230.81,191.38,231.25,191.33,231.25ZM183.2,219c0,.44-.06.84,0,1.24,0,4.08,0,8.15.06,12.23,0,2.84,0,5.67,0,8.51,0,.44.42,1.23.68,1.24,1.94.11,3.88.06,6,.06V219Zm-23-.57c0,7.28,0,14.44,0,21.59,0,.29.53.78.85.81,1.78.18,3.58.25,5.31.35V218.43Zm21.51,10.51V218.7h-6.41c0,3,0,6,0,9,0,.3.36.84.59.86C177.79,228.75,179.73,228.83,181.66,228.94ZM175.41,240l6.46.46c0-3.17,0-6.25-.05-9.32,0-.31-.66-.86-1-.88-1.77-.09-3.54,0-5.38,0Zm-7.51-10.42c0,3.31,0,6.33,0,9.35a1.06,1.06,0,0,0,.72.76c1.72.07,3.44,0,5.2,0v-9.83Zm-.22-11c0,3,0,5.83,0,8.7,0,.31.46.87.73.88,1.78.08,3.55,0,5.3,0v-9.62Zm13.69,23.64,0-.46-11.09-.64,0,.36Z" transform="translate(-36.16 -59.08)"/></svg>