<svg id="Layer_1" data-name="Layer 1" xmlns="http://www.w3.org/2000/svg" viewBox="0 0 324.23 292"><defs><style>.cls-1,.cls-2{stroke:#000;stroke-width:4px;}.cls-1,.cls-2,.cls-3{stroke-miterlimit:10;}.cls-2{fill:#fff;}.cls-3{stroke:#fff;stroke-width:0.5px;}</style></defs><title>Untitled-26</title><circle class="cls-1" cx="146" cy="146" r="144"/><circle class="cls-2" cx="146" cy="146" r="96"/><circle class="cls-1" cx="146" cy="146" r="48"/><circle class="cls-2" cx="146" cy="146" r="24"/><polygon class="cls-3" points="293.86 66.58 153.21 148.28 148.47 140.12 289.12 58.42 290.33 63.17 293.86 66.58"/><rect x="350.27" y="109.09" width="25.81" height="6" transform="matrix(0.86, -0.5, 0.5, 0.86, -70.27, 143)"/><path d="M370.29,107.13l.57-.11a1.83,1.83,0,0,0,1.44-2.16l-3.45-17.35-1,.93a1.82,1.82,0,0,1-1.91.39l-1.27-.49,3.45,17.35A1.84,1.84,0,0,0,370.29,107.13Z" transform="translate(-63.1 -54.57)"/><path d="M365.35,110l.57-.11a1.84,1.84,0,0,0,1.44-2.16l-3.45-17.35-1,.94a1.84,1.84,0,0,1-1.91.38l-1.28-.49,3.46,17.35A1.84,1.84,0,0,0,365.35,110Z" transform="translate(-63.1 -54.57)"/><path d="M360.41,112.87l.57-.11a1.84,1.84,0,0,0,1.44-2.16L359,93.25l-1,.94a1.86,1.86,0,0,1-1.92.38l-1.27-.49,3.46,17.35A1.83,1.83,0,0,0,360.41,112.87Z" transform="translate(-63.1 -54.57)"/><path d="M355.3,115.83l.57-.11a1.83,1.83,0,0,0,1.45-2.16l-3.46-17.34-1,.93a1.84,1.84,0,0,1-1.91.38l-1.27-.48,3.45,17.34A1.83,1.83,0,0,0,355.3,115.83Z" transform="translate(-63.1 -54.57)"/><path d="M371,108.37l.38-.44a1.83,1.83,0,0,1,2.59-.18l13.36,11.59-1.3.4a1.83,1.83,0,0,0-1.28,1.47l-.21,1.34L371.19,111A1.84,1.84,0,0,1,371,108.37Z" transform="translate(-63.1 -54.57)"/><path d="M366.07,111.24l.38-.44a1.83,1.83,0,0,1,2.59-.18l13.36,11.59-1.3.4a1.81,1.81,0,0,0-1.28,1.47l-.21,1.34-13.36-11.59A1.84,1.84,0,0,1,366.07,111.24Z" transform="translate(-63.1 -54.57)"/><path d="M361.13,114.11l.38-.44a1.84,1.84,0,0,1,2.59-.18l13.35,11.59-1.3.4a1.84,1.84,0,0,0-1.28,1.47l-.21,1.35-13.35-11.6A1.83,1.83,0,0,1,361.13,114.11Z" transform="translate(-63.1 -54.57)"/><path d="M356,117.07l.39-.43a1.84,1.84,0,0,1,2.59-.19l13.35,11.6-1.3.39a1.85,1.85,0,0,0-1.28,1.48l-.21,1.34-13.35-11.59A1.85,1.85,0,0,1,356,117.07Z" transform="translate(-63.1 -54.57)"/></svg>