<svg id="Layer_1" data-name="Layer 1" xmlns="http://www.w3.org/2000/svg" viewBox="0 0 362 206.49"><defs><style>.cls-1,.cls-2{fill:#fff;stroke:#000;stroke-miterlimit:10;}.cls-1{stroke-width:2px;}</style></defs><title>Washington DC</title><path class="cls-1" d="M109.73,250.77c0-11.06-12.23-20-27.31-20s-27.31,9-27.31,20" transform="translate(-30.12 -121.38)"/><rect class="cls-1" x="1" y="196.34" width="106.22" height="5.82"/><rect class="cls-1" x="15.42" y="137.53" width="73.75" height="52.99"/><rect class="cls-1" x="11.34" y="129.39" width="81.92" height="8.14"/><polygon class="cls-2" points="26.8 136.51 81.42 136.51 54.11 118.31 26.8 136.51"/><line class="cls-1" x1="52.3" y1="135.91" x2="52.3" y2="190.52"/><line class="cls-1" x1="26.8" y1="135.91" x2="26.8" y2="190.52"/><line class="cls-1" x1="38.67" y1="190.52" x2="38.67" y2="135.91"/><line class="cls-1" x1="64.3" y1="135.91" x2="64.3" y2="190.52"/><line class="cls-1" x1="76.16" y1="190.52" x2="76.16" y2="135.91"/><rect class="cls-1" x="9.15" y="190.52" width="90.14" height="5.82"/><rect class="cls-1" x="87.94" y="132.48" width="273.06" height="65.9"/><rect class="cls-2" x="171.15" y="132.48" width="7.12" height="64.07"/><rect class="cls-2" x="270.67" y="132.48" width="7.12" height="64.07"/><rect class="cls-2" x="213.71" y="137.62" width="7.12" height="64.07"/><rect class="cls-2" x="242.51" y="137.62" width="7.12" height="64.07"/><rect class="cls-2" x="199.31" y="137.62" width="7.12" height="64.07"/><rect class="cls-2" x="228.11" y="137.62" width="7.12" height="64.07"/><rect class="cls-2" x="184.91" y="137.62" width="7.12" height="64.07"/><rect class="cls-2" x="256.91" y="137.62" width="7.12" height="64.07"/><rect class="cls-1" x="166.1" y="194.57" width="116.75" height="10.92"/><rect class="cls-1" x="277.79" y="132.48" width="83.21" height="10.92"/><rect class="cls-1" x="87.94" y="132.48" width="83.21" height="10.92"/><rect class="cls-1" x="166.1" y="125.68" width="116.75" height="10.92"/><rect class="cls-1" x="277.79" y="196.51" width="83.21" height="8.98"/><rect class="cls-1" x="87.94" y="196.51" width="83.21" height="8.98"/><rect class="cls-1" x="178.96" y="108.28" width="91.02" height="16.38"/><path class="cls-2" d="M250,221.2V209.06a3.68,3.68,0,0,1,3.68-3.68h4.44a3.68,3.68,0,0,1,3.68,3.68v.55a3.68,3.68,0,0,1-3.68,3.68H251" transform="translate(-30.12 -121.38)"/><polygon class="cls-1" points="224.47 124.66 285.37 124.66 224.47 98.86 163.57 124.66 224.47 124.66"/><rect class="cls-2" x="96.76" y="176.65" width="12.1" height="12.1"/><rect class="cls-2" x="121.2" y="176.65" width="12.1" height="12.1"/><rect class="cls-2" x="121.2" y="152.21" width="12.1" height="12.1"/><rect class="cls-2" x="96.76" y="152.21" width="12.1" height="12.1"/><rect class="cls-2" x="145.64" y="176.65" width="12.1" height="12.1"/><rect class="cls-2" x="145.64" y="152.21" width="12.1" height="12.1"/><rect class="cls-2" x="288.9" y="176.13" width="12.1" height="12.1"/><rect class="cls-2" x="313.34" y="176.13" width="12.1" height="12.1"/><rect class="cls-2" x="313.34" y="151.68" width="12.1" height="12.1"/><rect class="cls-2" x="288.9" y="151.68" width="12.1" height="12.1"/><rect class="cls-2" x="337.78" y="176.13" width="12.1" height="12.1"/><rect class="cls-2" x="337.78" y="151.68" width="12.1" height="12.1"/><polyline class="cls-1" points="106.57 131.14 109.1 16.77 121.2 1.6 133.3 16.77 135.83 131.14"/><path class="cls-1" d="M139.22,138.15" transform="translate(-30.12 -121.38)"/><polyline class="cls-1" points="133.3 16.77 121.2 14.24 109.1 16.77"/><line class="cls-1" x1="121.2" y1="131.14" x2="121.2" y2="14.25"/></svg>